<svg id="Ebene_1" data-name="Ebene 1" xmlns="http://www.w3.org/2000/svg" viewBox="0 0 813.51 1080"><path d="M467.6,1053.41H348.07c-4.41-1.46-9-.65-13.5-1.23-8.78-1.16-12.7-5.48-12.7-14.26a69,69,0,0,1,.29-7.33c3.53-33.88,7.82-67.68,10.76-101.62,2.79-32.22,4.61-64.5,6.61-96.76.11-1.85-.06-3.25-2-4.32-13.1-7.2-26.33-13.37-42-12.63a226.3,226.3,0,0,1-50.08-3.66c-39-6.9-75.11-21.21-108.89-41.62C95.92,745.42,65.9,711.83,49.75,666.6c-14-39.15-15.92-79.55-12.57-120.48a47.49,47.49,0,0,1,5.7-20c5.39-9.46,13.71-11.77,23-6.11,3.11,1.89,5.76,4.52,8.69,6.71,1.51,1.13,2.47,3.12,5,3.38-4.47-17.85-5.83-35.76-6.19-53.77a659.47,659.47,0,0,1,8.53-122.19c2-12,3.56-24.25,9.14-35.36,5.76-11.47,13-13.65,23.66-6.89,3.7,2.35,5.63,2.19,6.29-2.42.18-1.21.53-2.39.69-3.6a619.5,619.5,0,0,1,27.25-116c2.3-6.77,4.57-13.62,8.56-19.62,6-9.07,16-10.4,24.4-3.48a31,31,0,0,1,7.44,9.38c1.48,2.71,2.89,5.45,4.34,8.2.74-.43,1.13-.52,1.27-.75q2.15-3.6,4.2-7.25a643.43,643.43,0,0,1,68.14-99.2c5.85-7,11.94-13.75,19.54-18.9,9.19-6.23,15.61-4.83,21.51,4.51,3.28,5.2,5.42,10.92,7.46,16.69,2.77,7.82,5.62,15.61,8.8,24.45,6.9-9.19,13-17.62,19.44-25.83,12.72-16.27,25.83-32.22,42.65-44.53,14.82-10.84,25.27-10.74,40.17,0C437.4,41.1,445.9,50.88,454.4,60.63c11.15,12.79,21.18,26.46,31.39,40,2.17,2.89,3.42,2.95,4.62-.61,2.36-6.94,4.86-13.82,7.25-20.75,2-6,4.13-11.9,7.6-17.19,5.38-8.2,13.24-9.69,21-4C535,64.48,542,72.54,548.82,80.71c25.7,30.61,47.18,64.11,67.38,98.49,1,1.68,1.57,3.8,3.77,4.8,2.41-4.34,4.58-8.52,7-12.53,2.62-4.31,6.15-7.6,11.32-8.64,7.94-1.6,13.2.77,17.88,8.57,6.52,10.88,10.1,23,13.68,35,10,33.67,18.5,67.68,22,102.75.49,4.76,2.39,5.76,6.65,2.69,9.86-7.13,22.1-2.8,26.22,10.35a104.6,104.6,0,0,1,2.79,11.16c5.89,29.69,9.22,59.73,11.37,89.88a460,460,0,0,1-.62,78c-1,9.66-2.76,19.18-4.43,29.53,4.57-3.7,8.26-7.17,12.41-10,9.82-6.58,18.16-4.55,24.32,5.53,2.52,4.12,3.57,8.71,4.16,13.4,1.14,9,2.13,18,3.18,26.93v26.22c-1,9-2,18-3.12,26.94-6.53,52.62-29.31,97.08-70.54,130.25-52,41.85-112.11,64-179.18,65-17,.25-32.93,2.07-47.31,11.9-2.93,2-4.25,3.68-4.08,7.34,1.06,23,2.58,46,4.42,69,2.48,31,5.22,62,9,92.81,1.57,12.82,4.17,25.54,4.51,38.49.27,10.44-3.2,14.63-13.3,16.81C474.79,1052.26,471.18,1052.78,467.6,1053.41ZM70.23,572.64c-.36,9.35.42,17.79,1,26.24,3.47,53.71,23.88,98.8,68.1,131.13,42.18,30.84,90,46.8,141.74,51.92,3.71.37,3.72-1,2.73-3.76-3.64-10-6.77-20.16-8.08-30.8-3.25-26.36,2.26-51.43,11.18-76,11.18-30.72,27.73-58.62,45.61-85.78,2-3.07,2.28-5.63,1.16-9.18-8.19-25.82-20.55-49.61-34.78-72.49-14.5-23.34-30.13-45.91-50-65-9.33-9-8-10.59-18.77.31-12.77,13-23.66,27.56-34.21,42.36-20.26,28.42-37.21,58.64-48.69,91.71-5,14.38-4.15,17,8.17,26,21.8,15.88,44.48,30.14,71.12,36.8,6.34,1.59,11.46,5.37,13.47,12,3.81,12.6-4.22,21.87-18.05,20.89-13.29-.94-25.5-5.7-37.36-11.3C151.19,642,122.36,619.68,95,595.4,86.79,588.16,78.88,580.62,70.23,572.64Zm673.23-.14c-2.45,2.2-4.14,3.64-5.75,5.17-20.94,19.88-42.88,38.55-66.72,54.89-19.34,13.25-39.25,25.48-61.61,33.12-6.8,2.32-13.74,4.09-21,3.71-7.08-.37-12.37-3.55-14.9-10.41s-.3-12.67,4.63-17.63a23.14,23.14,0,0,1,12-6.14,77.43,77.43,0,0,0,15.36-5.13A268.8,268.8,0,0,0,655,602c17.66-12.89,16.09-10.69,10.08-30.31-10.4-34-28.91-63.78-49.34-92.47-11.16-15.68-23-30.8-37-44.12-3.36-3.21-6.18-3.35-9.42-.21-2.89,2.79-6,5.35-8.71,8.32-35.88,39.68-64.27,83.9-81.52,134.88-1.07,3.14-.35,5.21,1.27,7.66a573.74,573.74,0,0,1,43.5,77c14.36,31.18,16.6,63.5,11.92,96.82-1.07,7.59-5,14.42-6.77,21.87,4,0,7.69.45,11.27-.07,30.52-4.41,60.2-12,88.43-24.66,30-13.5,56.91-31.25,77.55-57.41C735.34,662.32,743,619.07,743.46,572.5ZM406.26,800.68c14.84.06,29.68,0,44.42-2.13,25.88-3.73,45.79-21.64,51.45-46.47,3.4-14.93,2.5-29.81-.55-44.68-4.42-21.62-13.19-41.51-24.16-60.48-17.35-30-36.31-58.88-60.41-84-9.73-10.14-11.71-10.2-21.05.27-29.79,33.41-55.4,69.71-73.41,110.89-9.76,22.31-15.69,45.46-12.28,70.26,4.17,30.33,23.46,50,53.65,54.33C378,800.68,392.11,800.7,406.26,800.68Zm44.5-250,2-1.11a440.45,440.45,0,0,1,44.67-84c2.94-4.32,3.38-9,2-14a105.29,105.29,0,0,0-4.14-12.39c-6.14-15.06-13.71-29.41-21.42-43.69a351.54,351.54,0,0,0-61-82.15c-6.21-6.21-6.29-6.14-12.66.11q-1.11,1.11-2.19,2.25c-23.27,24.4-43.34,51.13-59.1,81C330.09,413.4,321.19,430,315,447.88a21.59,21.59,0,0,0,2.53,20.36,542.8,542.8,0,0,1,41.84,76.08c1.35,3,2.79,2.67,4.7,1.17,3.16-2.47,6.29-5,9.28-7.67,6.9-6.18,13.74-12.39,21.77-17.17,7.61-4.52,15.08-4.67,22.79-.27,5,2.87,10,5.89,14.05,10C438.39,536.94,444.49,543.9,450.76,550.69Zm75-442.28c-2.33,3-3.46,6.33-4.7,9.57-6.49,16.93-12.82,33.93-19.49,50.8-16.38,41.4-35.76,81.44-55.21,121.45-1.08,2.21-2.18,4,0,6.51q14.73,17.4,29,35.2c2.45,3.06,4.29,2.95,7.26.78,14.53-10.62,28.77-21.6,42.53-33.19a419.55,419.55,0,0,0,70.22-75.3c1.65-2.28,2.12-4.15.73-7a592.61,592.61,0,0,0-57.29-94.29C534.91,117.75,531,112.58,525.74,108.41Zm-238.84.39a3.56,3.56,0,0,0-.95.52,70.33,70.33,0,0,0-5.33,5.74,633.71,633.71,0,0,0-62.68,100.83c-1.94,3.91-1.56,6.44.87,9.75,31.43,42.94,70.73,77.57,113.75,108.31,2.11,1.51,3.05,1.2,4.49-.8,8.79-12.22,18.7-23.52,28.71-34.73,2.63-2.94,2.88-5.09,1.1-8.59q-33.47-65.55-60.38-134.06c-5.66-14.45-10.42-29.26-16.87-43.4C289,111,288.67,109.32,286.9,108.8ZM638.58,222.21c-2.6,3.74-4.54,6.41-6.36,9.17a443.42,443.42,0,0,1-73.54,85,592.25,592.25,0,0,1-57.22,45c-3.72,2.61-3.95,4.45-1.64,8.24a324.06,324.06,0,0,1,21.91,42.27c5.88,13.88,5.8,13.88,17.13,3.41,7.57-7,15.21-13.91,24.55-18.6,7.87-4,15.34-3.92,22.63,1.47,6.75,5,13.79,9.55,20.46,14.62,4,3.06,7,3,10.75-.62,13.19-12.78,25.9-26,37.81-40a18.2,18.2,0,0,0,4.74-11.39c.17-4.71.51-9.43.42-14.14-.54-27.71-5-54.92-10.75-81.95C646.47,250.8,643.06,237,638.58,222.21ZM152.85,345.5c0,5.23.25,10.49-.09,15.7a10.39,10.39,0,0,0,3,8.42c8.88,9.63,17.55,19.45,26.38,29.12a116.88,116.88,0,0,0,15.15,14.44c2.83,2.16,5.4,2.53,8.41,0,3.83-3.29,8-6.18,12.08-9.19,17.73-13.13,27.71-13,44.93,1.08,6.48,5.3,12.41,11.26,18.73,16.76,4,3.47,5,3.18,7-1.71a329.22,329.22,0,0,1,24.81-49.53c2.69-4.38,2.29-6.51-2-9.47-50.6-35.21-95-76.75-129.51-128.24-1.86-2.77-3.57-7.86-6.54-7.21-3.34.73-3.3,6.06-4.22,9.5C161.34,271.3,154.19,307.89,152.85,345.5ZM405,271.26a49.07,49.07,0,0,1,6,0c4.8.73,7.32-1.24,9.5-5.69q27.45-56,51.32-113.5c1.13-2.7,1.67-5,0-7.79C455.76,117.53,437.5,92.4,416,69.8c-9.73-10.23-7.52-12.45-19.53.49-20.62,22.24-37.81,47.09-54.28,72.48-1.92,3-2,5.28-.71,8.53,15.14,37.38,32.12,73.92,49.43,110.33C394.25,268.7,397.45,273.88,405,271.26Zm1.84,748.4c14.32,0,28.65-.16,43,.09,4.46.08,5.51-1,4.88-5.55-4-28.55-6.68-57.23-9.15-86s-4.39-57.48-5.38-86.29c-.15-4.38-1.71-5.48-5.93-5.43q-27.24.33-54.49,0c-4.65-.06-6.28,1.1-6.47,6-.61,16.58-1.59,33.16-2.74,49.71-2.84,41.12-6.29,82.2-11.81,123.06-.49,3.57.65,4.48,4.1,4.44C377.44,1019.57,392.12,1019.66,406.79,1019.66Zm293-645.34-1.9-.44c-1.25,1.43-2.59,2.78-3.72,4.29-17,22.53-36.47,42.82-56.41,62.68-2.83,2.82-2.83,4.59-.58,7.69,19.53,26.93,35.91,55.74,50.55,85.58,1.48,3,3.07,6,4.61,9l2.15-.19C710.3,487.21,706.26,430.81,699.78,374.32ZM121,544.18c.82-1.45,1.29-2.18,1.66-2.95,15.53-32.67,33.14-64.13,54.29-93.53,2-2.86,1.17-4.39-.94-6.51-19.57-19.68-39.09-39.4-55.72-61.75-1.56-2.09-3.09-6-5.74-5.14-2.42.8-2,4.93-2.22,7.61-2.75,40.77-5,81.56-2.16,122.41A107.5,107.5,0,0,0,121,544.18Z"/></svg>