<svg id="Ebene_1" data-name="Ebene 1" xmlns="http://www.w3.org/2000/svg" viewBox="0 0 795.64 1080"><path d="M305.49,8.69h28.56c44.72,13,86.22,30.37,103.46,80.5,8-6.7,13.35-11.38,18.92-15.73C497.36,41.56,544.1,27.16,595.67,27,607.8,27,616,31.1,615.85,44.49c-.14,11.94-7.58,16.58-18.64,16.82-4,.08-8,0-11.9.25-76.67,5.08-136.44,48.55-157.72,113.53-6.27,19.14-9.27,34.6,16.51,40.52,6.37,1.47,12.68,7,17.09,12.33,8.49,10.17,15.65,10.83,28.09,4.81,47.59-23,99.69-3.22,120.31,45.18,4.46,10.47,9,15.49,20.89,18,59.53,12.48,88.27,62.54,69.14,119.89-3.32,9.94-3,14.53,5.54,21.42q57.08,45.94,25,114.13c-4.22,9-2.68,13.07,3.4,19.93,35.25,39.74,35.58,84.08.53,123.83-7,7.91-7.72,12.31-3,21.86,18.44,37.13,14.18,72.22-14.73,102.69-7.12,7.49-8,12.14-3.36,21.93,31.26,65.81-8.8,128.79-82.19,129.48-10.15.09-14.82,2-19,11.87-22.42,52.37-64.38,71.36-117.26,53.92-6.9-2.27-12.48-6.11-17.94,2.88-13,21.42-34.58,31.38-56.82,40.08H386.42c-20.69-8.09-41.4-16.74-53.88-36.29-6.69-10.46-12.69-9.87-23.16-6.16-47.56,16.85-94.81-3.65-113.21-49.7C190.92,974.54,184.89,971,170.91,971c-67.47,0-108.53-65.86-79.17-126.7,5.29-11,5.36-16.63-3.27-26-27.67-29.88-31.9-64.64-13.78-100.79C80,707,78.32,702.25,70.93,694c-33.46-37.39-33-84.36,1-121.9,6.9-7.63,8.12-12.1,3.36-21.87C53.76,506,62.61,469.11,101.77,436.61c7.3-6.06,8.35-9.91,5.22-19.39-19.64-59.55,8.31-108.79,69.15-121.47,11-2.29,15.44-6.74,19.6-16.17,22.94-52,71.55-69.89,123.63-46.25,4.75,2.15,10.22,8.78,14.68,3.72,20.18-22.88,62.29-26.3,60.32-69.56-.44-9.66,1.86-15.74-9.71-18.73-51.8-13.39-75.15-51-85.26-100.32C296.42,33.89,294.56,20.6,305.49,8.69Zm9.17,678.61c-1.31-16.76-5.86-31.54-16-44.42-7.58-9.68-16.89-15.82-28.33-8.1-11.71,7.9-9.52,18.58-1.8,28.68,12.15,15.9,13.19,32.4-.66,47.14-14.7,15.63-32,15.23-48.9,2.79-10.3-7.57-20.69-9.66-28.9,1.6-8.54,11.71-1.48,20.79,8,28.07,23.49,18,49.19,20.7,75.55,8.05C300.22,738.35,312.58,715.55,314.66,687.3ZM550.6,480.12c13.08,1,26.7-4.68,39.22-13.83,10.58-7.74,18.21-17.13,8.94-29.83-8.39-11.49-18.21-8.28-28.76-.68-15.89,11.45-33.26,12.1-47.62-2.17s-14.26-31.18-2.1-47.29c7.67-10.17,10.78-20.33-.59-29-12.92-9.8-22.42-1.37-29.9,8.77-17.08,23.16-19.24,48.89-6.94,74.1C495.61,466.39,517.64,480.65,550.6,480.12Zm-156.2,457c21.69-.53,43.5-13.66,57.9-39.23,6.07-10.77,7.67-21.56-4.08-29.13-12.21-7.87-21.46-1.57-27,9.62-9.7,19.63-26,26.48-45.12,19.74-19.6-6.88-26.71-23.31-21.5-44.07,3-12.09-1.54-20.78-13.37-23.55-12.45-2.9-18.31,5.08-22,16.12C305.21,889.06,340.25,936.25,394.4,937.11ZM296.13,420.94c.12-16.57-5.48-31-15.58-43.79-7.4-9.37-16.34-16.48-28.12-8-11.39,8.15-9.7,18.22-1.76,28.69,12,15.78,13,32.92-.85,47.36-14.53,15.18-32,15.68-48.91,2.39-10.19-8-20.3-9.58-28.75,1.74-9.08,12.18-1.2,20.85,8,27.9,23.37,17.83,48.72,21.43,75.41,8.09C282,472.1,295.38,450.39,296.13,420.94ZM441.34,633.49c34.38,0,63.12-23.33,70.19-56.14,2.69-12.53,1.18-22.88-12.46-26.17-11.79-2.85-19.4,3-22.24,15.36-4.71,20.54-17.85,32.25-39.14,29.92s-31.21-17.09-31.9-37.84c-.41-12.33-6.05-20.69-18.24-20-13.61.79-17.55,11.56-17.7,23.9C369.39,600.7,402.39,633.49,441.34,633.49ZM611,707.16c-.66-14.29.53-31.54-19.82-31.18-16.63.29-17.55,13.22-16.53,27.73,1.31,18.78-9.19,32.07-27.65,36.19-20.07,4.47-33.67-5.69-40.94-23.86-4.77-11.91-11.81-20.06-24.8-14.83-14.24,5.74-13,17.94-8.42,30.17,11.8,31.67,45.93,50.54,80.42,44.36C586.19,769.83,610.51,740.93,611,707.16Z"/></svg>