<svg id="Ebene_1" data-name="Ebene 1" xmlns="http://www.w3.org/2000/svg" viewBox="0 0 1141.38 1080"><path d="M1114.56,350.4c-13,57.81-40.38,106.63-88.77,142.29-5.88,4.34-6,10.73-7.9,16.74C992.26,590.13,920.7,631.05,838.43,611c-13.6-3.31-17.83-.39-21.53,12.44-34.39,119.15-75.47,236.32-105.45,356.77-12,48-44.82,74-94.68,74.37-22.34.16-44.68.25-67,0-45.42-.58-78.12-26.8-90.29-70.75-34.22-123.51-82.61-242.26-122.4-363.91-3.49-10.67-8.56-12.44-19.31-9.93-89,20.79-156.45-17.06-184.2-103-1.74-5.39-2.69-10.49-7.67-14.18C77.61,457.05,50.12,408.3,37.4,350.4V297.74c8.09-23.88,12.83-48.9,26.34-70.9,49.87-81.24,125-116.86,217.57-120.36,13.39-.5,23.12-2.84,33.12-13.27,39.81-41.53,98-52.8,151.36-29.83,11.86,5.1,19.27,4.22,29.8-3.23,50.73-35.93,109.88-35.91,160.18-.29,10.14,7.19,17.47,9.22,29.75,3.79,52.92-23.43,111.72-12,151.37,29.48,9.91,10.37,19.64,13.19,33.18,13.34,52.88.61,101.92,15,146.31,44.26,54.94,36.28,85.68,88.12,98.18,151.8ZM292.69,141.73c-16.25,1.2-32.49.64-48,3.82C164.45,162.07,101.26,202,79.45,285.29c-20.37,77.86,11.91,138.25,75.26,183.8,6.91,5,10.49,10.54,12.23,19.17,15.27,75.7,86.63,113,156.14,81.19,11.28-5.16,17.31-4.2,26.85,3.4,40,31.81,86.74,35.29,128.93,9.09,12.77-7.92,19.15-6.76,29.79,3.44,43.57,41.79,99.81,43.75,147,5.76,9.21-7.42,15.59-9.32,26.94-3.73,41.07,20.24,80.86,15,116.57-12.61,11.78-9.1,19.64-10.13,33.17-3.95,61.55,28.09,133.09-4.79,149.67-70.13,5-19.65,14.61-31.12,29.55-42.75,65-50.63,84.74-135.4,49.12-205.43-36.5-71.77-121.92-117-207.68-109.21-12.72,1.15-21.61.56-30.37-11.55-35.87-49.6-92.37-58.92-142.3-23.45-13,9.22-18.6,7.3-28.66-3.79-43.1-47.55-107.69-47.86-151-.39-11.21,12.29-17.25,12.41-30.42,3-45.55-32.53-103.8-25.09-136.32,18.44C322,141.48,311.1,148.68,292.69,141.73ZM777.25,630.68c-29.64-2.63-41,12.88-51.56,33.64C700,714.59,672,763.67,644.81,813.15c-6,11-10.78,25.19-27.43,21.17-17-4.08-14-19.06-14.09-31.45-.23-44.63-.61-89.28.18-133.9.26-14.44-5.49-16.6-18.27-16.65-17.11-.06-14.4,11.34-14.61,21.08-1.43,68.52-2.5,137.06-3.92,205.59-.25,11.79,1,26-14.58,29-17.21,3.36-20.5-11.22-24.73-23.17-22.78-64.41-49-127.89-66.93-193.63-11.72-43.07-30.83-65.3-76.22-60.13-.72.08-1.37.8-2.23,1.33-2.05,5.59.78,10.57,2.49,15.69,36.85,110.79,80.25,219.35,112,331.89,7.07,25.08,26.8,38.82,53.54,39.58,22.3.63,44.64.49,67,.06,31.4-.6,51.52-15.31,58.59-45.77,13.86-59.69,33.88-117.53,51.18-176.18C743.07,742.27,760.16,687.06,777.25,630.68ZM528.35,779.15l6.66-.28c0-29.1-2.19-58.4.59-87.23,3-31.47-3-55.23-35.68-66.07a6.51,6.51,0,0,1-1.91-1.42c-5.17-4.38-9.91-6.39-17-2.32-8.87,5.08-4.09,11.24-2.31,16.38C495,685.27,511.73,732.19,528.35,779.15Zm111.87-42.22,4.6.81c17.14-31.18,34.39-62.29,51.28-93.6,2.22-4.13,8.35-11.12-.26-13.34-9.14-2.35-18.92-11.71-28.73-2.52-9.05,8.47-27.53,6.42-27.06,25.71C640.72,681.62,640.22,709.28,640.22,736.93Z"/><path d="M1023.18,316.83c-3.11,42.1-24,76.5-66.57,95.59C917.42,430,869.09,421,839.11,391.73c-8.74-8.53-18.38-17.87-7.46-30.49,10.62-12.26,20.58-5.8,30.73,2.73,32.15,27,71.44,28,99.62,3.13,28.54-25.19,32.43-62.45,9.72-99.16-6.49-10.48-10.94-21.15.59-29.48,12.78-9.22,22-.64,29.78,9.78C1014.33,264.6,1023.31,291.6,1023.18,316.83Z"/><path d="M128.75,289.15c.85-13.36,4.06-29.65,12.18-44.62,4.93-9.12,13.26-11.88,22.36-8.37,9.46,3.67,12.1,11.9,9.66,21.62-2.31,9.21-5.84,18.28-6.89,27.63-3.67,32.79,13.88,62.46,43.45,75,28.79,12.25,61.4,5,82.82-18.63a84.72,84.72,0,0,0,9.89-13.4c6.11-10.23,14.77-15.95,25.72-9.81,12.12,6.79,10.82,17.66,5,29-24.21,47-90.82,68.21-141.07,44.65C154.3,374.61,128.76,334.32,128.75,289.15Z"/><path d="M730.38,547.18c-73-.27-125.59-71.57-103.48-140.71,3.89-12.18,8.85-26.65,25.76-21.22,14.48,4.65,12.91,16.81,9.39,29.85-10.81,40.1,4.67,74.61,38.84,89.73,36.54,16.16,70.6,5,94.33-31.54,7-10.78,14.08-21.27,28.25-13,15.79,9.18,8.36,21.86,2,33.07C806.46,527,770.22,547.32,730.38,547.18Z"/><path d="M714.6,342.36c-31.91-.71-63.9-18.14-85.41-54-6.87-11.43-13.62-24,2.27-32.66,13.7-7.43,21.07,2.28,28.19,13.53,30,47.33,89.38,51.41,122.06,8.69,15.61-20.4,19.52-43.46,11.1-67.71-4.42-12.74-6.58-24.29,9-29.17,15.38-4.82,21.08,6.75,25.27,18.65C851.33,268.57,797.94,342.56,714.6,342.36Z"/><path d="M492.28,425.73c-.55-13-2.28-27.47,16.11-28.73s18.83,13.79,20.13,26.34c5.3,51.1-34.38,103.77-85.27,113.71-56.93,11.1-113.55-21.36-127.68-73.95-3.18-11.84-8-26.8,9.9-31.68,15.13-4.13,19.91,6.48,24,19.38,12,37.56,45.78,58.24,82.9,52.29C468.34,497.33,492.36,466.28,492.28,425.73Z"/><path d="M565.81,231.36c.38,51.13-25.55,91.13-66,108.13s-90.45,6.74-121.17-25c-8.52-8.8-18.11-19.23-9.27-31.2,13.09-17.71,24-5.68,34.53,5.36,19.72,20.7,44.16,28.34,71.73,21,27.42-7.28,45.47-25.58,52.8-53.2,5.36-20.23,1.47-39.47-9.5-57.17-6.7-10.81-8.55-22.21,3.28-29.15,11.67-6.84,21.17.22,27.66,10.89C560.47,198.44,566.25,217.2,565.81,231.36Z"/></svg>