<svg id="Ebene_1" data-name="Ebene 1" xmlns="http://www.w3.org/2000/svg" viewBox="0 0 1050.78 1080"><path d="M247.48,972.71c53.53-29.36,84.2-77.39,97-132.56,32.64-140.8,113.58-248.81,214.89-347C669.49,386.46,775.24,275.24,883,166.12c13.56-13.74,28.94-23.86,6-45.21-18.73-17.45-29.47-20.59-49.17-1.49-39.29,38.09-82.15,72.47-122.36,109.65C580,356.3,428.62,462.76,259.42,544.58,166.78,589.37,93.19,655.26,65.67,760.41c-2.08,7.92-3.44,16-5,24.09-2.53,13.17,4.8,34.63-20.58,30.16-23.44-4.13-13.2-24.37-11.26-36.45,19.8-123.4,100.32-200.39,203.66-257.14,63.5-34.87,129-66,190.76-104.23C565.16,329,684.05,213.07,808.6,104q20.08-17.59,40-35.35c8.93-7.94,18.5-13.1,28.8-3,21.54,21,44.06,41.33,63.43,64.25,16.39,19.38-5.54,29.23-15.78,39.69C800.51,296.76,676.39,424.41,550.19,550,472,627.84,411.43,714.41,384.7,823.53c-18.26,74.55-53.81,140.13-132.93,186.66,52.4,4.24,88.41-9.07,122.51-27.92C439.86,946,490.67,893,520.78,825.75,622,599.63,772,409.69,945.89,236.34c11.09-11.05,37.23-21,13.37-45.22-7.79-7.89,2.74-14.23,8.09-19.77,6-6.2,11.1-3.36,17.63.7,29,18.1,32.31,36.45,9.08,61.65-95.52,103.64-197.37,201.67-278.54,318A1703.05,1703.05,0,0,0,568.06,807.28c-39,83.56-92.7,155.12-174.1,202.07C265.3,1083.56,112.48,1036.81,49.7,904.74,30.58,864.53,39.61,840.3,83,834.64c26.93-3.52,31.83-15.45,37.47-37.4,20.73-80.73,68.58-143.46,139.77-185.32,126.79-74.55,245.57-159.43,353.66-259.25,8.33-7.68,16.19-20.55,29.88-5.25,16.09,18-2.48,23.85-10.95,31.66-103,95-214.15,178.94-336.2,248.28-65.07,37-115,87.73-139.21,160.63-17,51.17-17.26,51.08,34,79.37,19.25-77.4,63.31-139.12,121.91-190.44,10-8.76,20.44-37.38,40.69-14.23,18.59,21.23-9.44,26.12-18.21,36.66-19.23,23.09-42,43.39-60,67.29C228.82,828.86,202.29,895.3,247.48,972.71Zm-40.3,5.74c.54-54-60.46-114.56-106.86-113.56-21.81.48-30.63,8.18-18.93,30.22,22.3,42,54.3,73.91,96.38,96.08C200.87,1003.35,206.82,991.76,207.18,978.45Z"/><path d="M434.89,147.12C440.75,80,455.1,56.58,488.57,60c49,5,49.05,43.12,48.14,80.06,15.26,3,22-10.67,33.5-13.13,20.73-4.45,38.38.89,51.83,16.67,12.23,14.33,17.59,31.74,9.24,49.67-13.09,28.07-38.93,45.41-59.88,66.77-8.62,8.78-14.4-.5-20.17-5.62-8.19-7.26-5.7-13.75,1.21-20.61,14.56-14.45,29-29.09,42.92-44.13,7.36-7.94,8.71-17,.19-25.42s-17.19-6.53-25.49.42c-4.19,3.51-7.65,8-12.17,11C543,185.28,535.34,214,513.17,202.37c-19.62-10.3-5.52-35.37-9.89-53.2-4.61-18.84,14.58-53.24-17.4-53.18-26.72,0-10.69,33.35-15.08,51.5-.94,3.88.31,8.24-.22,12.27-2,15.45,7.84,36.78-11.28,44.27-18.82,7.38-26.53-14.89-38.92-24.36-6.49-5-11.83-11.41-18.21-16.53-7.07-5.68-15-6.67-22.34-.39-8.77,7.49-9.87,16.82-2.34,25.2,13.72,15.24,28.18,29.84,42.78,44.26,8,7.86,11,14.47,1.54,23.78-8.57,8.42-15,9.09-23.88.37-10.33-10.15-22.5-26-37-7.86-13.61,17.06,4.77,26.94,14.35,37.08,19.74,20.87,40.42,40.87,60.89,61.05,7.48,7.38,12.2,13.66,2.75,23.81-10.47,11.27-17.7,8-26.76-1.4-19.93-20.71-40.08-41.25-61-61-28.47-26.86-41.5-55-10.36-88.29,6.56-7,8-13.28,4.09-21.86-11.33-24.68-5.2-46.17,15.55-62C385,117.3,409.26,123.52,434.89,147.12Z"/><path d="M919.14,461.09c62.53-8.92,85.6.09,92.78,33.07,6.7,30.73-10,47.5-70.09,69.69,17.18,19.7,37.16,38.77,24.29,68.37-12,27.56-32.71,39.11-62.72,31.27-11.33-3-13,7.14-17.73,13.12-21.66,27.63-47,29.87-75.4,11q-40.93-27.21-81.89-54.42c-10.14-6.77-22.16-12.3-10.59-28.21,12.06-16.57,21.11-3.87,30.41,2.13,25.25,16.27,49.9,33.47,75.17,49.7,9.82,6.31,20.71,17.15,32.22,3.41,10.62-12.67,3-22.84-7.39-31.17-9.34-7.46-23.11-12.75-11-28.44,14-18.17,23.23.49,34.47,4.27,20,6.72,39.71,43.69,57.37,19.86,22.31-30.12-22.23-33.65-36.23-49.78-6.08-7-16.72-11.07-14.62-22.49,2-11,11.25-14.24,21.11-16.36,20-4.31,40-8.8,59.83-13.71,11-2.72,22.76-7.17,19.3-21.35-3.23-13.25-14.55-14.17-26.46-11.27-18.56,4.5-37.12,9.16-55.88,12.62-10.24,1.9-22.56,6.21-29.55-5.88-5.46-9.45.49-18.17,5.31-26.64,13.4-23.5,38.72-45.22,10.52-75.25-2.78-3-.47-14.65,3.3-18.86,5-5.64,12.67-.28,18.14,3.18C935.65,399.08,934.32,427.14,919.14,461.09Z"/><path d="M438.07,816.3c-15.53-13.18-33.2-17.86-18.05-35.76,71.26-84.22,124.16-182.73,203.16-260.88,6.56-6.49,11.4-20.84,25.42-8.59,9.93,8.69,13,16.57,2.44,26.93-78.18,77.07-131.41,173.6-200.49,257.79C445.48,802,442.11,809.56,438.07,816.3Z"/><path d="M471,286.1c0-10.93-.09-21.86,0-32.8.12-10.74,6.77-13.17,16.16-13.16s15.89,2.77,16,13.39c.15,21.87.19,43.74.28,65.61,0,10-.41,18.79-14.41,19.45-15,.7-19-6.45-18.41-19.68.5-10.91.1-21.87.1-32.81Z"/><path d="M815.47,520.76c18.07-3.06,28.14,8.16,23,17.31-15.11,27.09-47,18.36-71.15,26.92-13,4.62-19.88-6.6-16.67-15.46C762.54,516.81,798,534.56,815.47,520.76Z"/></svg>