<svg id="Ebene_1" data-name="Ebene 1" xmlns="http://www.w3.org/2000/svg" viewBox="0 0 1009.99 1080"><path d="M529.68,49.2h44c17.48,7.17,36.55,8.73,54,16.72,39.12,17.93,68.27,46.1,88.66,84.27,7.82-6.17,14-11.35,20.45-16.09,58-42.48,135.58-47.36,191.82-12.16,22.33,14,23.07,14.63,5.22,34.88C886.88,210,828,232.44,754.7,222.42c20.22,33.34,39.1,65.36,54.9,99,37.6,80,57.55,162.58,33.64,250.78-3,10.9,1.37,16.06,9.41,21.37a206.16,206.16,0,0,1,58.42,58.87c90.78,137.13,46.43,320.89-115.4,374.77-13.66,4.55-27.81,7.63-41.73,11.39H696.78c-3.32-1.28-6.54-3.18-10-3.76-59.76-10.22-107.87-40-145-87.35-30.43-38.78-45.21-83.85-48.7-136.48-7.16,9.4-11.87,15.65-16.66,21.85-57.48,74.46-157.49,106.62-247.88,79.71C109.3,877.08,41.77,761.69,68.22,633,86.34,544.79,134.15,475.8,223.68,450.7c90.15-25.27,174.64-10.87,239.66,65.11,6.65,7.77,12.16,10.53,22.26,5.37C604.94,460.26,673.94,363,696.85,231.66c3.49-20-3.16-24.07-22.44-24.42C600.64,205.9,530,150.79,512.86,83.61,508.69,67.27,504,50.85,529.68,49.2Zm-3.19,624.38c66.25-108.47,159.73-133.31,272.14-106.65,15.45,3.66,15.08-5.76,17-15,23.44-115.77-28.54-210.16-86.1-308.56-2.89,11.87-4.54,18.63-6.17,25.4-1.7,7.1-3,14.34-5.12,21.29C682.41,405.14,613.63,493,504.88,547.79c-6.85,3.45-15.88,4.8-9.24,16.68C513.7,596.77,520.81,632.52,526.49,673.58Zm160.08,300.5c9-.26,16.5-2.72,18.53-12.23,2.1-9.84-1.45-17.49-11.79-20.3-49.26-13.4-83.49-43.3-101.72-91.33-3.77-9.94-12.36-12.18-21.74-9s-11.56,11.46-9,19.7A156.67,156.67,0,0,0,573.7,891C598.82,935.53,637.18,962.37,686.57,974.08Zm-409.79-137c.49-8.74-3.51-15.1-13.85-17.92-48.41-13.22-82-42.35-99.77-89.66-3.73-9.9-12.44-15.25-23-10.19-8.67,4.15-11.3,11.71-8.56,22,12.84,48.41,74.64,104.15,123.17,110.57C267.27,853.58,274,847.91,276.78,837.12ZM327.5,529.43c.05,47.49,46.47,93.75,93.85,94.67,11.79.24,20.94-3.8,21.53-16.47.52-11.28-7-15.87-18.13-17.6-41.15-6.4-55.56-21.1-63.27-63.14-2-11.11-6.26-20.74-19.21-19.29C329.62,509,326.39,518.86,327.5,529.43ZM819.21,739.57c9.74.78,20.17-.79,22.07-13.93,1.87-12.89-6.68-17.79-18.17-19.9-42.89-7.85-55.89-20.57-64.43-64.72-2.2-11.37-7-17.86-18.47-16.68-11.9,1.23-14.69,10.09-14.6,20.7C726,693.06,770.63,738.85,819.21,739.57ZM167.67,576.27c-5.23.2-9.84.52-12.74,4.36-15.73,20.85-24.55,44.68-27.88,70.28-1,7.55,4.93,13.68,13.23,15.18,9.18,1.67,16.72-2.18,19-10.82,5-19.23,12.59-37.16,21.2-55C186.23,588.24,180.65,579.09,167.67,576.27Z"/></svg>