<svg id="Ebene_1" data-name="Ebene 1" xmlns="http://www.w3.org/2000/svg" viewBox="0 0 1086.7 899.83"><path d="M555.42,870.42c-81.55.92-162.75-3-242.63-21.13-45.26-10.25-88.72-25.44-128.42-49.94-70.07-43.23-108.26-107-123.06-187.19-18.34-99.35,8.9-186.14,69-264.4C206.18,249,302.4,176,415.69,125.2c36-16.16,72-32.24,105.18-53.9C532.11,64,543,56.17,551.93,46c2.66-3,4.42-4.63,8.28-1,42.1,39.68,92.9,65.83,143.82,91.7C795.13,183,879.35,238.92,949.92,313.6c44.8,47.41,84.09,99.58,97.3,164.51,22.66,111.4,4.38,213.59-83.24,294.31-39.43,36.33-88.24,56.17-139.3,70.39C758.41,861.26,690.44,867.74,622,870.29,599.85,871.12,577.62,870.42,555.42,870.42Zm20.29-13.72a1223.86,1223.86,0,0,0,134.54-7.3c59.69-6.7,118.34-18,173.84-42.13,71-30.79,124.1-79.21,151.73-153.1,2.86-7.66,1.28-10.81-5.7-14.48-40.77-21.4-83.67-37-128.15-48.43-77.11-19.83-155.74-28.73-235.07-32.09-130.11-5.5-260-4.54-388.85,17.51-68.35,11.7-134.51,30.51-196.25,63.07-7.16,3.77-8.3,7.28-5.5,14.71q28.29,75,93.78,120.81c43.77,30.52,93,48,144.55,59.7C394.17,853,475,856.63,575.71,856.7Zm-4.17-516.6c-3.54,61.66-1.06,123.21,3.89,184.66.27,3.34-2,8.7,3.64,9.57,6.51,1,5.76-5.21,6.6-8.73,5.11-21.36,6-43.23,6.45-65,1.44-69.08-3-138-8.33-206.76-3.73-48.07-8.5-96.06-13-144.06-.37-3.9.7-10.71-6.6-9.37s-2.44,6.88-1.85,10.11c5.73,31.24,9.33,62.64,9.27,94.44C571.47,250,571.54,295,571.54,340.1ZM489.79,135.66c-7.61-2.31-11.44,0-14.79,5.84q-18,31.71-33.46,64.72c-38.3,82.16-68.39,166.69-74.49,258.18-1.68,25.09-.1,50,3.63,74.76.66,4.34,1.55,8.42,7.64,7.72,5.9-.67,3.9-4.5,3.59-7.82-3.49-37.4-1.35-74.58,4.36-111.61,12.88-83.53,40.64-162.28,76.88-238.28C471.61,171.43,480.66,154,489.79,135.66Zm165.09.21c1.81,3.54,3.24,6.32,4.65,9.11,63.3,124.63,113.29,252.72,103,396.47-.19,2.64-.39,5.12,3.18,5.32,2.77.16,5.87.66,7.1-2.88a36.72,36.72,0,0,0,1.47-6.15c6.26-38.28,5.12-76.55-.88-114.71C757.61,322.52,718.84,230.42,670.14,142,666.81,135.91,663,132.71,654.88,135.87ZM918.76,516.8a303.79,303.79,0,0,0-3.61-50.51c-13.28-86.06-46.25-164.93-87.9-240.64-2.46-4.48-5.89-8.61-10.49-5.81-4.26,2.58.54,6.67,2,9.53,28.33,54.47,52.32,110.7,68.34,170.08,14.36,53.25,24.11,107.11,18.72,162.68-.29,3-1.53,6.77,3.19,7.54,5,.84,5.74-3.18,6.35-6.6A240.65,240.65,0,0,0,918.76,516.8ZM311.27,220.54c-7.84-3.18-10.67.94-13.42,6C254,306.73,219.14,390.13,208.57,482a296,296,0,0,0,1.37,80c.6,3.76,1.07,8.4,6.6,7.66,5.69-.76,3.34-5.34,2.93-8.39-1.52-11.58-1.58-23.2-1.23-34.81,2.23-74.57,22.11-145,49.78-213.7C280.65,281.41,295.51,251.11,311.27,220.54Zm707.1,329.36c-.06,14.8-.93,29.52-3.69,44.11-.61,3.27-4.5,8.17,1.57,9.6,5.56,1.31,5.33-4.48,6.34-7.84,8.17-27.13,8.42-54.87,4.75-82.59-7.35-55.42-27.18-106.73-52.91-156-.65-1.25-1.41-2.44-2.07-3.68-1.59-2.94-4.43-4.26-7-2.73-3,1.78-.24,4.33.65,6.34,5.42,12.21,11.29,24.23,16.4,36.56C1003.09,443.74,1017.62,495.25,1018.37,549.9Zm-922.5-6.71c.48,18.23,1.85,36.78,7.66,54.73,1,3,1.58,6.85,5.88,5.8,4.66-1.15,2.62-4.86,2-7.83-6.43-31.47-5-63,0-94.43,8.09-50.46,25.64-97.79,47.71-143.62,1-2.09,4.61-5,1.07-7.07-3.11-1.83-6,.55-7.62,3.71-4.32,8.45-8.86,16.8-12.86,25.41C115.69,431.61,97.77,485,95.87,543.19Z"/><path d="M430.13,674.27c-8-.18-12-4.78-12.42-11.82-.44-7.52,3.23-13.21,11.32-13.59,7.57-.35,11.84,4.75,12.19,11.75C441.58,668,438.06,673.39,430.13,674.27Z"/><path d="M190.1,678.58c-1.4,7.29-4.56,12.89-12.94,12.37-7.76-.48-11-6-10.9-12.91s3.9-12.29,11.52-12.36C186,665.61,189.14,671.27,190.1,678.58Z"/><path d="M947.3,635.25c-1.14,7.64-4.69,13.18-12.75,12.84-7.51-.32-11.21-5.93-11.17-12.87,0-7.61,4.46-12.91,12.45-12.58C943.28,623,946.4,628.52,947.3,635.25Z"/><path d="M700.4,652.57c9.41-.09,13.27,4.88,13.64,11.74.38,7.29-3.07,13.29-11.36,13.59s-12.08-5.54-12.24-12.81C690.29,658.08,694.4,653.4,700.4,652.57Z"/><path d="M266.5,750.86c-1.76,7.13-4.91,12.83-13.35,11.92-7.72-.83-10.81-6.58-10.42-13.39.43-7.44,4.59-12.7,13-11.78C263.28,738.45,265.87,744,266.5,750.86Z"/><path d="M607.54,817.32c1.09-7.34,4.34-12.77,12.61-12.54,7.8.21,11.11,5.56,11.2,12.55.09,7.17-3.87,12.45-11.2,12.76C612.11,830.43,608.7,824.68,607.54,817.32Z"/><path d="M543.94,603.47c1.13-6.88,4.1-12.24,11.88-12.2,8.18.05,12,5.2,11.83,12.91-.16,7.16-4,12.28-11.52,12.34C548,616.58,544.81,610.86,543.94,603.47Z"/><path d="M837.92,704.56c-.78,7.68-3.85,13.18-11.34,13.41-7.91.25-12.18-4.82-12.24-12.59s3.89-12.8,12-12.61C834.08,692.94,836.9,698.39,837.92,704.56Z"/><path d="M947.65,717.4c.83-7,4.59-11.82,12.05-11.59,8.13.25,11.73,5.8,11.28,13.41-.42,7-4.16,12.14-11.88,11.79C951,730.63,947.76,725.25,947.65,717.4Z"/><path d="M549.26,724.3c8.15.32,11.92,5,12,12.13.13,7.36-3.16,13.3-11.48,13.38-7.54.06-11.55-5.12-11.88-12.1C537.6,730.12,541.66,725.24,549.26,724.3Z"/><path d="M801.91,785c1-7.55,4.69-12.7,12.81-12.18,7.6.48,10.85,5.82,10.73,12.94-.13,7.31-4.27,12.29-11.52,12.33C806,798.15,802.48,792.6,801.91,785Z"/><path d="M793.57,612.49c-.85,7.86-4.16,13.08-11.76,13-7.95-.11-12-5.17-11.79-13,.23-7.18,4-12.19,11.54-12.23C789.79,600.16,792.82,605.83,793.57,612.49Z"/><path d="M278.81,617.65c.47-7.58,3.39-13.27,11.68-13.34,7.57-.07,11.51,5,11.78,12,.3,7.57-3.59,13-11.61,13.2C283.05,629.72,279.69,624.58,278.81,617.65Z"/><path d="M413.05,796.05c-.49,7.08-3.3,12.65-10.9,13-7.91.37-12.39-4.46-12.53-12.25-.14-7.62,3.64-12.92,11.8-12.93C409.09,783.87,412.21,789.11,413.05,796.05Z"/></svg>