<svg id="Ebene_1" data-name="Ebene 1" xmlns="http://www.w3.org/2000/svg" viewBox="0 0 1340.67 988.87"><path d="M783.28,585.38l10.15-12.14c-3.7-1.43-6.75-.64-9.7.31-30.85,10-62.36,16.74-94.82,17.86-40.58,1.41-79.73-4.22-114.86-26.62-24.39-15.55-40.65-37.89-52.94-63.58-14.31-29.9-25.39-60.81-28.56-94-6.33-66.19,11-125.08,56.93-174,33.79-36,74.8-61.29,120.86-79.18C732.5,129.87,794.7,106,859,87.9c49.73-14,100.09-24.76,151.52-30.1,73.19-7.59,145.27-3,215.49,20.5,30,10,55.19,26.71,71,54.91,14.71,26.3,21.09,54.46,15.53,84.59-2.63,14.32-.2,28.08,3.6,41.85,10.88,39.41,7.63,77.08-14.52,112.23-15,23.83-35.5,42.21-58.67,57.72-33.79,22.62-69.79,41.4-105.88,60A1751.82,1751.82,0,0,1,886.51,594.36c-10.25,3.4-20.57,6.59-30.87,9.84-7.89,2.49-15.89,2.54-23.5-.6-15.23-6.28-30.8-11.6-46.35-17A25.57,25.57,0,0,1,783.28,585.38ZM819.7,378c-.32-7.14-.49-14.29-1-21.43-2.4-35.74-12-69.2-30.9-99.94-39.06-63.46-117.44-79.37-174.31-50.56C538.62,244,506.53,318.58,509.58,390c1.58,37,12.59,71.54,28.68,104.56,15.43,31.66,39.11,54.71,72.51,67,22.48,8.29,45.88,11.12,69.69,10.05,32.37-1.46,60.47-13.17,83.53-36.31,14.75-14.8,25.85-32.07,34.57-50.92C814.17,450.65,819.06,414.77,819.7,378Zm-145-203.95,2.83.35c17.86,2,35.8,3.89,52.43,11.39,9.25,4.17,18.15,4.05,27.55.51,17.88-6.74,35.92-13.06,53.92-19.48,7.05-2.51,14.09-5.08,21.27-7.13,6.14-1.74,10.29,1.15,11.36,7.13.86,4.86-1,8.11-6.5,10.35-6.15,2.5-12.46,4.65-18.72,6.89-18,6.43-35.94,12.83-54.58,19.47,2.12,1.79,3.73,3.18,5.36,4.53,10.15,8.44,19.5,17.64,27.18,28.43,4.54,6.37,5.39,6.66,12.86,4.14q117-39.42,233.94-78.8c8.33-2.8,16.52-6.16,25.21-7.82,4.53-.86,7.83.81,9.54,5.2,1.81,4.65.56,8.44-3.68,11.2a30.8,30.8,0,0,1-10.22,3.81c-2.9.66-5.56,1.81-6.89,5.33,1.24-.06,2-.06,2.84-.14,21.86-2.16,43.73-4.09,65.73-4.43,27.41-.43,54.48,3.06,81.53,6.68,29.83,4,58.46,11.45,82.88,30.29,2.45,1.89,2.85.72,3.33-1.56a75.66,75.66,0,0,0,.66-29.26c-6.45-35.58-23.94-63.09-58.06-78.13-43.55-19.19-89.52-27.53-136.75-29.48-63-2.59-124.9,4.87-186.11,19.36-59.82,14.15-117.84,34-175.47,55.07C716.74,155.81,695.56,164.15,674.68,174.08ZM867.87,370.77c0-3.21,0-8.52,0-13.84,0-2.61-.47-5-3-6.38-6.43-3.61-25.46,6.16-26.09,13.42a23.16,23.16,0,0,0,.11,2.49,369,369,0,0,1-5.28,71c-.64,3.69-3.49,8.7-1.18,10.74,2.49,2.19,7.49-.34,11.34-1.07,12.48-2.37,15.48-5.29,18-17.84C865.51,410.65,868.14,391.92,867.87,370.77Zm-16,96.29c-17.18-.66-29.81,7.82-35.47,23.64-6.72,18.76-17.8,34.8-30.62,49.76-4.71,5.5-9.89,10.6-15.34,16.4a14.32,14.32,0,0,0,2.76-.15c13.26-4.33,26.51-8.65,39.74-13.08,3.18-1.07,6.14-2.76,7.92-5.75A321.52,321.52,0,0,0,851.82,467.06ZM815.61,263.21a330.47,330.47,0,0,1,12.2,34.14c3.27,11.17,5.77,22.52,7.91,33.95.52,2.78,1.18,6.55,5.1,4.7,4.66-2.19,9.61-2.47,14.4-3.75,5.13-1.37,6.69-3.48,5.72-8.69a80.64,80.64,0,0,0-3.3-12C850.19,290.48,836.77,274.47,815.61,263.21Z"/><path d="M253.84,651.19c53.69,0,105.32,8.76,152.27,36.71,18,10.71,12.65,10.41,31.65,2.77,22.3-9,45.6-13.37,69.5-14.66,6.85-.36,12.27-2.45,17.32-7.32,26.42-25.5,58.51-39.91,94.52-44.61,55.09-7.18,110.21-7.55,165,3.74,34.34,7.07,66.42,19.23,93.75,42a170,170,0,0,1,25.6,26.54c9.26,11.93,14.45,25.37,14.75,40.54a224.23,224.23,0,0,0,3.67,34.2c4.26,24.48-4.07,44.13-23.12,59.57-21,17-45.64,26.28-71.47,32.93-27,6.94-54.52,10.6-82.1,13.95a37.29,37.29,0,0,0-16.68,5.9c-18.9,12.56-39.83,20.63-61.66,26.34-36.84,9.64-73.88,18.48-111.44,24.92-51.25,8.79-101.47,3.43-150.92-11.46a329.08,329.08,0,0,1-59.37-24.52c-7-3.71-14.28-5.6-22.12-3.33-22.2,6.42-44.9,7.88-67.76,6-33.51-2.72-66.92-6.43-99.8-13.79-27.47-6.15-52.62-17-72.41-37.68-24-25-35.1-55-31.77-89.64,1.72-18,11-32.53,23.27-45.3,28.06-29.12,63-45.57,101.64-55.22C201.65,653.39,227.55,650.87,253.84,651.19ZM696,638.84c-30.13-.24-53.2,1.07-76.06,5-28.12,4.83-54.26,14.45-76.68,32.68-21.85,17.76-24.5,43.8-6.71,65.59a95.36,95.36,0,0,0,31.17,24.54C616.8,791.58,669.12,803.3,724,804.11c37,.54,73.38-4.11,109.32-12.54,18.49-4.34,36.09-10.8,50.19-24.2,11.1-10.55,17.36-23.11,14.12-38.92-1.81-8.85-6.42-16.32-12-23.25-22.34-27.55-51.89-43.61-85.35-53.37C763.91,641.23,726.53,639.54,696,638.84ZM259.55,669.65a282.81,282.81,0,0,0-57.16,4.18c-29,5.17-57,13.2-82.27,29-18,11.23-33.86,24.82-44.76,43.32-10.22,17.35-8.27,35.07,4.92,50.28a72.61,72.61,0,0,0,10.5,9.94c34.31,26.49,72.14,37.79,115.87,30.59,65.59-10.81,127.15-32,184.28-66,9.53-5.67,18-12.64,24.48-21.71,8.91-12.42,8.07-22.6-2.55-33.46-11.72-12-26.66-18.58-41.71-24.85C335.47,676,297.88,670.82,259.55,669.65ZM624,860.08C610.08,852.71,598.52,844,585.89,837c-6.49-3.6-13.21-2.67-19.44,1.27-2.53,1.6-4.82,3.6-7.4,5.09-6.84,4-13.9,4.62-20.77.18s-7.39-11-6.08-18.15a38.85,38.85,0,0,0,.07-13.39c-1.61-9.72-6.89-17.56-12.73-25.08-3.6-4.64-7.32-9.39-8.68-15-3-12.39-10.25-19.2-22.84-21.83-8.2-1.72-14.36-7.21-15-16.52-.74-10.33,3.54-18,12.81-22.86,3.59-1.88,7.49-2.73,11.33-3.77,4-1.09,6.81-3.41,7.64-7.65.58-3,.21-4.82-3.7-4.15-4.75.81-9.61,1-14.38,1.67a196.12,196.12,0,0,0-44.21,11.92c-5.68,2.25-6.79,4.74-5.26,10.52.38,1.45.95,2.84,1.4,4.27,4.41,14.17,6,28.55,3.48,43.31-2.43,14.12-8.57,26.48-17.26,37.7-2.14,2.76-5.06,5.54-3.89,9.29,2.26,7.16-.86,12.59-4.72,18-1.55,2.17-3,4.42-4.38,6.68-5.74,9.24-5,11.27,5.53,14.66a175.12,175.12,0,0,0,30.58,7c40.63,5.43,81.32,9.77,122.4,8.29C588,867.73,605.52,865.76,624,860.08Zm263.56-68.15c-2.3-.27-3.62.86-5.08,1.53-36.73,16.89-75.49,25.57-115.7,28.11a495.37,495.37,0,0,1-101.09-4c-47.27-6.73-91.42-21.84-130.92-49.24-1.25-.87-2.58-1.61-4.74-3a90.43,90.43,0,0,0,9.12,16.13C550,797.35,564.47,807.71,584,810c22.37,2.63,44.13,7.78,65.66,14.39,17.35,5.32,35.3,8.19,53.35,10.26,31,3.54,61.8,2.37,92.57-2.09,25.51-3.71,50.23-9.93,72.81-23C875.94,805.22,882.91,800.24,887.51,791.93Zm-684,65.75c9.52,4.22,19.39,6,29.45,6.9,25.9,2.31,51.13-1.5,75.83-9,34.19-10.4,65.47-26.06,90.81-52,8.15-8.32,15-17.58,19.07-28.85C354,820.92,279.39,840.88,203.47,857.68Zm230.86,20c-.06.31-.13.62-.2.93,6.2,2.31,12.32,4.85,18.61,6.88,43.55,14,88.34,19,133.9,18.09,27.05-.55,53.78-3.49,79.64-12,9.27-3,18.23-6.75,26.93-12.93-4.38-1.06-7.94-1.83-11.45-2.8a76.3,76.3,0,0,0-41.79.26c-20.86,5.84-42.33,8.68-63.94,10.37-34.89,2.72-69.49-.93-104.09-4.5C459.39,880.74,446.87,879.15,434.33,877.7Z"/><path d="M764.72,370.68c-.44,14.17-2.68,26.51-10.12,37.33-10.19,14.84-30.07,14.83-39.48-.5-10.65-17.35-12.18-36.08-5-55.1,4.49-11.84,18.16-19,30.91-17.15,12.58,1.8,20.61,10.37,22.6,24.33C764.26,363.69,764.46,367.86,764.72,370.68ZM745.42,369c-.16-2.31-.16-4.65-.51-6.93-1-6.69-7.21-9.46-13.08-6-2.48,1.46-3.34,3.91-4.37,6.41-4.24,10.31-.88,20.19,1.57,30.11.73,3,2.19,5.87,5.77,6,3.38.12,4.75-2.7,5.82-5.34A66.25,66.25,0,0,0,745.42,369Z"/><path d="M626.84,376.05a34,34,0,0,1-12.59-2.66,81.15,81.15,0,0,1-37.07-29.88A30.21,30.21,0,0,1,572,331.23c-2.26-14.08,8.28-24.49,23.57-23.48,6.8.46,12.9,2.95,18.78,6.11,13.06,7,24.66,15.83,32.52,28.64,6.93,11.31,4.14,24-6.15,30A26.39,26.39,0,0,1,626.84,376.05Zm4-22.66c-10.74-14.86-29.44-27.38-39.6-26.68C598.86,344.8,615.55,356.22,630.81,353.39Z"/><path d="M683.43,429.83a24.45,24.45,0,0,1,12.43,3.1,64.6,64.6,0,0,1,30.41,33,26.5,26.5,0,0,1,2,9.68c.36,14.68-10.68,24.35-25,21.21-19.54-4.29-34-15.29-42-34C654.25,446.13,665.27,429.72,683.43,429.83Zm.21,19.72c-4.41.11-6.32,4.05-3.53,8.29,5.1,7.77,12.15,13.57,20.24,18.05,2.16,1.2,4.91,2.42,6.88.15s.64-4.83-.69-7A54.63,54.63,0,0,0,688.34,451,9.29,9.29,0,0,0,683.64,449.55Z"/><path d="M568.6,452.16c1.14-13.82,2.61-27.74,13-38.66,6.67-7,14.48-11.86,24.42-7.83,9.65,3.92,13.23,12.58,13.21,22.21a65,65,0,0,1-15.82,42.61c-5.25,6.25-12,9.71-20.38,7.17-8.63-2.62-12.61-9.29-13.86-17.81C568.77,457.39,568.78,454.88,568.6,452.16Zm30.45-28c-7.95,8.1-11.77,21-9,29.22C596.94,445.09,600.25,435.84,599.05,424.21Z"/><path d="M706.82,314c-.08,18.44-15.13,28-30.42,20.77-15.84-7.53-26-19.82-30.11-36.87-3.5-14.47,7.06-25.55,21.77-23,17.53,3,34.22,18,38,34.17C706.53,311.07,706.71,313.23,706.82,314Zm-19.32,2.42C685,304.53,677.19,299,666.84,294.79,670.21,305.78,675.81,313.44,687.5,316.38Z"/><path d="M710.4,692c-9.71-.42-19.1-1.41-27.24-7.11-5-3.5-8.4-7.93-8.52-14.38-.21-11.65,6.12-18.45,17.81-18.67,15.63-.29,30.13,4.24,44.08,10.86,2.85,1.36,5.73,2.67,8.44,4.27,5.1,3,7.07,7.52,6,13-1,5-4.13,7.86-10.08,8.83-5.07.84-10.2,1.4-15.29,2.11S715.41,692.65,710.4,692Zm-20.27-23.39c7.63,6.9,19.93,9.21,32.62,6.4C712.4,670.32,702.24,666.73,690.13,668.58Z"/><path d="M789.7,745.75a64.79,64.79,0,0,1-23.17-4.57c-9.14-3.81-13-9.17-12.74-17.57s5.48-15,14.36-17.75c11.63-3.55,23-1.6,34.19,2.36,6.49,2.31,12.46,5.55,17.1,10.81,9.23,10.47,5.79,21.44-7.79,24.61A79.23,79.23,0,0,1,789.7,745.75Zm-20.67-22c9.15,5.79,24.86,7.52,35.41,4.11C793.47,720,779.85,718.27,769,723.76Z"/><path d="M722.82,779.16c-9.43-.29-18.57-1.62-26.54-7.23-5.48-3.86-9.37-8.6-8.25-15.84s5.86-10.92,12.33-13c16.33-5.12,31-1.26,44,9.12,9.38,7.52,6.61,21-4.72,25.09C734.17,779.31,728.49,779.24,722.82,779.16Z"/><path d="M680,727.56c-.24,7.82-4.05,14.93-11.45,19.87-9.49,6.33-21.41,2.93-26.27-7.94-5.2-11.59-4-23.15,3.22-33.61,5.54-8,14-8.94,21.74-3.27A32.52,32.52,0,0,1,680,727.56Z"/><path d="M191.43,746.7c-2.66,0-5.33.16-8,0-6.5-.49-11.93-2.72-14.65-9.32-2.85-6.92-1.58-13.11,3.39-18.43,11.33-12.13,25.52-18.81,41.83-21.19,4.42-.64,8.84-1.22,13.38-.31,14.07,2.81,19.21,15.87,10.24,27.1C225.86,739.26,210.62,747.24,191.43,746.7Zm-4.83-16.24c14.32,2.57,32.73-5.56,36.84-15.48C210.67,711.78,191.06,719.61,186.6,730.46Z"/><path d="M213.26,809.81c-12.65-.1-24.15-2.06-34.21-9.2-3.83-2.71-7.31-5.79-9.51-10-5.19-10.06.49-21.52,11.71-22.86,18.11-2.16,34.58,2.74,49.57,12.79,5.89,4,7.76,9.73,6.26,16.59s-5.86,10.45-12.56,11.86C220.56,809.78,216.58,809.59,213.26,809.81Zm6.42-17.47c-11-7.77-22.62-10-35.59-8.89A31.85,31.85,0,0,0,219.68,792.34Z"/><path d="M341.49,754c-13.19-1.41-26.31-3.42-37.86-10.85-6.1-3.92-10.05-9.26-9.09-17,1.15-9.4,7.06-14.66,17.32-15.25,11.9-.68,22.65,2.94,32.31,9.72a137.57,137.57,0,0,1,11.21,9.11c4,3.53,6.12,8,4.52,13.36A13.38,13.38,0,0,1,349,752.92C346.58,753.4,344.1,753.63,341.49,754Zm-29.08-25.48c9.52,6.49,18.31,10.11,28.57,8.69C332.85,731.4,324.5,726.33,312.41,728.52Z"/><path d="M252.88,775.17c0-14.07,6.81-21.08,18.17-21.54,16.8-.67,31.89,18.27,27,33.88-3.66,11.62-15.39,17-26.24,11.49S253.89,785,252.88,775.17Zm30.59,6c.08-4.94-5.12-10.91-10.14-11.49-3.35-.4-4.65,1.49-4.18,4.53a13.33,13.33,0,0,0,8.44,10.9C281.23,786.64,283.41,785.12,283.47,781.2Z"/><path d="M461.43,786.47c0-15.74,10.26-22.7,24.94-16.86,17,6.78,28.52,27.95,22.47,49-2,7-9.33,10.52-16.35,8.55C476,822.56,461.43,803.48,461.43,786.47Zm33.27,19.6c-.9-8.68-4.16-16-12.25-20.3-3.63-1.91-6.26-.35-5.35,3.12,2.17,8.24,6.18,15.3,14.38,19.15C493.78,809.12,495,808.91,494.7,806.07Z"/></svg>