<svg id="Ebene_1" data-name="Ebene 1" xmlns="http://www.w3.org/2000/svg" viewBox="0 0 778.2 1080"><path d="M59,495.16c3.11-3.38,6.23-.31,8.61.71,8.74,3.78,16.61,3.27,24.06-2.74.26-.22.55-.62.79-.59,6.6.68,5.49-5.85,8.09-8.84,1.91-2.2-.34-4.32-1.65-6.29-.92-1.38-2.25-3.22-1.26-4.64,1.4-2,3,0,4.36.74,3.2,1.62,5.64-.83,6.89-2.55,2-2.76-2-3-3.26-4.44.4-1.92,1.91-1.75,3.16-1.57a7.76,7.76,0,0,1,3.8,1.25c6,5.22,12.63,5.26,20,3.79,6.11-1.22,12.43-1.33,18.64-2.1,5.89-.74,8.23-5.24,5.61-10.54a14.52,14.52,0,0,0-1.32-2.16c-1.55-2.12-3.3-4.62-1.06-6.8,1.89-1.82,4,.51,5.91,1.37a17.18,17.18,0,0,0,5.26,1.76c9.52,1,14.18-2.88,14.63-12.85a45.54,45.54,0,0,1,2.37-12.37c4.31,2.43,6.79,1.84,9.75-3.09,1.22-2,2.17-4,4.71-3.71s3.06,2.31,3.19,4.54c.06,1,.41,2.2,1.78,1.9s1-1.58,1-2.54c-.17-4.57-2.66-7.57-6.66-9.37-4.17-1.87-10-.45-13.51,3.24-4.53,4.79-6.34,10.65-6.66,17.12-.73,14.67-4.61,17-17.6,10.41-2.66-1.34-5.51-2.93-7.93-.57-2.71,2.64-1.41,5.85,0,8.93,1.36,2.92,5.66,5,2.72,9.32-2.42,3.58-6.12,3.07-9.55,3.6-4.52.7-9,1.47-13.54,2.17-5.17.81-9.86.57-14.22-3.29-5.8-5.13-12.58-5.2-18.17-1-4.66,3.46-5.72,9.1-2.69,16.48.87,2.11,0,3.2-1.17,4.41-8.18,8.26-16.27,12.38-26.53,5.85-2.22-1.41-5.85-.31-7-3.11-1.33-3.36-3.31-6.63-2.75-10.62.45-3.18,1.76-5.28,4.85-6.43,7.87-2.92,9.28-5.81,6.36-13.75-3.22-8.76-7.84-16.87-12.23-25.07a100.68,100.68,0,0,1-6.94-15.16,10.92,10.92,0,0,1-.61-5.52c1.23,2.76,2.29,4.86,3.11,7.05,3.33,8.91,9.51,14,18.82,16.68,10.48,3,10.83,9.26,7.22,21.49-1,3.32-3,6.33-4.75,9.88,4.11-2,9.28-11,9.79-16.33,1-10.25-2.07-15.87-12.15-19.53C59.87,426.09,57,416.11,53.47,406.47c-1.08-2.94.76-4.9,3.83-5.28a27.13,27.13,0,0,1,9.59.31c1,.23,2.13.37,2.66-.77s-.56-1.46-1.22-1.86c-2.4-1.47-3.82-3.13-2.54-6.25a6.7,6.7,0,0,1,6.6-4.55c4-.13,7.25,1.67,10.37,3.68,2.92,1.88,4,1,4.08-2.08.15-13.87-2.58-26.52-15-35-1.2-.82-2-2.29-2.91-3.47a2,2,0,0,1-.23-2.37c.53-.91,1.42-.65,2.26-.51,9.44,1.46,18.15.24,25.16-7,2-2.12,3.54-.91,4.86.76,4.3,5.45,5.47,11.77,3.14,18.09-1.5,4-.8,8.13-1.91,12.06a1.64,1.64,0,0,0,1.18,2c7.32,1.3,14.73,3.23,21.58-1.64.93-.66,2.17-1,2.37-2.74-2.1-1.25-3.33.81-4.7,1.51a15.62,15.62,0,0,1-14.18.38c-3.37-1.49-4.63-4-3.25-7.39,4.28-10.45,3-19.84-5-28.1a3.73,3.73,0,0,1-1.18-3.61A31.86,31.86,0,0,0,83.84,298.7c-5.3-3.17-5.42-3.57-1.28-8.22,1.65-1.87,1-3.46-.12-5a19.55,19.55,0,0,0-11-7.62c-5.39-1.54-5.7-2.5-2.64-6.93,2.17-3.14.68-5.43-1.59-7.51-3.4-3.1-7.86-3.81-12.05-5.08-2.92-.88-5.61-1.95-8-5.15,4.86.32,8.85.77,12.84.81,3.81,0,7.51,1.81,11.85.78-2.41-4.06-6.3-4-9.79-4.64-2.48-.44-5-.26-7.5-1.14-1.2-.44-2.31-.82-2.19-2.31.1-1.31,1-2.51,2.2-2.44,4.71.28,4.36-2.88,4.53-6a53.91,53.91,0,0,1,1.17-6.5c-4.78,3.21-6,1.35-6.92-3.15-1.29-6.47-6.7-10.29-13.38-10.45-.9,0-1.61.1-2.16-.67-1-1.43.43-1.65,1.13-2.22,1.78-1.45,2.07-3.38,1.79-5.5-1-6.92.09-9.2,6.9-11.17,4.83-1.4,4.81-3.67,3.14-7.46-2.72-6.17-2.23-7.18,4.66-6.76,9.44.58,17-3.59,24.39-8.44,2.2-1.43,1-2.16-.59-3.16-4.74-3-9.12-6.48-11.68-11.7-.41-.82-1.49-1.71-.44-2.67.89-.81,1.94-.26,2.84.2A5.42,5.42,0,0,1,72,160c2.39,3.52,4,3.59,7.83.77,3.06-2.24,8.2-2,12.22-3.81,1.06-.48,2.84.47,2.56-1.73S93,152.3,91,153c-2.4.82-4.78,1.71-7.21,2.44-3.84,1.14-7.66,1.43-11.35-.61-2.7-1.49-3.15-2.74,0-4.54,6.74-3.91,7.19-9,1-15.1,6,.79,7.11-3.15,7.6-7.19.6-4.9,2.21-9.88,0-15.17,5.08-.2,10.55.65,14.4-4.12a6.52,6.52,0,0,0,1.9-4.38c.13-7.07,2.16-8.89,8.27-5.71l4,2.1c13.32,12.68,25.23,26.82,39,39,1.24,1.24,1.35,3.42,4.41,2.86,2.08-.37,3.63,2.67,5.23,4.39,1.85,2,4.2,3.31,6.75,2.83,2.75-.52,2.45-3.53,2.55-5.52.62-12.48,1.51-24.93-1.92-37.31-1.33-4.81.3-10,3-14.42,1.5-2.42,4-2.35,6.19-.57,6,5,12.61,5.9,20,4.12,4.69-1.12,13.44-10.84,14.84-15.46,3.09-10.19,1.21-19.75-2.16-29.33-.31-.9-1.12-1.94-.27-2.83s1.82.07,2.69.45c7.7,3.44,9.91,3.35,15.42-3,2.54-2.91,7.33-4.35,7.16-9.43,0-.28,1.08-.66,1.7-.91,5.64-2.22,12.56,0,14.62,5.57,3.34,9,9.32,13.06,18.85,12.73,7.12-.25,13.52,7,7,14.78a9.55,9.55,0,0,0-2.24,7.11,50.65,50.65,0,0,0,9.18,24.44c.68,1,1.47,2.08,2.87,1.29s1.12-2,.66-3.15c-2-5-4.08-10-6.12-15-2.43-6-1.32-11.47,2.75-17.37,1.22,3.83,2.17,7,3.22,10.12,2.49,7.4,7.41,12.55,14.91,14.65,3.37,1,4,2.7,4.17,5.78.32,4.9-2.1,9.69-.34,14.61.46,1.3-.46,1.89-1.67,1.77-3.9-.41-8.34,1-11.08-3.33-.47-.74-1.14-1.51-2-1-1.17.7-.62,1.7-.09,2.62,2.13,3.79,5.66,5.18,9.7,5.58,9.17.9,9.87,2,7.84,11.24-.57,2.58-1.65,5.22-.23,7.93.69,1.31,1.63,2.39,3.1,2.21,1.94-.23,1.45-1.9,1.42-3.2-.05-1.69-.21-3.38-.1-5.06a32.72,32.72,0,0,1,1-4.46c2.43,6.17,2.37,11.91,3.85,17.28,1.14,4.11,3.33,5.42,6.45,6.57a28.22,28.22,0,0,0,5,1c2.61.44,4.34,1.32,2.29,4.26-2.87,4.1-1.8,7.74,1.54,10.86s4.7,6.55,3.43,10.94c-.55,1.88-.38,3,1.88,3.77s4.28,2.69,6.5,3.9c2.8,1.52,5.49,3.18,8.9.71,1.26-.91,3.6-.37,5.46-.38,4.74,0,9.46-.11,14.12-1.26,7.36-1.8,8.15-1.14,9.44,7-.31.05-.73.26-.9.13-6-4.45-5.95-4.42-9.43,2.87-4.51,9.46-9,18.92-13.78,28.28-4.09,8.08-7.63,8.91-15.1,4-12.62-8.32-26.86-7.1-36.47,3.12-3.14,3.33-2.83,5.32,1.49,6.39,19.56,4.86,23.08,26.58,15.87,40.65-.74,1.45-2.12,2.68-1.89,4.73,1.61.3,1.81-1.15,2.33-2,7.5-11.69,9.36-24,2.4-36.42-2-3.53-6.44-5.66-9.78-8.42-1-.83-2.78-1.27-2.65-2.78s1.81-2.43,3.17-3c8.05-3.27,15.72-3.36,22.75,2.72,7.37,6.36,15.76,5.26,20.32-3.42,5.82-11,10.73-22.57,16-33.86,3.18,2.88,7.51,1.79,11.21,3,1.74.58,3.69.46,5.51.84,5,1,7.12,4.19,5.37,8.84-2,5.25,1.39,8.59,3.54,12.43.66,1.17,1.8.27,2.75.27,5.47,0,8.44,2.44,9.53,7.7,1.54,7.5,1.44,15.14,2.1,22.71.17,1.9-.72,4.13,1.47,5.57,2.08-1.16,1.67-3.22,1.72-4.95a108.21,108.21,0,0,0-2-25.77c-.92-4.38-3.21-7.22-7.61-8.55-6.87-2.08-7.62-3.48-6.38-10.24,1.11-6.06-1.13-9.67-7.09-11.41a11.75,11.75,0,0,1-1.47-.39c-2.79-1.19-7.6.31-8.4-2.15-1.51-4.68-3.19-9.7-2.44-14.9.46-3.22,9.43-7.39,13.62-6.47,5.08,1.12,9.31,4,13.61,6.62a23,23,0,0,0,10.91,3.73c9.08.53,15.28-5.84,14.31-14.85-.45-4.17-.86-8.34-2.38-12.38-.6-1.6-2-4.07.15-5.63,1.74-1.27,3.61.2,5.25.89a33.44,33.44,0,0,0,14.88,2.57c7.17-.35,8.72-4.79,6.44-11.45-2.74-8-9.71-14.39-8.88-23.82.58-6.43,5.59-13.8,11.71-15.9,1.41-.49,3.25-1.44,3.91.57.76,2.3-1.46,2.67-3,3.14-5.16,1.55-7.5,5.17-6.84,10.68.12,1,.09,2.18,1.34,2.45A2.05,2.05,0,0,0,460,115c1.79-4.41,5.6-5,9.64-5,5-.08,10.14-.63,14.89,1.8.93,3.82,4.4,5.71,6.52,8.62-1.76-1-3.45-2.26-6.25-1.81,1.94,1.7,3.4,3,4.83,4.23.69.63,1.34,1.81,2.36.76.8-.82.16-1.84-.37-2.7,1.1,1,2.15,2.15,3.33,3.09s2.56,2.54,4.38,1.08c1.11-.89,2.9-1.44,2.48-3.42a4.14,4.14,0,0,0-3.86-3.48c-4-.37-7.42-1.76-10-5.09a3.15,3.15,0,0,0-3.66-1c1.67-1.5,1.59-3.22-.28-4.11-2.62-1.24-3.68-3.94-5.92-5.45-.83-.56-1.86-1.15-1-2.4s1.77-1.24,3-.47c3.31,2,6.74,3.86,10,5.89,4.82,2.94,7.14,1.84,7.36-3.76.13-3.61,1.18-7,2.1-10.43,1-3.65,3.62-5.51,7.4-5.91,6.84-.73,13.06,1.08,18.89,4.48,4,2.33,5.89,6,4.24,10.3-3.43,9-3.23,18.55-4.72,27.84-.22,1.35-.08,2.27,1.21,2.94,1.58.82,5.27.5,2,4-.86.92.89.84,1.5,1.14,1.77.85,4.51.13,5,3.13.13.84.91,1.17,1.45.59,1.64-1.77,3.15-2.53,4.92-.19,2,2.66,5.77,5.42,4.42,8.64-3.3,7.85-3.71,16.36-6.63,24.28C534.62,185.41,528.61,197.41,520,208c-.74.92-1.46,1.87-2.12,2.85-.39.58-.63,1.27.12,1.78a1.37,1.37,0,0,0,1.83-.21c.72-.72,1.31-1.55,2-2.29a101.48,101.48,0,0,0,20.69-34c.41-1.09.92-2.14,1.34-3.1,1.61-.3,1.64,1.2,2.47,1.65s1.92,1.89,2.93.27c.7-1.11-.3-1.71-1.06-2.44-3.08-3-2.75-10.59.47-13.42,1.38-1.21,3-.76,4.33-.31,4.47,1.48,8.18,3.93,10.12,8.53.91,2.14,1.72,4.69,4.73,4.62s4-2.53,5.27-4.8c6.35-11.36,13.23-22.3,23.92-30.28,4.89-3.65,11-3.53,15.88,1.77,4,4.26,8.05,8.58,10,14.47,1.3,3.95,1.57,7.56-.14,11.31-.78,1.68-1.57,3.48,1.44,3.37,3.89-.14,8,.19,9,4.46,1.14,4.81-2.37,8.35-5.68,11.18-3.55,3.06-7.69,5.43-11.56,8.12a16.18,16.18,0,0,0-2.42,1.83c-2.15,2.19-4.86,4.69-3.61,7.82s4.75,1.6,7.31,1.49c7.93-.32,15.88-1.52,23.59,1.57,2.6,1,4.88,2.28,6,5l.11-.12c-3.3-.61-7.34-2.77-5.52,4.15.72,2.75-1.9,5.63-2.48,8.69-.86,4.48.34,6.8,4.94,7.19,0,1.8-1.26,2.58-2.48,3.53s-3.16,2.08-2.54,4,2.58,1.84,4.33,1.84c5.48,0,9.85,1.76,12.37,7.12s-.38,11.24-5.71,13.52c-4.26,1.82-8.36,3.12-13,3.1-2.8,0-3.3,1.86-2.52,4.24,3.68,11.13,2.44,21.22-6.18,29.81-.9.9-2.22,2.09-1,3.49,1.4,1.65,2.44-.13,3.34-.84,7.91-6.27,11-14.7,10.87-24.56,0-2.24-2-5.33.65-6.46,3.11-1.33,6.86-2.89,10.27-1.15,4.93,2.51,9.69.92,14.36-.13a14.06,14.06,0,0,1,13.37,4c2.13,2.29-.8,3.58-.22,5.42,1.09,3.41,1,7,1.55,10.52.65,3.92,2.85,6.87,7.27,7.34a6.06,6.06,0,0,1,4.14,2c-9.6,5.63-15.27,14.79-22.41,22.56-4,4.34-4.58,9.35-2.94,15,1.33,4.58,3.59,9.25,1.48,14.48a9.52,9.52,0,0,0,2.41,10.77c2.53,2.51,3.37,4.86.24,7.64-1.24,1.1-2.19,3-.87,4.56,1.63,2,3-.18,4.38-.79a8.29,8.29,0,0,0,2.09-1.44c1.16-1,2.48-1.51,3.58-.28s.83,2.76-.5,4a55.32,55.32,0,0,0-10.51,14.22c-.85,1.55-2.54,3.25-1,5.06a5.92,5.92,0,0,0,5.57,1.81c6.44-.9,12.75-2.28,17.62-7,2.56-2.48,4.5-2.59,7.32-.17,5,4.26,8.92,4.14,14.16.2,1.89-1.42,3.6-3.07,5.41-4.6,2.46-2.07,4.79-4.22,8.55-3.06,1.91.58,3.61-.65,4.82-2.2,1.6-2.05-1.7-2.41-1.55-4.25,6.49,3.25,12.94-.68,19.92.23-2.09,3.66-5.61,5.8-7,9.74-1.43,4.13,2.78,7.84.21,11.73-1.38.14-1.26-1-1.52-1.67-2.11-5.92-5.12-6.83-9.9-2.92-.34.28-.79.94-.67,1.18q1.83,3.79,3.88,7.49a1.49,1.49,0,0,0,1.37.47c7.64-4.16,4.32,3.59,6,5.71.82,1-.44,3.53,1.14,4.15,6.36,2.48,2.4,5,.34,7.73a23.77,23.77,0,0,0-3.15,5.77c-1.17,3.08-3.27,6.47,2.37,8.74-8.4,1.24-10.55,5.06-7.78,11.86.37.9,1.29,1.86.08,2.63a3.7,3.7,0,0,1-3.42.39c-3.33-1.38-6.3-3.25-8.28-6.41a19.2,19.2,0,0,0-2-2.94c-1.36-1.5-2.45-4.62-5.06-2.51-2.91,2.35,1.36,2.45,1.9,3.93,2.21,6,6.81,9.88,13,11.85a7.32,7.32,0,0,0,5.84-.12c-6,5.63-13.48,6.11-21.37,5.55,1.46,10.25,7.55,17,14.55,23.28,1.31,1.16,3.8,1.85,3.27,4.1-.58,2.44-3,2.19-5,2.5-4.31.66-3.69,3.13-1.92,5.83,3.18,4.89,3,8.59-.56,13.18-.81,1-2.26,2-1.54,3.47,1,2.15,2.6,0,4.32.26-2,2.28-3.89,3.11-6.61,1.75-10-4.95-21.67.23-24.2,11-.92,4-1.94,4.58-5.49,2.58-4.09-2.3-7.93-5.79-14-4.68,2.65,3.47,6.26,4.49,9.28,6.33s6,3.75,9.57,6c-3,1.5-5.31.68-7.64,0-3.56-1.06-6.88-3.11-10.67-3.18s-7.37.31-6.9,5.69c.33,3.78-2.1,3.67-4.67,2.86-4.07-1.27-8.09-2.56-12.41-1.14-2.64.86-4.65,1.63-3.33,5.31,1.42,4-1.71,4.19-4.36,3.88a34.08,34.08,0,0,0-17.82,3c-6,2.56-11.09,6.08-12.94,12.69-.68,2.41-2.3,2.55-4.1,2.94-8.92,1.92-14.62,7.28-17.29,16-1.64,5.35-4.38,6.4-9.59,4.27-4.93-2-7-6.5-9.45-11.21-1.16,7.07,6.77,15.42,12.93,14.45a10.65,10.65,0,0,1,4,0c4.55,1.08,6.11-.19,5.75-4.91A14.1,14.1,0,0,1,610.52,566c2.22-.58,4.32-.57,4.4,2.39.22,8.65,6.17,13.07,12.41,17.39,1.12.78,3.46,1.06,2.92,2.92s-2.72,2.44-4.62,2.38c-13.16-.4-22.3,6.53-29.88,16.29-2.16,2.79-2.59,5,2.12,5a15.64,15.64,0,0,1,4.5.69c4,1.25,7,3.32,6.66,8.25-.33,5.2-4.45,3.35-7.61,4.05,1.32,3.31,4.52,4,6.76,5.65,5,3.77,5.14,6-.07,9.54-8,5.47-16.31,8.79-26.24,5.28-5.32-1.89-10.06.13-13.75,4.18-5.35,5.89-6,13.11-5.37,20.6,2.09-5.27,2.18-11.11,5.4-16.06,3.1-4.77,7.23-7.27,12.33-5.21,10.73,4.34,20.18,2.08,29.49-4.75-2,3.66-3.31,4.82-8.2,7.22-7,3.44-14,6.77-21,10.17-4.12,2-8.25,4-11.63,7.18s-4.21,6.24-1.1,10.2c3.49,4.46,2.42,9.59-2.84,12.06-2,.94-3.18,4-6.33,2.64-6.33-2.7-14.49-2.18-17.69-10.21-.93-2.35-1.55-4.82-2.31-7.24-1.11-3.57-1-6.22,3.29-8,4-1.7,5.84-7.36,4.79-11.86-1.15-4.93-6.12-9.51-11.46-9.18s-9.54-1.37-13.78-3.92c-2.79-5.4-8.16-8.41-12-12.87S506.31,623,512,621c3.53-1.23,7.2-2.86,7.19-6.84,0-4.75-4.82-3.64-7.79-4.65-.64-.21-1.32-.29-2-.48-8.26-2.41-9.9-6.62-5.13-13.81,3.71-5.58,7-11.21,6.16-18.28a12,12,0,0,0-6.53-9.65,2.75,2.75,0,0,0-3.62.89c-.78,1,.29,1.37.92,1.88,6.28,5,7.2,9.09,3.73,16.36-2.11,4.41-5.58,8-7,12.88-.61,2.11-.62,4.71.62,6.43,3.07,4.24,7.47,6.17,12.32,7.37,1.26.32,3,0,3.16,1.85s-1,2.65-2.47,3.42c-10.72,5.47-11,7.59-2.06,15.85,2.61,2.41,5.23,4.81,7.94,7.11,1.23,1.05,2.29,2.59,4.3,2.2,1.5,4.85,4.83,7.23,9.84,6.73,2.1-.21,3.12-.2,3,2.32-.11,3.89,3,6.07,5.84,6.76,4.42,1.06,2.17,2.62,1,4.4-.09.13-.29.18-.4.31-2.23,2.47-7.37,1.78-7.32,6.75a31,31,0,0,0,4.62,16.91c3.24,5,8,7.47,13.94,8.17,3.63.43,8.07.43,6.1,6.39-.21.61-.1,1.64.69,1.57,1-.1,2.57-1.45,2.55.52a4,4,0,0,1-3.25,3.53c-8.85.26-8,5.74-7.53,12,.66,8.88-3.91,13.08-12.65,12.92-2.71-.06-5.44.07-8.13-.16s-4.93-.43-6.09,2.79c-1.08,3-1,5.61,1.11,8,1.81,2,3.69,4,5.5,6a9.56,9.56,0,0,1,2.89,6.84c-.1,2.59-3,3.86-3.55,5.05-2.69,5.7-8.38,5.73-12.65,8.21-1.77,1-1.75,2-1.72,3.61.09,4.57-2.12,6.66-6.85,6.68-6.07,0-11.72-1.62-17.34-3.5A94.86,94.86,0,0,0,478,773.06c4.47-3.85,13.24-5.07,17.8-2.83a45,45,0,0,0,5.92,2.9c5.09,1.63,8.9-.86,9.71-6.7-2.43,1.88-3.76,4.87-7.06,4.44-2.93-.39-4.75-2.43-6.85-4.11A7.27,7.27,0,0,0,491.9,765c-3.69.54-7.36,1.19-11,1.79-4.43.74-7.38,2.42-7.44,7.81s-4.93,5.52-8.64,5.89c-5.58.57-11.15,1.84-14.89,5.72-4.66,4.84-9.27,8.16-16.26,8.95-4.55.51-7.48,4.93-9.6,9.14-3,5.87-7.17,10-13.83,11.66-5.27,1.28-9.07,5.09-12.93,8.68-7.43,6.92-14.95,13.75-22.41,20.65s-14.24,13.9-21.17,21.08c33.6-46.12,74.92-85.51,111.94-128.7-7.85,5.65-14,13.18-21.18,19.46-7.57,6.59-13.61,14.56-20.69,21.58S410.31,793,403.68,800.22s-13,14.37-19.79,21.31c15.25-23.76,30.2-47.63,43.46-72.54,13.17-24.74,24-50.61,37.15-76.19-4.59,1.1-7.24,3.05-9.09,6.66q-9.57,18.74-20,37.11c2.78-8.89,5.59-17.77,8.32-26.67a75.1,75.1,0,0,0,1.81-7.39c.27-1.31,1.68-3.27-.7-3.75-1.78-.36-1.75,1.71-2.07,2.93a291,291,0,0,1-9.06,28.54c-7.69,20.39-15.21,40.62-26.56,59.64-16.07,26.91-33.57,52.79-50.86,78.86a2.55,2.55,0,0,1-1.93,1.1c2.87-8.51,5.79-17,8.59-25.53,1.11-3.37,2-6.81,2.88-10.26.31-1.34,1.22-3.31-.95-3.85-2-.49-2.39,1.49-2.92,2.85-2.71,6.93-5.33,13.9-8,20.84a313.2,313.2,0,0,1-50.22,85.91c-7.33,8.87-14.14,18.16-21.16,27.28-.51.67-.71,1.57-1.81,1.82,9.21-21.7,14.34-44.31,21.15-67.52-3.68,1.19-3.54,3.51-4.19,5.16-7.78,19.84-14.41,40.09-22.39,59.87-10,24.82-27.3,43.23-47.78,59.29-2.68,2.1-4.62,4.33-5.45,7.61-.62,2.46-1.88,4.82-2.13,7.3-1.45,14.09-12.63,16.11-23.94,19.68,6.5-9.07,9-18.77,11.73-28.34a11.78,11.78,0,0,1,4.85-6.74,108.66,108.66,0,0,0,36-43.16,3.59,3.59,0,0,0,.41-3.39c-3.6,4-6.94,7.93-10.5,11.62-1.35,1.39-2.12,4.19-5.09,3.05-2.71-3.58-7.2-5.3-9.65-9.17-2-5,1.07-9.28,2.53-13.52,3.68-10.71,6-21.76,9.1-32.62,5.26-18.56,9.81-37.32,14.56-56a186.51,186.51,0,0,0,4.32-19.3c2.1-14.54,10.07-25.88,18.73-37.09,9-11.65,18.05-23.32,25.87-35.74,3.88-6.16,6.78-13.18,10-19.85,8-16.38,15.28-33.07,22.54-49.79a19.26,19.26,0,0,1,7.42-9.07c1.95-1.19,3.55-2.94,5.8-4.86-3.76-1.13-5.23,2.32-8,2.38-.5-5.6,3.32-10.21,3.6-15.66-11.8,21.3-18.18,45-29.93,66.3-2.24-1-1.09-3.36-3.19-4-1.5,1.82-2.11,3.92-.2,5.66s1,3.06.21,4.47c-7.74,13.29-14.61,27.1-23.65,39.6-6.73,9.31-13.59,18.51-21.07,28.68-.15-5.1,1.42-8.79,2.33-12.51,11.94-49,23.77-98.08,37.32-146.7,3.3-11.85,10.45-21.58,17-31.57,10.25-15.54,24.62-26.62,41.33-34.23,10.78-4.9,22.5-4.07,33.71-.47,8.44,2.71,20.31,1.65,25.43-3.34-10.62,5.58-21.2,2-31.69,0a71.18,71.18,0,0,0-19.91-.65l25.74-14.79a6.83,6.83,0,0,0-5.82.82c-13,6.59-26.27,12.44-39,19.48-14.61,8.06-25.68,19.54-35,33-.91,1.31-1.22,3.21-3.84,3.86,3.64-12,7.14-23.59,10.68-35.18,10.3-33.7,22.29-66.81,35.37-99.52,4.51-11.28,13.42-19,23.19-25.56,15.13-10.22,32.48-15.83,49.05-23.06,9.45-4.12,18.76-8.48,27.1-14.65,1.37-1,3.41-1.52,3.74-4.65a124.18,124.18,0,0,1-22.37,13.59C423.55,444,409,447,395.63,453.21c-11,5.14-21.33,11.06-30,19.7a10.12,10.12,0,0,1-2.09,1c2.22-5.23,4-9.89,6.14-14.38,5.57-11.78,11.33-23.48,16.94-35.25,1.59-3.33,4.36-5.57,6.9-8,9.75-9.41,19.28-19.05,29.35-28.09a198.11,198.11,0,0,1,36.76-26c14.44-8,27.72-17.53,38-30.74.78-1,2-1.8,1.9-4.44-5.24,4.89-9.9,9.33-14.65,13.66-12.25,11.12-26.41,19.13-41,26.78-8.52,4.47-16.06,11.18-22.81,18.36-8.58,9.1-17.1,18.26-26.54,26.6,11.77-24.46,26.73-46.63,43.26-67.86A96,96,0,0,0,419.55,364c-5.16,7.2-11.57,13.39-16,21.2s-9.76,15.45-14.5,23.26q-7,11.49-13.55,23.22c-4.47,7.92-8.75,16-13.38,23.81,3.42-31.5,13.66-61.81,14.32-93.71-.73,3.74-1.7,7.45-2.15,11.22-2.16,18-7.28,35.38-11.65,52.94-2.63,10.6-3.83,21.63-5.54,32.49-2.05,13-8,24.06-14.47,35.24-4.19,7.19-6.49,15.57-10,23.25-13.54,29.38-26,59.21-37.85,89.33-.46,1.18-.45,2.7-2.51,3.71,2.84-15.79,2.28-31.36,3.19-46.85.28-4.64-.64-9.08-.86-13.63-1.11-23.25.71-46.36,3-69.47,1-9.8,1.49-19.62-1-29.3-.69-2.7-1.34-5.45-3.17-7.77a2,2,0,0,0-.57,2.62,58.82,58.82,0,0,1,1.47,36c-1.93,7-1,13.72-2.35,20.49-1.43,7.08-1.64,14.47-1.75,21.74-.11,7.42-.32,14.84,0,22.3,1.1,25.21,1.87,50.45-3.12,75.47-2.3,11.54-6.87,22.29-10.59,33.34Q268.71,677.95,261,701c1.33-17.56,2.81-35.07-.79-52.59s-10.6-33.69-20.05-50.29c-.14,3.79,1.26,5.72,2.26,7.77,6.36,13.07,12.15,26.41,14.48,40.83,3,18.5,2.35,37-.92,55.5-6.67,37.61-17.4,74.18-30,110.12-2.59,7.37-4.11,14.88-6.49,22.22C210.5,862.08,202.61,890,192.33,917c-2.38,6.27-6.57,11.64-8.76,18.05a293.53,293.53,0,0,1,8.08-41.28c1.82-7,1.88-7-5.47-6.09a23.87,23.87,0,0,0-3.48.72c-5.07,1.45-6.12,4.22-3.33,8.69,6.49,10.36,5.67,12.65-5.83,17-2.5.94-4.85,2.28-7.56,3.58V911.9a25.65,25.65,0,0,0-6.15,13.15c-3.29,20.05-3.82,40.08,1.4,59.94a11,11,0,0,1-.18,7.37c-1.85,4.54-3.11,9.32-5,13.83-4.73,11.07-5,21.69,2.4,31.94-3.23-1.94-4.69-5.25-6.71-8a102.74,102.74,0,0,1-6-9.4c-10.36-18-10.52-18.07-3.11-37.29,2.94-7.65,4.23-15,2.21-23.16-5.25-21.44-3.09-42.75,2.78-63.74,6.36-22.75,13.1-45.4,19.69-68.09.28-1,.74-1.92-.86-4.14-10.15,24.58-19.81,48.41-25.27,73.9-1.73-.77-1.17-2.11-1.18-3.09-.38-23.51-1.17-47-.9-70.54.26-22.44,4.46-44.44,9.75-66.21,2.8-11.51,5.5-23,9.24-34.29.51-1.54,1.27-3.72-.88-4.41s-2.65,1.62-3.27,3.08a279.54,279.54,0,0,0-12.22,36c-.3,1.11-.28,2.38-1.44,3.2-1.21-.28-.76-1.3-.73-2q1.81-44.65,5.34-89.23c2.4-29.75,8.74-58.47,18.09-86.7,4.47-13.51,8.9-27,15.57-39.62A116,116,0,0,1,195.57,520c6-6.5,11.81-13.1,15.55-21.22.65-1.41,2.13-2.78.68-4.68-.45.25-1.11.38-1.25.73-4.85,11.7-13.55,20.58-21.91,29.65-15,16.34-22,36.66-28.78,57.11a105.67,105.67,0,0,1-3.79,10.51c6.67-37.36,12.25-74.81,12-112.92-1.39,10-2.74,20-4.19,29.91-.32,2.15-1,4.25-1.55,6.37-11.75,10.87-23,22.3-34.22,33.66-16.23,16.42-32.84,32.46-48.82,49.12-5.45-3.73-11.61-4.37-18-4.94-4-.35-4.46-4.48-3.86-8.44-3.59,3.32-2.81,8.2,1.24,10.89,2.52,1.68,5.41,1.73,8.27,2.06,5.63.65,13.81,8.06,15.44,14.61-10.57-5.64-22.18-7.3-31.62-14.06-5.32-3.81-5.56-5.7-1.84-11.25,2.69-4-1.88-6.07-2.4-9.25-.3-1.87-2-3.49-2.82-5.31-3.7-7.85-.31-14.38,8.31-16.22,3.15-.67,6.31-1.29,9.4-2.17,5.26-1.5,6.36-6.71,2.89-10.87-3.28-3.94-8.19-5.21-12.16-8.08,1-1.39,2.11.47,2.72-.38.86-1.2-.3-1.8-1.09-2.36-6.87-4.83-7.07-7.06-1.7-13.6a87,87,0,0,0,5.56-8.43,1.91,1.91,0,0,0,0-2.37c-4.75-6-4.76-5.94-4.41-13.43,2,1.75,3.94.73,5.92.36a17.71,17.71,0,0,0-1.23,3.8c-.22,2.53,1,4.49,3.66,4.39,2.82-.1,2.62-2.62,2.51-4.6C63.88,495.37,61.46,495.16,59,495.16ZM212.86,204l-.45,1.74v.16l2.72.47.16,0,3.24,3.44c1.88,2,2.31,4.37,2.25,7,0,1.82-1.1,4.86,1.36,5,2.25.15,2.26-3.3,2.37-5,.82-12.86-.58-21.56-18-17.05-6.68,1.73-13.49,1.54-18.84-4.12-.89-.93-2-2.41-3.4-1.23a92,92,0,0,1-14.2,9.7,1.61,1.61,0,0,0-.63,2.55c.69.9,1.54.29,2.27-.11,3-1.62,6-3.1,8.82-5s5.61-3.73,8.58,0c1.2,1.51,3.23,1.64,5,2.1,6.22,1.6,12.45,0,18.69.27ZM336.11,452c1.43-7.3-2-13.26-5.18-19.29,2.87,6.1,3.73,12.76,5.2,19.25l4,19.79c3.16-4.49,1.91-8.93,2.38-13.45-1.59,1.63.17,4-2.16,5.28-1.47-2.2-1.42-4.74-1.82-7.13C338.24,454.71,338.6,452.6,336.11,452ZM137.57,346.89c.67-2.79,3.3-1.45,4.75-2.3,7.65-4.47,12.32-2.23,13.14,6.56.23,2.52.65,5,1.06,7.51a1.81,1.81,0,0,0,1.71,1.6c1,.08,1.48-.61,1.91-1.38,2.26-4,.16-15.6-3.37-18.6-4.32-3.67-12.55-3.89-18.72-.5-5.59,3.07-9.65,10.56-8.69,16.05.14.81,0,1.88,1,2.12a1.91,1.91,0,0,0,2.21-1.62c.78-3.76,3.91-6.27,5-9.81.74,1.12,1.94,2.16,2.14,3.37.78,4.66,4.13,4.22,7.34,3.9,2.14-.22,4.26-1.28,4.08-3.66s-2.14-3.76-4.66-3.7C143.54,346.51,140.56,346.73,137.57,346.89Zm444.14,207.5c-.44,2.36-1.7,4.66-.74,7.41a8.29,8.29,0,0,0,1.61-.94c5.89-6.54,4.67-17.38-2.57-23-6.87-5.34-13.35-3.82-19.22,4.44-.86,1.21-2.16,3.79-2.66,3.34-3.38-3-7,.11-10.32-.76-1-.26-2.41-1.52-3,.26-.47,1.49,1.13,2,2.19,2.22,3.81.68,7.56,1.18,10.72,3.92.82.71,4.28,1.36,4.1-.58-.52-5.42,4-6.86,6.64-9.65s5.72-2.78,8,.89c-5.13-1.29-7.83-.15-6.73,2.89a8.66,8.66,0,0,0,5.82,5.17,2.07,2.07,0,0,0,2.64-.91c1.17-2.44.32-4.56-1.31-6.48-.21-.25-.39-.54-.59-.82,3.89,1.18,4,5,5.35,7.84-.26-.83-.75-2.6-1.53-1-1.2,2.51-1.46,5.48-2.07,8.26-.14.67,0,1.5.8,1.55a2,2,0,0,0,1.64-.82A22,22,0,0,0,581.71,554.39Zm80.93-107.78c-.39-.32-.73-.8-1.17-.93-2.56-.73-5.16-2.1-7.75-.23a3,3,0,0,0-1.11,3.64c1.41,2.67,4.47,2.83,7,3.4,4.07.9,5.14-.83,3.49-5.15,3.34,1.58,6.64.33,9.9-.28,1.86-.35,3.8-1.17,5.21.5,1.59,1.87,1.19,4.17.18,6.21a38.43,38.43,0,0,1-8.09,10.31,14.18,14.18,0,0,0-3.84,7.5c-1.12,5.07,2.86,8.95,7.35,7.52-5.64-4.89-5.79-8.46-.58-13.89,1.87-2,3.92-3.75,5.67-5.8,3.16-3.7,3.53-8,1.8-12.38-1-2.57-2.79-3.95-6-3.13-8.61,2.21-11.46.87-15.45-6.9-1.42-2.78-3.32-4.36-6.47-3-3.5,1.47-6.57,1.43-9.12-1.75-.82-1-1.9-1.61-3.09-.85-1.36.88-1.18,2.37-.79,3.68a7.15,7.15,0,0,0,8.85,5c5.33-1.32,8.17,1.17,11.2,4.45A17.92,17.92,0,0,0,662.64,446.61ZM246.09,237.44l.52.45a22.63,22.63,0,0,0,5.44,6.56l-.27-.21c.82.83,1.61,1.7,2.48,2.47,1.41,1.26,2.13,3.82,4.79,2.83a5.86,5.86,0,0,0,3.8-6c-.13-6.46-3.15-11.69-8-15.69-4.13-3.4-7.91-.17-11.74,1.31-6.31,2.43-12.43,3.36-17.55-2.56-.08-.09-.56.17-.86.27.89,3.73,7.29,10.76,9,9.56C238.37,233.05,242,236.8,246.09,237.44ZM508.44,708.65c.41-2.75.88-6.77-1.36-7.54-2.92-1-3.4,3.35-5,5.29-.11.13-.25.28-.25.43,0,1.23-2.53,1.9-1.08,3.25a3.94,3.94,0,0,0,4.66.77,31.48,31.48,0,0,0,3.21-2.36c-.73,1.12-1.55,2.2-2.16,3.38-2.23,4.39-5.85,8.48-3.13,14,.5,1-.15,3.29,2,2.58a2.45,2.45,0,0,0,1.29-3.78c-2.89-4.4-.48-7.7,2.23-10.89,3.07-3.6,6.44-7,9.35-10.68,5-6.34,4-11.55-3.08-15.4-4.37-2.37-5.48-4.84-2.89-9.24,3.65-6.21,2.64-12.39-1.16-18.18-5.05-7.7-17.51-9.32-23.68-3.18-.89.89-2.59,1.78-1.51,3.28.91,1.26,2.47.62,3.75.11a38.9,38.9,0,0,1,3.78-1.48c4.84-1.36,9.17-.72,13.29,3.64-2.83-.35-5.32-1.62-6.51,1.12-1,2.28-1.56,4.63-.4,7.27,2.07,4.75,5.79,1.76,9.07,1.82-.92,2.34-1.66,4.21-2.38,6.09-2.38,6.15-1.52,8.51,4.19,11.58,7.54,4.07,8.06,6.64,2.5,13.5A59.88,59.88,0,0,1,508.44,708.65ZM154.7,646.82c-5.31,3-4.12,8-3.57,12.49.69,5.66,3.67,10.49,7.24,14.89,1.75,2.15,1.92,3.44-1.35,3.83s-5.1,2.55-5.78,5.63c-1.76,8-1.59,15.84,2.25,23.26,3,5.88,9,7.4,14,3.17,2.62-2.26,3.57-1.61,4.83.91,3.89,7.8,11.5,9.29,17.93,3.51,1.88-1.69,3.63-3.53,5.51-5.22,2.31-2.06,5.57-3.17,7.78-1.39,3.09,2.49,6.08,3,9.76,2.8,4.25-.22,6.24,2.47,5.1,6.58a42.7,42.7,0,0,1-2.43,5.57c-1.52,3.38-.94,6.63.79,9.73.9,1.62,1.94,2.35,3.24.13,4.43-7.58,9.24-15,13.36-22.71,5.56-10.45,9.49-22.27,8-33.57C238.71,656.28,230,638,217.43,621.71c-5.26-6.79-12.53-10.62-19.55-15-8-5-9-14.06-2.63-19.67,1.74-1.52,3.57-1.75,4.93-.24,1.62,1.8-.13,3.29-1.61,3.92-2.43,1-2.87,4.72-4.69,4.82-3.46.19-1.38,1.9-.94,2.47,2.7,3.46,7,2.94,9.1-.93,1.2-2.17,1.11-4.53,1.21-7.29,4.69,2.32,9,1.18,13.13-1,2.5-1.3,2.35-3.95,1.56-5.65-1.11-2.39-3.43-.27-4.16.53-3.91,4.25-6.9,2.79-10.08-.85-1.84-2.09-4.34-3.8-7.2-2.4-6.48,3.16-9.59,8.82-10.55,15.74-.85,6.05,2.25,9.94,7.25,12.75,3.69,2.07,7.46,4,11,6.38,16.81,11.36,26.13,27.93,32.13,46.76,3.29,10.32,3.37,10.49-6.48,13.76-14.6,4.84-26.91,12.73-35.27,25.88a40,40,0,0,1-7.26,8.93c-3.55,3.12-6.57,3.07-9.6-.41-1.77-2-3.42-4.19-5.19-6.24-1.89-2.21-3.64-3.94-5.37.34-1,2.53-2.8,4.68-6.12,4.38a7.64,7.64,0,0,1-6.61-4.82c-2-4.27-2.18-8.85-2.12-13.44.11-8.79,2.08-10.66,10.79-10.56a1.8,1.8,0,0,0,2-1.24c-8.87-8.63-15.83-18.35-10.5-31.94,4.57-2.56,9.16-3.39,13.91.49-.71-4-3.19-5.19-5.92-4.92C159.47,642.57,155.68,642.5,154.7,646.82ZM586.32,341.88c-6.16,8.47-10.7,10.84-15.78,7.71a33.14,33.14,0,0,0-12.32-4.3c-9.17-1.47-18.39-1.44-26.83,3.42-1.55.89-3.62,2.21-2.52,4.29,1,1.83,2.71.26,4-.33,11.31-5.16,22.5-4.91,33.92,0,10.25,4.38,16.78,1.83,22.5-7.85,2.92-4.94,5.64-10,9.25-14.55,2.86-3.59,3.39-7.39.31-11.11-4.86-5.87-6.63-12.72-7.28-20.16-.48-5.42-1.89-10.82-6.21-14.64-7.37-6.53-17.84-2.06-20.81,8.83-1.12,4.07-1.81,8.26-3,12.3s-1.81,9.17-7.06,10.27-7.52-3.34-9.86-6.64c-6.14-8.69-14.28-11.29-24.41-9.34-2.63.51-5.49,1.2-8.56-.76,28-18,58.13-29.78,89.83-37.86-14.15.45-27.49,4.63-40.2,9.68-18.2,7.23-35.85,16-52.13,27.17-1.15.79-2.47,1.65-3.7.64-1.62-1.31-.42-2.87.36-4.05,4-6.08,9-10.93,16.44-12.71,3.43-.82,7-1.34,10.21-3,5.82-2.89,7.51-7.73,4.28-13.24-.58-1-1.73-1.77-1-3.13,3.27-6.47.52-12-3.23-16.91-2.23-2.93-1.42-4.43.67-6.77,8.05-9,19-12,30.08-14.57,8.39-2,17-2.9,25.14-6,.78-.29,1.9-.38,1.85-1.34,0-.67-.77-1.41-1.36-1.93-1.74-1.57-1,.91-1.68,1.11-1.13.3-2.23.71-3.35,1.07-13.1,4.22-27.14,4.9-40.4,11.33,11-13.08,25-21.35,37.63-31.37a1.92,1.92,0,0,0-2.8-.19c-18.42,10.24-33.63,24.25-46.9,40.44-2,2.42-3,3-5.39.58-3.84-3.81-8.23-7.05-12.09-10.84-2.73-2.68-4.89-2.62-7.88-.38a151.3,151.3,0,0,0-21.9,20.35c-1,1.14-1.74,3.87-4.24,2.09-2.1-1.5-.85-3.21-.12-4.93,5.07-12,7.22-24.83,8.38-37.52a174.88,174.88,0,0,0-.81-39.65c-.11-.83.37-2-1.27-2.48-1.33,9.32-.62,18.6-1,27.82-.67,16.46-2.22,32.72-7.55,48.44-.91,2.69-1.64,4.37-4.69,1.81-2.33-2-5.35-2.84-8.37-3.45-5.7-1.15-6.54-.56-6.57,5.38-.15,28.88-13.29,51-35.45,68.47-2.84,2.23-6.05,4-9.3,6.07,2.31,1.6,3.62,0,4.94-.72,5.37-2.91,10.16-6.67,15.1-10.23,13.33-9.63,20.37-23.47,25.81-38.36a74.29,74.29,0,0,0,4.17-19.77c.34-4.35,2.2-4.92,6-2.6a20.36,20.36,0,0,1,7.77,7.72c2.43,4.48,4.59,4.29,7.92.33,4-4.76,8.25-9.34,12.65-13.73,1.29-1.27,4-4.16,4.49,1,.19,2.22,1.79,2.21,3.37,1.46,3.1-1.47,6.2-1.3,9.41-.42s6,.48,6.73-3.95c.89.78,1.37,1.22,1.86,1.64,8.3,7.13,12.56,11.18,7.12,23.07-.8,1.75.13,3.22,1.88,4.14,3.87,2,4,4,.19,6.34a16.43,16.43,0,0,1-6.51,2.7c-6.15.61-10.77,4.56-16.17,6.61-5.17,2-6.15,6.19-7.87,10-2.33,5.19.22,8.89,5.93,9.57a50.9,50.9,0,0,0,14.16-.41c7.17-1.14,12.92.65,16.93,7.25a33.14,33.14,0,0,0,9,9.58c4.82,3.45,9.93,2.48,14.1-1.69,4.57-4.56,6.47-9.87,6.72-16.18.09-2.57.7-6.67,2.21-7.28,2.86-1.16,2.64,3.5,4.8,4.74.83.48,1.27,1.58,2,2.27,2.12,2,5.86,1.28,6.59-1.44a6.69,6.69,0,0,0-3.43-8.17,45.43,45.43,0,0,0-4.75-1.75c-1.06-.42-2.39-.66-2.64-2.06a1.55,1.55,0,0,1,.64-1.23c1.56-1,2.43.31,3.48,1.1.77.57,1.18,1.75,2.45,1.49,1.34-1-1.55-2.53.77-3.52,3.28,3,4.81,6.94,5.78,11.34,1.67,7.54,1,16,7.8,21.72,1.12.95,1.12,2.73,1.29,4.29.54,5-3.67,7-6.42,11.09-.36-3.87-.51-6.71-.93-9.5-.19-1.27-.56-2.72-2.38-2.84a2.9,2.9,0,0,0-3.38,2.4c-.91,4.71-3.16,8.92-4.7,13.39-1.2,3.48.48,5.24,4.11,4.64A34.65,34.65,0,0,0,586.32,341.88ZM383.2,239.71c.17,2.13.33,4.27.5,6.4.89,10.94,1.7,21.9,2.72,32.83.39,4.07-.77,4.59-4.48,3.19-8.3-3.13-12.76-.91-16.8,7-1.71,3.36-.67,6.62-.93,9.92s1.34,7.85-1.29,9.55c-2.22,1.43-4.94-2.62-7.53-4.07-9.72-5.45-19.14-1.25-22,9.5-2.08,7.89.41,15.08,2.33,22.38,2.41,9.11,6.7,17.75,7.22,27.31.31,5.58,0,11.27-3.91,15.87-1.86,2.16-4.36,3.48-7.24,2.63s-3.33-3.27-3.62-6c-.76-7.34-7.11-10.85-13.66-7.61-4.83,2.38-6.1,7.44-8.3,11.76A1.12,1.12,0,0,0,307,382a1.36,1.36,0,0,0,1.66-.83c.45-.89.6-2,1.11-2.81,2.1-3.58,4.62-7.05,9.26-6.7s4.14,4.64,4.95,7.8c1.57,6.12,6.09,8.91,12.22,7.59,4.56-1,7.47-3.95,9.15-8.05,4.85-11.88,4.07-23.61-1-35.3-3-7-4.82-10.33,2.44-15.8a9.52,9.52,0,0,0,1.73-1.85c2-2.63,4.51-2.36,6.71-.72,2.49,1.84,1.48,4.41,0,6.31-1.74,2.26-4,4.11-6,6.2-.81.85-3,1.27-1.67,3,1.09,1.37,2.91.94,4.14-.11,2.17-1.88,4.2-3.93,6.26-5.94,5.49-5.39,5.09-10.1-1.28-14.56-1.49-1-3.07-1.65-3.91-3.68-1.79-4.31-4.41-8-10-8,4.7-1.77,8.74-.82,12.06,2.8,3,3.25,5.83,6.61,9.4,9.23,1.78,1.3,3.35,3.88,6.1,1.81,3.14-2.37.59-4.08-.89-5.73-2.44-2.71,1.24-4.57,1-7.14-.1-1,2.6-.05,4,.34a28.86,28.86,0,0,0,5.37,1.33,4.22,4.22,0,0,0,3.71-2.31c.6-1-.42-1.7-1.16-1.82-8.59-1.39-8.37-10.49-13.26-15.1a1.6,1.6,0,0,1,.1-2.3c.79-.85,1.54-.3,2.22.23,1.43,1.13,1.8,2.82,2.27,4.44.37,1.3.53,3.11,2.34,2.71,4.18-.91,6.08,2,8.4,4.43,2.53,2.65,5.67,2.33,7.52-.7a6.63,6.63,0,0,0,0-6.38c-3.08-6.64-2.76-13.79-3.35-20.78A229.05,229.05,0,0,0,383.2,239.71Zm13.73,470.87a3.81,3.81,0,0,0-1.25,3.53,73,73,0,0,1-.82,16.18c-.3,1.62-.45,4.05-3,4.18-1.87.1-3.9-.22-4.6-2.34-.53-1.59-1.41-1.61-2.71-1.34-2.93.6-5.67-.8-8.55-.84-1,0-2.3.2-2.45-1.13-.07-.66.63-1.51,1.17-2.1q7.46-8.22,15-16.36c1.14-1.23,2.47-2.29,3.57-3.56a1.88,1.88,0,0,0,0-2.75c-1.07-1-1.86-.15-2.53.62-2.48,2.82-5.66,3.52-9.21,3.15-7.48-.76-13.59,1.45-18.23,7.67a38.76,38.76,0,0,1-6.56,6.29c-8.42,7-15.61,14.45-14.12,26.92.55,4.62-3.47,7.59-7.33,9.51-3.67,1.82-6.8.21-9.37-2.78a13.67,13.67,0,0,0-3.22-2.44,1.39,1.39,0,0,0-1.34.23,1.59,1.59,0,0,0-.16,1.35c1.65,5.3,11.32,10.23,15.53,7.06,5.79-4.36,5.5-.65,5.79,3.3.08,1,.24,2,.4,3,.57,3.57-.78,5.51-4.54,5.63a38.47,38.47,0,0,0-6.07.54c-8.1,1.52-15,4.79-17,13.72a42.45,42.45,0,0,0-.68,16.36c.8-9.87.61-20.55,11.95-24.78,6.31-2.35,13.33-4.26,20.45-.38,1.23-5.68.44-11.57.55-17.42.22-11.49,7-18.92,16.2-24,7.62-4.22,15.53-2.28,23.63,1.58-15.65,4.58-23.33,10.53-22.67,17.49,2.89-1.88,3.9-5.17,6.19-7.38,4.16-4.06,9.17-5.25,12.78-3,1.5,1,2.35,3.71,4.4,2.8,2.24-1,.74-3.66,1.18-5.53.15-.65.25-1.3.35-1.84,2.36-1,5.83,4.62,6.9-1C398.48,731.05,399.58,721.17,396.93,710.58ZM505.48,446.24c3.91-1.5,7.45-2.37,10.94-1.3,4.32,1.32,8.8,2.35,12.25,5.79a7.5,7.5,0,0,0,8,1.86c2.94-1.09,2.62-4.06,3-6.49.28-1.84.34-3.71.46-5.57.65-10.12,1.46-20.23,1.88-30.36.2-4.86-.63-10.34-5.54-12.22-7.09-2.7-12-6.49-15.71-13.44-3.45-6.43-11.06-7.83-18.24-8.15-8.7-.38-16.34-2.94-21.38-10.61-1.9-2.89-3.53-2.53-5.46-.09a224.19,224.19,0,0,0-20.93,31.14c-.35.63-.84,1.49.53,2.1,1.55-2.63,3.05-5.25,4.63-7.82a111.74,111.74,0,0,1,13.31-17.9c2.34-2.51,4-3.49,6.7-.25,5.19,6.26,12.41,8.62,20.24,9.19A31,31,0,0,1,511,384.77c3.45,1.58,7.68,3.39,6.92,8.25-.7,4.5,3.14,8.3,1.37,12.85-.34.86,1.15,1.52,1.72,2.31,3.12,4.26,9.07,6.43,8.79,13.12,6.39-3.89,6.39-3.89,3.6-9.43s-4.23-7.06-9.7-10.33c-.21-.13-.26-.54-.39-.83,7.85-2.26,14.27,2.34,14.52,10.22.3,9.64-1.77,19.16-1.2,28.81a29.1,29.1,0,0,1-1,7.54c-.26,1.29-.42,2.36-2.61,1-6.44-4.07-13.45-7-21.31-6.93-8.15.05-15.56,5.2-17.25,13.12-1,4.52-2.57,4.75-6.49,3.86-12.63-2.88-24.86-2-36.12,5.17-2.16,1.38-4.36,2.74-5.14,5.37-.7,2.35.6,3.94,2.45,5.05,1.56.94,2.42,0,3.13-1.41,3.27-6.49,14.29-10.61,20.59-7.64,1.87.88,3,3.3,5.54,2.87,1.17-2.59-2.3-3-2.29-5.41a12.12,12.12,0,0,1,3.4-.25c4.6,1,9.4.72,13.88,2.77,3.43,1.56,6-.2,5.61-3.11-.89-5.92,0-7.37,5.75-8.76,1.79-.43,3.95-.34,4.5-2.59C509.85,447.78,507.12,447.76,505.48,446.24ZM305.22,417.3c-6.37.37-7.33-3.11-7.28-7.43a33,33,0,0,0-.06-4.56c-.42-3.28-2.09-6.15-5.41-6.5-5.71-.6-7.26-4.07-7.66-8.93-.29-3.54.16-7.13-.93-10.6-1.84-5.89-7.16-8.78-13.08-7a16.39,16.39,0,0,0-10.41,8.32c-2.21,4.38-4.16,8.88-6.28,13.3-.85,1.77-1.67,3-4.27,2-6.27-2.53-11-1.13-15.27,4s-3.41,9.84,2.26,13.09a57.47,57.47,0,0,0,11.67,4.95c24.36,7.48,33.9,29.59,22.46,52.26-1.76,3.49-4.23,6.62-7.18,11.17a19.38,19.38,0,0,0,8.13-7c17.37-24.66,3.16-55.22-24.78-62.58a23.39,23.39,0,0,1-5.26-1.75c-1.83-1-4.54-1.79-4.23-4.46.29-2.44,2.23-4,4.55-5.06s4.07-.54,5.74,1.46c2.61,3.15,5.11,2.77,7.28-.67,1.35-2.14,2.8-4.22,4.26-6.29,2.93-4.17,3.76-9.44,7.13-13.41,1.82-2.14,5.06-4.86,6.47-3.51,2.37,2.28-1,4.17-2.62,6.27s-4.34,5.44-1.85,8.66c2.34,3,5.26,2.38,7.92-.08,2.26-2.09,3.36.38,4.52,1.45,3.44,3.21,6.26,7.23,11.65,7.44,1.67.06,2,1.55,2.2,3a22.13,22.13,0,0,1-.11,7.57c-.29,1.74-2.53,4.08.56,5.19C298.16,418.5,301,421.92,305.22,417.3Zm172.1,114c-.5,3.71,3.06,9.07-3.77,10.06-.3,5.47-5.07,5.73-8.64,7.13-6,2.36-12.25,4.14-16.43,9.51-.77,1-1.42.42-2.19.29-3.33-.55-6.47.34-7.71,3.44a9.93,9.93,0,0,0,2.15,10.87,4.18,4.18,0,0,0,5.12,1c1.92-1,1.53-2.74,1.13-4.46-.28-1.21-1.59-2.27-.68-3.76,5,7.7,5,7.7,15.53,10.58a57.7,57.7,0,0,0-4.1,4.39c-.69.89-3.3,1.93-1.49,2.86s3.65,4.28,6,1.57c3.6-4.1,4.44-1.22,5.45,1.78.55,1.6,1.06,3.21,1.62,4.81.65,1.82,1.63,3.72,3.68,3.75s2.94-2,3.6-3.74c.34-.93.54-1.91.84-3,.76,7.92-5.5,13.3-14.53,13.37-6,.05-10.69-2.93-15.63-5.35a9.27,9.27,0,0,0-6.29-.57c-1,.19-2.21.24-2,1.68a2,2,0,0,0,2.19,1.72c4.51,0,8,2.49,11.51,4.84,6.27,4.21,12.83,4,19.39,1.31,7.71-3.16,12-11.72,10.57-20a18.32,18.32,0,0,0-16.94-15.23,31,31,0,0,1-7.94-1.53c-5.24-1.82-5.92-6.17-1.52-9.53a40.79,40.79,0,0,1,6.16-3.49c6.42-3.37,13.33-6,17.32-12.73C482.54,538.22,481.76,533.81,477.32,531.32ZM354,541.86c2.07,2,3.67.86,5.17.53,8.54-1.89,15.61-6.68,21.95-12.29,10.68-9.45,12.84-22.52,12.95-35.78,0-4.6,1.76-8.15,3.17-12,.57-1.56,2-2.08,3.8-1.6,3.56,1,4.95,3.28,4.6,6.83-.46,4.54-1.36,9-1.15,13.65a10.86,10.86,0,0,0,7.89,10.5c6.34,2.05,11.85-1.24,17.58-2.8,4.12-1.13,3.74-.35,7.14.71s4.36,3.95,6.55,5.83c3.94,3.37,8.29,6,13.63,6,1.69,0,4.49.27,4.63-1.87s-2.6-1.5-4.1-1.76c-6.72-1.14-11-5.09-13-11.44-1.89-6.13-2.65-6.75-9.09-6-3.09.36-5.81,1.77-8.65,2.85-3.16,1.19-6.26,2.57-9.76,2.55-5.42,0-7.73-2.57-7.06-8,.44-3.52,1.77-6.89,1.66-10.51-.2-6.85-4.4-11.38-10.91-11.63-6.12-.24-10.57,3.74-11.24,10.67-.53,5.38-.15,10.86-.69,16.24-1.71,17-10.77,28.74-26.19,35.72C360.1,539.53,357.19,540.58,354,541.86ZM123.76,247.76c-3.29.28-5.9-.72-8.65-1.68-5.42-1.88-11-3.3-16.54-4.83-1.74-.48-3.55-.38-4.21,1.66s1.17,2.52,2.49,3.2c3.48,1.81,7.26,2.77,11,3.93S116,251.15,117,256c1.12,5.13-2.31,8.13-5.86,10.92A40.06,40.06,0,0,1,108,269.4c-6.2,3.9-8.42,9.94-9,16.78a48.36,48.36,0,0,0,1.29,14.64c.66,2.87,1.31,6.25,5.93,7.6-4.26-9-3.83-17.66-2.37-28.22,1.15,6.83,4.23,4.78,6.92,3.56,2.3-1,4.32-2.79,6.69-3.56,7.71-2.49,13.06-7.22,14.58-15.32.71-3.8-.82-7.61-3.28-10.48s-3.31,1.89-6.29,2.3C124.66,253.52,121.16,250.66,123.76,247.76ZM322.39,647.27c8.56-5.39,14.58-12.9,18.94-21.88,3.1-6.37,5.32-13.2,9.73-18.92,4.88-6.33,10.3-7.74,17.42-4.39,9.35,4.4,13.07,16.18,8.44,26.07-3.11,6.66-8.76,11.61-11.95,18.21-2.47,5.11-1.33,9.21,2.82,12.92,7.52,6.73,17.13,6.63,26.1,8.5,2.16.45,4.6,1.87,7.22.6-1.13-2.47-3.12-3-5-3.63a102.26,102.26,0,0,0-13.86-3c-13.78-2.53-15.91-8.4-7.1-19.1.53-.65,1.08-1.3,1.59-2,5.47-7.28,8.57-15.27,7.83-24.58-1-12.64-11.58-22-23.8-20-8.87,1.38-13.94,7.82-17.05,15.72S337.8,627.56,333,634.66C329.89,639.26,325.49,642.71,322.39,647.27Zm-192-151.17c7.31-1.12,8-.64,15.35,9,.88,1.16,1.53,3.62,3.76,2.41,1.9-1,1.08-3,.63-4.59-2.13-7.62-9.88-13.14-18-12.88-8.44.26-16.34,6.67-18,14.57-1.66,8.07-1.66,8.07-9.94,7.52C96.93,511.68,93,515,92.58,522.32c-.2,3.72.51,7.43.67,11.13.29,6.81,3.74,14.91-7.55,18.63,5.06,1.17,7.41.06,9.27-3.12,2.91-5,2-10.12,1.34-15.32-.21-1.59-1.12-3.68,1.35-4.17,3.09-.62,3.8-2.65,4.49-5.33.75-2.85.08-5-2.76-7.46a51.15,51.15,0,0,1,6.12.37c9.86,2,12,.64,13.69-9,.21-1.28.5-3.67,2-2.61,3.89,2.87,7.94-.3,11.67,1,4.7,1.61,3-4.51,6.07-4.83-1.34-2-2.22-4.49-4.95-5.1A29.18,29.18,0,0,0,130.43,496.1Zm94.28,77.45c2.76-2.25,2.28-3.9,2.2-5.3-.57-10-1.25-19.9-1.89-29.85-.2-3.23.33-6.63,3.48-7.8s4.51,2.06,5.91,4.35a5.78,5.78,0,0,0,.86,1.25,4.72,4.72,0,0,0,4.12,1.55c1.63-.35,1.68-2,1.78-3.32.26-3.31,2.32-6,3.23-9,1.28-4.35,4-4.89,6.68-1.12a75.37,75.37,0,0,0,10,11.35c3.81,3.56,7.76,7.1,13.64,4.9,1.12-.42,3-.2,2.85-2.22-.13-1.5-1.61-1.59-2.7-1.89a25.72,25.72,0,0,1-11.31-6.52c-3.18-3.09-5.57-6.77-8.17-10.32-5.81-7.94-11.18-7.39-15.34,1.33a28.29,28.29,0,0,0-1.46,3.23c-.8,2.57-1.66,3.4-4.66,2-6.55-3.16-12.6.21-13.21,7.49C219.63,546.82,224,559.51,224.71,573.55Zm401.53-34.3c3.11,1,5.24-.9,7.22-2.53a47.76,47.76,0,0,0,8.19-9c4.14-5.7,5.77-11.71,3.3-18.59a26.76,26.76,0,0,1-1.46-6.92c-.59-7.51,2.9-10.05,9.93-7.54,4.13,1.48,8.32,2.82,12.51,4.12,1.1.34,2.45.54,3.13-.82a2.3,2.3,0,0,0-1.26-3.37c-6.92-2.47-13.35-6.88-21.19-5.86-4.3.56-7,3.09-7.92,7.39-.38,1.7-.1,3.78-2.82,4.84a31.37,31.37,0,0,0,.51-9.28c-.2-1.37-.64-2.76-2.2-3.09a3,3,0,0,0-3.3,1.79c-.56,1-1,2.12-1.49,3.16,1.49,1.15,3.73-.35,5,1.49-2,1.11-6.15-.25-5.82,2.79.44,4.13.29,8.51,2.49,12.47,1.66,3,1.33,3.17,9.83,7.23v-7.13C644.5,525.27,633.56,530.88,626.24,539.25ZM213,79.17c5.6-1.68,7.11-5.17,7.09-9.85,0-2.22-1-5.24,2.25-6,5.19-1.28,8.86-4.71,12.7-8,3.14-2.72,5.82-2.78,8.06,1.35,1.18,2.18,2.73,5.15,5.3,5.1,8.9-.16,11.64,4.38,10.66,12.41a2.64,2.64,0,0,0,.14,1c.85,2.83,2.62,3.51,5,1.77a7.59,7.59,0,0,0,3.24-5.49c.78-7.67-3.93-12.78-11.92-12.64-3.58.06-7.47.89-7.69-4.61-.2-5-3.09-8-7.64-9.48s-7.89,1-10.79,4-6,6-10,7.62c-4.5,1.79-5.45,4.92-4.22,9.39A15.38,15.38,0,0,1,213,79.17ZM408.59,627c4.63,2.8,7.88,0,11.06-2.22,3.58-2.52,6.76-5.63,10.37-8.12,4.13-2.83,8.52-1.3,10.14,3.4,1,3.06,1.91,6.21,3.92,8.76,3.12,4,6.57,7.72,9.68,11.72,4.09,5.24,4.29,10.32.88,16a21.1,21.1,0,0,1-8.75,8.17c-4.56,2.33-9.47,3.63-14.23,5.38-1.27.47-3,.92-2.65,2.5s2.2,1.16,3.53,1.08a41.57,41.57,0,0,0,11.81-2.81c10.34-3.79,17.31-12.67,17.35-21.61,0-6.36-2.82-11.37-7.07-15.77-4-4.15-7.9-8.25-9.83-14-3.34-9.84-12.32-11.79-20.15-4.52C419.76,619.55,415.75,625.22,408.59,627Zm99.5-143.25.7,1.42c4.75-.56,8.64-3.49,13-5,1.75-.62,3.05-1.3,4.06,1.06,4.45,10.28.78,24.93-8.37,32-2.45,1.89-2.38,3.35-.41,5.3,1.43,1.42,2.81,2.88,4.19,4.34,2.82,3,5.06,6.4,5.63,10.58.49,3.51-.5,5.68-4.75,4.73-3.6-.81-7.27-1.35-10.91-2-1.06-.19-2.08-.13-2.52,1.08s.27,1.93,1.19,2.48c3.05,1.82,6.07,3.77,9.67,4.27,9.07,1.26,13.53-3.45,11.93-12.5a18.3,18.3,0,0,0-4.28-9.05c-2.46-2.81-4.69-4.58-1-9.31,8.43-10.82,6.65-23.54,3.46-36-.45-1.73-1.63-3.68-3.49-2.8C520.06,477.23,514.11,480.56,508.09,483.72ZM235,295.42c7.18,4.26,10,3.29,12.89-3.86.56-1.39.7-3.33,1.72-4.09,2.41-1.78,2.59-1.55,2.35-3.51-.12-1-.36-2-.42-3-.22-4.07,2.23-5.38,5.77-5.28,3.35.09,5.25,1,4.12,5.22-1.62,6.07,1.1,11.57,3.65,16.91.79,1.66,2.13,2.6,4.55,1.13a12.85,12.85,0,0,1-4.17-6.79c-1.6-6.71-2.8-13.31,2.63-19.12a2.69,2.69,0,0,0,.06-3.73c-.51-.53-1.38-.75-1.8-.14-2.33,3.32-5.41,1.64-8.34,1.47-3.2-.19-5.82,1.2-8.14,3.41-3.43,3.28-4,7.64-4.9,11.94-1.72,8.52-2.71,8.93-9.71,4.19-.14-.09-.27-.21-.41-.3-1.19-.73-2.59-1.39-3.82-.66-1.67,1-.41,2.37,0,3.57,2,6.09,1.76,6.39-4.87,6.59-5.32.17-9.38,2.92-9.46,7.94-.1,6.25-2.94,6.31-7.45,4.79-1.91-.65-4.24-.65-5.73-1.79-2.41-1.85-3.48-.3-4.33,1.24-1,1.83,0,2.76,1.91,3.7,5.65,2.71,11.58,1.64,17.41,1.79,3.66.09,5.15-1.61,2.75-5.1-1.69-2.46-2.12-5.18-.3-7.55a6.67,6.67,0,0,1,7.16-2.7C232.78,302.78,235.36,301,235,295.42ZM213.77,785.78c-12.39,7.18-16.13,20-23.07,30.28-2,3-.9,6.64,1.85,9.22a8.35,8.35,0,0,0,9.86,1.56c5.71-2.67,9.72-10.47,8-16.45a18.13,18.13,0,0,1,.48-10.89C212.24,795.22,214,791,213.77,785.78ZM192.19,666.39c.84,1.7-1.51,5.06,1.52,6.32,2.78,1.15,4.28-2,6.28-3.42,4.86-3.41,9.8-6.64,15.76-7.89,1.31-.27,3.66.33,3.37-2-.25-2.09-2.4-1.5-3.79-1.42a27.11,27.11,0,0,0-15.73,6.24c-2.11,1.72-3.41,1.84-3.62-1.57-.31-4.9-2.11-9.28-6.23-12.27-2-1.47-1.11-2.71-.31-4.28,4-7.87,5.92-16.53,9-24.74.77-2,1.08-4.29-1.27-5.27-2.62-1.09-2.83,1.8-3.6,3.13-5.53,9.5-9.46,19.9-16.22,28.7-.62.8-1.36,1.69-.56,2.71a2.32,2.32,0,0,0,2.8.51c3.29-1.19,6.14,0,8.44,2.07C191.69,656.56,192.43,661.08,192.19,666.39ZM166.48,763c-.22-1.84-3.89-3.31-1.13-4.64a14.88,14.88,0,0,1,9.34-1.61,3.25,3.25,0,0,1,2.44,2.37c.38,1.24-.52,1.67-1.52,2.18s-3.94,1.08-2.26,2.71c2,1.9,4.44,6.27,7.13,4.12,3.13-2.5,5.19-1,7.81-.51a40.8,40.8,0,0,0,5.47.91,2,2,0,0,0,2.34-2.06c0-1.36-.95-1.6-2-1.75s-2.34-.34-3.5-.56c-4.62-.88-8.85-1.95-10-7.71-.52-2.67-3.28-3.93-6-3.69a37.58,37.58,0,0,0-7.38,1.62c-8,2.43-12.91,8.25-13.28,15.46-.41,7.86,3.51,13.79,11.91,16.84,2.7,1,2.86,2.16,2.71,4.55-.34,5.38,1.65,9.52,6.18,13s10,2.89,14.44,5.83c1.49,1,1.58-1.18,2.14-2,.82-1.23.13-1.89-1.09-2.05-2.18-.28-4.4-.32-6.55-.73-9.75-1.84-14-7.6-12.51-17.14.4-2.47-.43-2.72-2.48-3.08-5.6-1-10.13-3.62-12.19-9.36-1.38-3.85.88-6.87,2.93-9.3C161,764.6,164.06,764.1,166.48,763ZM330,660.81c4.39,3,9-.64,12.7,2,3.46,2.41,7.2,2.44,11.19,1.81,2.8-.44,6.08-1.48,8.45.28,5.09,3.78,10.79,6.72,15,11.74s8.93,9.2,13.52,13.69c.85.83,1.79,2.59,3.3,1.31,1.35-1.15.41-2.5-.57-3.52-8.64-9-17.22-18.07-26-26.9-2-2-4.62-3-4.82-6.54-.11-1.8-.77-4.91-4-3.86-2.72.88-5.21,3.51-4.05,6,1.35,2.87-.56,2.73-1.71,3.54-4.47,3.13-8-.39-11.09-2.36C336.68,654.55,333.84,657.71,330,660.81ZM101.87,224c3.71,3.87,6.86,3.33,9.88.29,4.07-4.09,5-9.06,3.67-14.52-.85-3.63-1.7-7.19-.5-11,.81-2.56,2-5,4.44-5.83s3.84,1.75,5.07,3.35c4.69,6.08,10.87,7,17.68,5.21,3-.8,4.89-.64,6.63,2.38,2.58,4.49,7.21,4.71,11.68,4a3.73,3.73,0,0,0,3.34-4.37c-.47-2.55-2.44-1.66-4.06-1.36-3.35.61-6-.38-7.72-3.43-2.43-4.28-5.5-4.5-9.73-2.19-6.63,3.6-12.35,2.12-16.65-4.15-2.59-3.76-5.31-3.66-8.53-1.31-6.49,4.73-6.41,11.25-5.14,18.26C113.77,219.44,112,222,101.87,224Zm279,552.74c4.19,3.44,8.46,5.9,5.71,11.39A31.68,31.68,0,0,1,376,800.15c-4.44,3-9.88.27-9.95-4.69-.09-6-.09-6-6.28-4.07-8,2.53-9.37,1.9-12.12-6-.77-2.23-1.84-3-4.1-2.25-3.28,1.15-.09,2.57-.15,3.85,0,.62.46,1.25.61,1.91,1.84,7.89,5,9.75,13.09,8,2.47-.53,5.09-1.15,6.14,2.58.9,3.17,3.76,4.56,6.75,4.41,8.47-.43,12.9-6.68,17.21-12.82,3.18-4.52,3.21-9.13-1.17-13.52,6.57-2.16,12.81-3.78,17.33-8.81,4.09-4.54,5.09-10.15,2.35-14.93-2.22-3.89-5.31-4.83-9.24-2.39,1.07.29,1.81.54,2.58.7,6.17,1.28,8.63,6.4,5.43,11.76a22.48,22.48,0,0,1-7.74,7.86C392.12,774.52,386.83,774.84,380.9,776.69ZM321.61,187.74c-.14-8.93-5-15.58-15.47-11-4.16,1.8-8.19,4-12.76,4.84-1.22.22-3.74-.75-3.31,1.7.29,1.67,2.51,1.17,4,1.2,4.12.09,8.16-2.39,12.42,0,1.44.79,1.69-1.05,1.92-2.22.39-2,1.85-2.74,3.7-2.78s2.6,1.29,3.17,2.79c1.35,3.52,2.19,6.8.54,10.74-2.5,6-.12,12,1.24,17.91.13.55.86,1,1.38,1.42,2.34,1.83,14.63,2.63,17.18,1.13,1.18-.7,2.5-1.54,2-3.12s-2.05-1.85-3.38-1.7c-2.85.32-5.65,1-8.5,1.36-2.05.26-4,.2-5.17-2.14-2.2-4.52-3.55-8.94-.36-13.65C321.37,192.46,321.55,190.32,321.61,187.74Zm-48.18-31.55c-8.88-.77-11.52,5.59-15.28,9.92-1.89,2.19,1.86,4.17,2.28,6.6,1.17,6.77,6.6,9.71,12,12.43,1.67.84,4.46,1.86,5.45-.22.9-1.89-2.09-2-3.29-2.95-.65-.53-1.43-.9-2.1-1.41-4.19-3.19-7.85-7.06-7.29-12.6s6-5.05,9.79-6.51a4.59,4.59,0,0,1,.48-.17c9.55-3,10.61-7.34,3.53-14.63a24.44,24.44,0,0,0-3.46-3c-1-.71-2.29-2.07-3.4-.27-.79,1.28.3,2.17,1.27,2.92a19,19,0,0,1,2,1.59c1.68,1.71,3.66,3.61,2.45,6.14C276.78,156.29,274.26,156.24,273.43,156.19Zm-62.83,7.12c5-3.19,5.45-7.74,6.08-12.24,1.29-9.23-2.25-17.57-4.58-26.15-1.24-4.57,0-5.84,4.15-4.09,5.3,2.22,9.13.1,12.83-3.23,1-.9,2-1.83,2.94-2.79,1.32-1.33,4.15-2.77,1.52-4.66-1.79-1.29-5.69-2.15-6.7.69-2.21,6.18-6.27,5.41-11,4.35-3.29-.73-6.87-1.47-9.25,2-2.25,3.29-.45,6.16,1.43,8.83,4.9,7,6.28,14.81,6.12,23.12C214,153.9,211.69,158.1,210.6,163.31ZM209.46,368.2a18.7,18.7,0,0,0-8.76-11.81c-4-2.49-7.78.27-11.1,2.73-6.92,5.14-13.91,9.58-22.4,3-1-.74-2.08-.81-2.32.53-.18,1-1.44,2.47.13,3.13,3.94,1.65,7.45,4.38,12.45,2.7,5.2-1.74,10-3.9,14.1-7.52,1.81-1.6,3.51-3.38,6.18-2.61,5,1.45,8.56,9.21,6.59,14.32-1.6,4.14.43,8.72,4.64,9.29,5.47.74,11.12,0,16.4,2.3.66.29,1.83.33,2.08-.72a2.52,2.52,0,0,0-.71-1.78c-2.26-2.7-5.43-3.18-8.68-3.4-2.85-.19-5.93.59-8.43-1.14-3.46-2.38,0-5.21-.17-7.84C209.45,369.21,209.46,369,209.46,368.2Zm408.93,53.85c.88-.47,1.8-.88,2.64-1.43,3.85-2.54,3.84-2.55,5.85.73a.48.48,0,0,0,.4.16c4.15-.55,2.79,3.32,3.85,5.09s1.55,3.61,4.34,3.47c-1.77-5.6-3.42-10.87-5.1-16.12a2,2,0,0,0-2.72-1.53c-7.28,1.75-12.29-1.91-16.79-7a37.49,37.49,0,0,0-6.19-6c-3.7-2.61-8.94-.94-11.88,3.38-3.14,4.6,1.46,3.65,3.33,4.74.51.3.7,1.13,1.08,1.68,1.43,2.08,2.83,4.81,5.9,2.79,2.81-1.85,2.14-4.24,0-6.38-.59-.59-1.31-1.27-.38-2.09a1.72,1.72,0,0,1,2.33,0,7.89,7.89,0,0,1,2.4,2.53,12.42,12.42,0,0,0,7.26,6.73C619.21,414.66,621,417.14,618.39,422.05Zm-397.77,2.78c.31,1.41-.16,2.93,2,3.43,2.42.57,2.3,2.4.86,3.83-3.42,3.37-4.16,7.22-3.32,11.86.6,3.25,1.37,6.71-.32,10-2.05,3.95,1.59,5.19,3.62,6.63,2.25,1.6,4.07.46,4.55-2.5.37-2.22.89.15,1.24,0,3.67-1.17,7.26.19,10.88.2,1.83,0,4.57.83,4.57-2.39s-2.8-2.31-4.59-2.35c-3.42-.08-6.78-.28-10-1.62-6.73-2.85-8.16-8.44-4.58-17.69C228.12,427.69,227.64,426.75,220.62,424.83Zm81.14-148.74c.25-1.79.11-3.35-1.57-4.43-3.58-2.31-3.21-4.58-.12-7.11,2.53-2.08,3-4.73,1.5-7.72-2.46-4.83-13.72-9.43-18.9-7.78-3,1-5.83,2.58-9.06,3.17-3.81.7-5.74-2.67-8.86-3.91.66,5.11,4.31,8.29,8.57,8.08,3.48-.17,6.5-1.71,9.67-2.86a11.54,11.54,0,0,1,13,4c1.53,2.05,1.58,3.72,0,5.86C291,270.35,292.65,274,301.76,276.09ZM628,375.35c4.15-13,12.86-21,25.29-25.8,4.24-1.66,3.76-7-.41-9.28-4.49-2.42-10.37-3.23-8.23-10.92.48-1.73-2.33-3.51-4.68-3.84-1-.14-1.47.7-1.6,1.59-.87,6.06,3.11,13.19,8.73,15.79,1.16.53,2.86.66,2.89,2.41a4,4,0,0,1-2.42,3.56c-6.15,3.47-11.7,7.44-16.09,13.3C628.36,366.31,628.06,370.52,628,375.35ZM354.4,695.25c-1.66,13.87-15.26,17-20.91,27.08C354.15,723,361.69,707.69,354.4,695.25ZM501.71,92.82c2.13,1,3.63,1.7,5.18,2.29,4.44,1.7,9.26,2.58,10.52,8.59a4.55,4.55,0,0,0,5.78,3c2.85-.87,2.93-3.35,2.91-5.8-.06-4.82-2-8.63-6.5-10.54C513.56,87.76,507.57,87.11,501.71,92.82ZM327.42,833c2.25-5.54,5-6.69,7.6-3.55a21.51,21.51,0,0,1,4.31,10.57c1.2,10.41-7.61,16-17.4,12-1.11-.46-2.56-2.69-3.68-.15-3.75,8.41-10,9.72-18,6.71-1.21-.46-2.75-1.37-3.43.54-.83,2.3,1.38,2.62,2.63,2.79,6.6.92,13.35,1.31,18.24-4.31,2.39-2.75,4.82-2.92,8-2.58,4.94.53,9.35-.74,12.82-4.63,6.09-6.83,5.39-15.63-1.92-23.61-2.17-2.37-4.59-4.58-7.86-2.68C325.15,826.2,326.62,829.43,327.42,833ZM190.75,293c.16-6-1.22-7.37-6.38-6.88-5.88.56-11.4,4.68-12.9,9.92-.73,2.56-1.66,6.57.92,7.33,3.33,1,2.07-3.21,2.79-5.12,1.35-3.59,7.15-8.4,10-7.41,3.65,1.26,2,5.13,2.82,7.78a5.88,5.88,0,0,1,.15,2.44c-.29,2.36,4.34,10.1,6.59,10.76a2.53,2.53,0,0,0,1.84-.18c.63-.42.42-1.13,0-1.75-1.49-2.19-1.49-5-3.18-7.2A14.2,14.2,0,0,1,190.75,293Zm88.63,8.46c5.9,6.94,10.91,14.72,19.39,19.06,3.48,1.77,6.09.37,7.8-2.38,2.22-3.59,2.8-8.17,7.2-10.42.88-.45,1.27-2.67.24-4.54-4.29,1.37-7.79,3.6-9.95,7.78-2.87,5.56-4.3,5.76-9.06,1.33A68.43,68.43,0,0,0,279.38,301.44Zm291.4,107.25c8.49,0,9.34-1.33,6.26-9.08-3.37-8.51-6.54-17.09,2-24.71a2,2,0,0,0,.42-1.77c-.37-.95-1.28-.81-2.15-.57-3.24.88-9.08,8-8.66,11.1.67,5,.82,10.18,2.91,14.87,1.37,3.07,1.76,5.38-2,6.8-.92.35-2,1.1-1.73,2.23C568.17,409.13,569.65,408.65,570.78,408.69Zm-482.37-186c2,1.6,3.82,3.31,5.89,4.69a3,3,0,0,0,3.78-.32c.89-.91.22-1.89-.46-2.69-3.46-4.06-6.13-8.47-6.59-14a2.06,2.06,0,0,0-2.18-1.76,1.83,1.83,0,0,0-2,1.31c-1.52,6.53-4.71,12.89-2.7,19.82.9,3.15,2.1,6.42,6.07,7.44C88.29,232.42,85.67,228,88.41,222.65Zm516-83.82c-4-.14-7.35,1-9.77,4.28a3.1,3.1,0,0,0-.32,3.75,2.57,2.57,0,0,0,3.11,1c7.6-2.41,8.63-2.26,12.72,4.24,1.45,2.31,2.45,1.66,3.93.66a5.93,5.93,0,0,0,.76-8.86C612.15,140.84,608.86,138.49,604.43,138.83ZM578.55,499.89c4.62-1.48,7.22-5.9,6.62-11-.58-4.85-5.23-10.53-8.81-10.85a2.28,2.28,0,0,0-2.48,1.32,17.21,17.21,0,0,1-10.66,8.8c-.82.25-1.68.76-1.43,1.76.32,1.23,1.49,1.22,2.5,1.19,3.75-.13,6-2.86,8.56-5,1.44-1.22,2.38-3.71,5-2,2.2,1.47,3.44,3.85,2.53,6.13C579.09,493.4,579.5,496.69,578.55,499.89Zm93.75-5.13c4.54,3.24,8.22,1.6,11.66-1.07,5.11-4,6.5-10.05,8.55-15.72a1.74,1.74,0,0,0-.68-2.23,2.24,2.24,0,0,0-2.78.53c-3.2,3.54-7.3,5.32-11.82,6.36-1,.22-2.25.52-2.13,1.73a2.39,2.39,0,0,0,2.57,2c2.16,0,4.32-.17,6.17-.26C683.74,493.73,677.72,493.73,672.3,494.76ZM174.68,310.84c-4.7,1.8-7.37-.44-10.31-1.93-4.88-2.48-8.07-1.72-10.52,3.08-1.56,3-3.49,3.88-6.51,2.89-2.7-.9-5.12-.62-6.65,2s-1.85,5.12.07,7.6c.75,1,1,2.94,2.8,2.26,1.33-.5,1-2,.84-3.15-.59-4.11,1.24-5.31,5-4.21,3.06.9,4.84-.74,6.13-3.14,3.7-6.94,3.68-7,10.51-3.71C168.71,313.77,171.42,315.34,174.68,310.84ZM646.45,399c5.59-.55,9.75-3.79,13-7.88,2.18-2.74,7.09-6.38,3.26-9.64-3-2.55-5.71,2.66-8.1,4.94-3,2.88-5.24,6.57-9,8.74-1.19.68-3.74-.06-3.44,2S644.93,398.51,646.45,399ZM574.2,504.12c-.06,3.49,1.45,4.91,3.27,4.95,4.23.11,6.08,1.66,4.53,5.76,2,1.13,2.32-2.23,4.41-.85-2.83,4.31-2.2,7.79,2.51,10.44,2.72,1.53,2.67,3.55.05,5.43-.76.56-1.81,1.18-1.29,2.44a1.25,1.25,0,0,0,1.67.74c2.83-1.22,5.45-2.57,6.13-6.11.62-3.26-1.16-4.72-3.75-5.64s-3.56-2.28-3.13-5.3c.74-5.26-1.16-7.61-6.41-8.28A13.67,13.67,0,0,1,574.2,504.12ZM289,849.87a19.57,19.57,0,0,0-10.86,11.2c-.73,1.78-3.13,4.11-.6,5.83a6.73,6.73,0,0,0,8.08-.44A8.11,8.11,0,0,0,289,860C289.08,856.78,289,853.62,289,849.87ZM249.71,114.2c-.75.18-2.64,0-2.88,1.43-.32,2,1.65,1.77,2.9,1.85,8,.49,12.34,5.07,14.34,12.55.82,3,3.2,5.07,5.94,6.54a2.1,2.1,0,0,0,2.79-.22c.66-.79.09-1.67-.44-2.26-3-3.32-4.44-7.57-6.83-11.24C261.91,117.29,256.56,114.86,249.71,114.2Zm74.4,246.53c-.06-2-1.52-2.42-2.44-3.34-3.43-3.42-6.69-7-10.17-10.37-1.58-1.53-3.53-2.83-5.7-.66-1.06,1.06-1.9,2.33-.11,3.24,5.8,3,9.6,8.12,14.15,12.46.8.77,1.72,2,3,.92A6.91,6.91,0,0,0,324.11,360.73ZM298.94,99.56c-.11-.72-.26-2.21-.6-3.67s-1.17-2.89-3-2.93c-2,0-3,1.39-3.44,3.1a20.14,20.14,0,0,0-.2,8c.25,1.85,1.68,2.38,3.26,2.59a3.22,3.22,0,0,0,3.27-1.88C299.09,103.39,298.82,101.84,298.94,99.56ZM516.06,394.18c-.19-3.51-3.3-7.08-6.74-7.56a3,3,0,0,0-3.16,1.05c-.88,1.19-.34,2.26.49,3.2a14.66,14.66,0,0,1,3.47,5.53c.5,1.67,1.76,2.59,3.51,2S516.3,396.45,516.06,394.18ZM677.35,279.34c-.05-4.23-3.25-8-6.59-8-2.13,0-3.08,1-3.08,3.09,0,2.67,4.74,8.81,6.88,8.73C677.17,283.06,677.09,280.93,677.35,279.34ZM384.59,198c-1.6.91-4.51-.35-5.12,2.65-.37,1.85,5.81,6.59,8.74,6.79,2.57.18,3.13-2.12,3.07-3.67C391.15,199.9,388.29,198.52,384.59,198ZM646.4,247.78c.48,2.35-1.39,6.58,3.61,6.43,4.53-.13,2.94-4.14,3.16-6.61.26-2.94-1-5.67-4.38-5.55C645.08,242.18,646.33,245.26,646.4,247.78ZM535,438.27c-.57-2,.35-5.91-2.89-5.78-4.6.19-3.66,4.67-4.2,7.86s2,2.73,3.49,2.91C534.93,443.68,534.8,440.93,535,438.27ZM178.07,106.52c2.35,0,4.92-.53,4.76-3.25-.21-3.64-3.68-3.77-6.41-4.38-2.39-.54-4.34.42-4.34,2.8C172.08,105.39,175.42,105.68,178.07,106.52Zm366,377.29c1.3,6.53,4.41,9.24,9,8.75,1.87-.2,2.55-1.23,2.78-2.93.27-2-1-1.93-2.4-2.13C550.32,487.07,547.55,485.41,544.06,483.81Zm-300.75-268c-1.14-10.87-.72-21.74,0-32.6C241.89,194,239.24,204.91,243.31,215.77ZM546.72,475c-.16-4.76-2.61-7.53-6.27-9.46-1.07-.56-2.42-2.19-3.05.16-.33,1.22-.43,2.76,1.94,3.25,4.43.93,6.32,3.58,3.6,8-.67,1.09-1.15,2.56,0,3.13,1.56.75,2.29-.94,2.85-2.09A17.09,17.09,0,0,0,546.72,475ZM261.24,644.67l1.81.09c.37-6.71-.41-13.5,1.08-20.15.23-1,.21-1.91-1.39-2.06-1.85-.18-1.47,1.06-1.48,1.91C261.21,631.19,261.24,637.93,261.24,644.67Zm39.29-111c3.92-7.49,2.69-16.29,5.94-24C301.5,516.91,301.62,525.43,300.53,533.64ZM404.05,487.1c-.07-2-.28-4-2.8-4-2.8,0-3.6,2.14-3.71,4.52s.72,4.26,3.24,4.25C403.75,491.81,404,489.36,404.05,487.1ZM611.19,320.7c5.76-1.3,11.13-.21,16.63,2.87C625.38,316.56,616.85,315.48,611.19,320.7Zm-311-27.13c6.27-4.44,7.2-8.53,2.81-13.06C302.77,285.09,298.71,288.57,300.23,293.57ZM486.06,632.64c-4.34,5.24-9.74,9.94-11.2,16.81l1.33.75ZM315.82,340.79c2.12-1.29,3.92-3,4.23-5.67.12-1-.72-2.45-1.62-2-2.27,1.23-4.27,3.05-4.68,5.81C313.61,339.9,314.5,340.76,315.82,340.79ZM584,415c-5.37-.15-9.69-.84-13.13,2.91C574.85,417.12,579.3,419.24,584,415ZM303.15,387.37c-3.06,2.7-7,4.62-8.11,9C297.9,393.52,302.52,392.17,303.15,387.37ZM415.28,559.05A25.11,25.11,0,0,0,426,553C421.19,552.79,418.89,557.13,415.28,559.05ZM523,334.65l-15.61,4.19C512.81,338.36,518.34,338.24,523,334.65ZM509,167.06c4.72-3.07,5.33-7.32,3.62-13.62A27.71,27.71,0,0,1,509,167.06ZM195.83,875.9a29.5,29.5,0,0,0,3.29-11.32C195.29,867.5,194.14,870.58,195.83,875.9Zm34.08-385.76a35.34,35.34,0,0,0,2.67-16.23C231.56,480.11,230.74,485.12,229.91,490.14Zm80.35,194.2c3.17-3.29,4-6.21,4.3-10.33C311.28,676.9,310.12,679.68,310.26,684.34Zm82.85-347.53h-.29q-.36,6.12-.71,12.25h1ZM147.63,415.59c-.74,3.33,1,5.68,3.37,8.66C150.78,420.44,149,418.1,147.63,415.59Z"/><path d="M79.26,598.27c16-16.66,32.59-32.7,48.82-49.12,11.24-11.36,22.47-22.79,34.22-33.66-.41,11-3.06,21.72-5.14,32.48-4.41,22.76-9.6,45.37-13.74,68.18-2.44,13.46-3.53,27.17-5.12,40.78-2.38,20.32-3.59,40.74-5.11,61.21-4.4-42.85-8.43-85.72-16.77-128,1,20.71,3,41.32,5.4,61.92,2.45,21,4.55,42.08,6.17,63.17,1.61,20.9,3.11,41.84,1.93,63-.51-4.16-1.14-8.3-1.51-12.47-1.82-20.64-7-40.7-10.6-61-.8-4.55-3.17-8.53-5.91-12.25A17,17,0,0,1,108.54,679c.93-5.55,1.24-11.15-1-16.53-1.17-2.81-2.33-5.67-5.81-6.49a4,4,0,0,1-3-4.72c1.64-9.62-3-16.68-9.29-22.84s-6.57-6.21-2.88-14.48c1.55-3.46-.7-5.68-2.36-8.24S78.86,602.12,79.26,598.27Z"/><path d="M148.53,139.77c-13.81-12.22-25.72-26.36-39-39-3.36-3.38-5.69-6.85-4-12.2,1.31-4-2.2-8-1.67-11.79,5,5,9.1,10.88,16.53,13.88,6.69,2.7,13.17,4.73,20.36,4.84,3.12.05,3.3,2.82,3.5,5.25.58,7.05.87,14.12,2,21.12a60.46,60.46,0,0,0,4.42,15.52c.49,1.06,1.24,2.21-.07,3.13C149.81,141.07,149.08,140.51,148.53,139.77Z"/><path d="M672.22,322.58c1.92,5.78,1.55,11.43,5.35,15.68a16.86,16.86,0,0,0,13.3,6.15c5.52-.05,7.32,2.55,5.37,7.69-2,5.31-5,9.86-10.22,12.67-.7.38-1.33,1.27-2.17.44s-.21-1.49.19-2.27c5.18-9.92,5-10.52-4.69-16.47-2.66-1.65-4.85-3.48-5.05-7-.13-2.36-1.39-4.46-2.62-6.52C669.83,329.82,669.5,326.62,672.22,322.58Z"/><path d="M223.82,964.15c2.45,3.87,6.94,5.59,9.65,9.17,0,.65.25,1.55-.08,1.92a96.35,96.35,0,0,1-19.25,17.13q3.88-13.5,7.78-27A1.57,1.57,0,0,1,223.82,964.15Z"/><path d="M705.8,385.55c-3,.52-5-1.84-6.56-3.27s1.54-3.21,2.86-4.62c3-3.19,6.63-5.7,8.41-10,.54-1.31,1.74-3.42,3.8-2.5s1.43,2.75.58,4.36a3.49,3.49,0,0,0-.36,2.9C716.71,379.08,712.45,385.36,705.8,385.55Z"/><path d="M646.8,209.24c5.11,5.56,5.28,10.91,0,18.25,1.27-6.15,3.91-12.34.09-18.37Z"/><path d="M73.62,344.71c5.47-2.15,11.28-2.66,16.84-4.25C85.38,344,79.92,346.05,73.62,344.71Z"/><path d="M673,349.77c1.79.37,2.24,1.77,3,2.8.95,1.33,2.24,2.62,1.59,4.52-.23.65-.66,1.33-1.45.86a7.42,7.42,0,0,1-3.53-4.08C672.17,352.61,671.82,351.26,673,349.77Z"/><path d="M629.2,582.15c-5.45-1.93-7.79-4.76-9.93-11.51Z"/><path d="M54,543.05c2.73,1.59,5.39,2,5.38,4.9,0,1.43-1.93,2.39-3.08,1.9C53.52,548.66,54.92,545.92,54,543.05Z"/><path d="M531.63,737.29c1.11.13,2.88-.15,2.87,1.21,0,1.73-1.69,2.94-3.25,3.32-1.34.33-1.86-1.21-2-2.32C528.88,737.66,530.11,737.26,531.63,737.29Z"/><path d="M246.09,237.44c-1.12-1.33-2.4-2.71-.3-4.19,1.1-.78,2.42-1.4,3.74-.44a2.75,2.75,0,0,1,.91,3.6c-.76,1.6-1.75,3.06-3.83,1.49Z"/><path d="M214.94,205c1.45-1.92,3.33-2,4.65-.26,1.15,1.53,2,3.67,1,5.64-.4.84-1.46,0-2.07-.58l-3.26-3.45c-.05-.34-.11-.69-.16-1l-.18-.43Z"/><path d="M252.05,244.45c-1-2.94-.07-5.49,1.47-8,4.86,4.53,4.85,4.58-1.74,7.82Z"/><path d="M215.14,205.3c.05.35.11.7.16,1l-.16,0Z"/><path d="M212.41,205.76l0,.16Z"/><path d="M215,204.87l-2.09-.85s0,0,0,0c.67.33,1.36.65,2.06,1Z"/><path d="M502.85,238.1c1.25-1.52,2.43-3.11,3.77-4.54,1.86-2,4.11-2.15,6.42-.83,1,.56,2.46,1.06,2.35,2.36-.12,1.52-1.72,1.39-2.82,1.39C509.33,236.47,506.34,237.52,502.85,238.1Z"/><path d="M339.43,326.47c-.63-2-.35-3.6-.89-5.17a2.82,2.82,0,0,1,2.23-3.41,3.87,3.87,0,0,1,4,1.36c1,1.37-.33,2.48-1.24,3.4C342.33,323.92,341,325.07,339.43,326.47Z"/></svg>