<svg id="Ebene_1" data-name="Ebene 1" xmlns="http://www.w3.org/2000/svg" viewBox="0 0 834.75 1080"><path d="M233.88,356.1c16.86-4.22,20.18-12.58,18.47-27.07-10.35-87.84-19.53-175.82-29.5-263.7C219.19,33,230.34,20,263.5,19.84c11.94-.06,23.89-.17,35.83,0,25.31.29,34.3,7.35,37.69,32.64,5.31,39.65,9.74,79.43,14,119.21,1.05,9.87,1.37,18.41,14.84,17,7.34-.74,6.38,5.69,7.58,10.19,2.2,8.2,5.23,16.1,11.2,22.36,5.25,5.52,10.81,13.81,18.64,11.55,7.4-2.14,3.72-12.23,5.95-18.54,3.15-8.9-2.45-12-9.86-15.06-19.84-8.25-33.89-22.48-39.27-43.74-1.42-5.6-9.2-15.18,2.27-16.71,8.71-1.16,20.86-7.25,27.65,5.55,1,1.84,1.37,4,2.25,5.89,4,8.55,9.2,16.25,19.2,17.77,5.75.87,6.3-5.33,6.52-8.87.65-10.36,8.69-22.09-4.61-30.46-6.64-4.17-12.62-9.46-15.67-16.66-3.21-7.56-12.8-18.14-2.72-23.13,7.47-3.7,21.14-7.71,29.75,5,9.92,14.64,21.56,14.79,31.66-.09,8.48-12.49,21.83-8.2,29.95-4.92,9.49,3.83.66,14.47-1.91,21.37-4.24,11.37-14.85,17.67-25.2,24,2.37,1.85,3.3,3.22,4.3,3.26,30.06,1.18,33.41,8.15,16.73,34.91a68.08,68.08,0,0,1-22.29,22c-3.58,2.21-8.66,3.31-10.71,6.45-6.24,9.6-11.87,24.46-4.9,30.85,7.73,7.1,16.26-5.87,22.15-13,3.9-4.72,6-11,8.56-16.73,1.11-2.51.31-6.86,2-8,38.35-25.62,15.85-68.44,28.62-101.27,3-7.61,2.18-16.63,3.41-25,6.61-45,10.2-48,56.35-48,4.92,0,9.84,0,14.76,0,39.13.28,49.78,13.45,45.39,51.92-10,87.18-18.61,174.52-28.64,261.69-1.66,14.35,3.89,20.7,18.46,25.46,5.8-48.58,11.56-96.31,17.19-144,4.43-37.65,8.45-75.36,13.12-113,3.25-26.06,19.61-36.38,44.74-28.69,15.41,4.72,30.54,10.39,46,14.82,20.48,5.86,27.76,19.4,25.61,39.74q-11.72,111-23.11,222.06c-3.12,30-5.92,60.1-9.66,90.05-1.36,11,3.38,18.52,9.26,26.74,46.9,65.58,75.92,137.35,74.52,219.36-3.12,183.42-158.61,351.6-340.59,375.53-218.66,28.75-437.36-157-434.07-391.28,1.06-75.7,27.48-142.75,73.16-202.36,8.35-10.89,11.26-21.15,9.79-34.7q-16.59-152.84-32-305.81C85,103.36,91.83,94.25,115,87.46c14.8-4.33,29.49-9,44.24-13.53,27.09-8.22,41.63,1.68,44.86,29.59C213.81,187.16,223.8,270.76,233.88,356.1ZM558.08,368l.66.7q16.6-150.68,33.12-301.36c.44-4,1-11-.81-11.88-13.12-6.41-27.41-2.13-41.23-2.85-11.16-.58-9.2,8.87-9.94,15Q527.77,169,516.25,270.48c-3.38,29.28-5.12,58.84-10.21,87.82C497.32,408,464.83,437.87,416.5,455c39.2,44.19,87.15,65.11,143,70.44,8.67.82,12.42-4.27,16.11-10.69a274.05,274.05,0,0,0,24.63-58C616.66,401.83,611.71,391.63,558.08,368ZM142.32,476.23c-2.25,2.58-4.65,5-6.74,7.75-85,109.83-91.12,249.59-16.41,372.5,93.61,154,282,216.71,438.76,146.59,13.89-6.21,20.16-14.72,22.68-29.28,11.14-64.53-7.61-120.7-46.5-171.39-33.69-43.92-79.17-72.29-126.87-98.87C306,647.09,237.54,563.1,212.78,449c-11.84-54.57-14-111.24-20.56-167-6.3-53.68-12.41-107.38-19.09-161-.68-5.5.54-16.64-6-15.52a148.3,148.3,0,0,0-43.49,14.7c-8.54,4.5-2.73,15.52-2,23.41q13.61,142.54,27.85,285c.67,6.83-.33,14.18,4.88,19.94,24.64-12.22,31.41-7.47,32.78,20.53C194.13,611,238.36,733.2,369.08,808.94c6.4,3.71,8.68,7,5.79,14.95-5.28,14.59-10.36,20-26.68,10.5-96-55.66-149.25-141.51-177-246-2.33-8.76-4.54-17.56-8-30.85-3.08,7.24-4.32,9-4.55,10.87-7.12,58.27-7.87,116.48,7.49,173.54,4.9,18.24-7.66,17.51-16.88,21.51-13.42,5.82-13.5-6-15.33-13.15a381.2,381.2,0,0,1-9.61-55.93C116.84,620.88,124.15,548.83,142.32,476.23ZM419.52,672.7C540.19,737.93,624,822.3,617.76,967.08c14.68-6.39,23.9-15.12,33.09-23.53C740,862,787.4,763.12,773.89,640.21c-6.61-60.18-33.78-112.35-69-160.53-6.92-9.44-11.06-18.27-9.77-30.71,10.06-97,19.51-194.11,28.94-291.19,3.7-38.1,3.25-37.44-32.88-49-13.28-4.24-15.67.74-16.83,11.73-2.59,24.41-5.79,48.75-8.6,73.14-7.77,67.6-17.62,135-22.65,202.84-6.48,87.15-39.94,159.61-105.92,217C504.37,641.9,466.12,660.07,419.52,672.7ZM280.38,52.89C271.51,56,252.28,42.61,255.5,69c11.18,91.22,21.14,182.6,32,273.86,1.81,15.14.14,24.62-16.16,32.8-36.3,18.19-37,21.27-29.23,60.83C257.33,513.7,298.28,576,355.38,629c13.85,12.87,27.81,16.48,45.75,13.49,47.93-8,89-29.18,123.84-62.61,6.34-6.08,17.76-11.6,15.64-20.56-2-8.41-14.57-5.61-22.27-7.55-98.6-24.86-165.52-95.68-177.14-190.93-11.3-92.6-20.93-185.4-31.26-278.12C308,65.3,309.2,45.1,280.38,52.89ZM409.75,421.24c25.07-6.84,41.19-20.37,53.05-39.27,18.51-29.49,12.86-40.07-22.2-42.39-9-.6-18.61-2.65-20.42,11.05C417.26,372.76,413.69,394.81,409.75,421.24Zm72.43-169.7c-13.24,5.85-22.83,15-35.48,16.42-19.77,2.29-16.08,18.75-17.36,30.37-1.55,14.09,12.12,6.77,18.63,9.5,5.6,2.35,12.29,2,18.4,3.25,8.32,1.76,11.95-2.19,12-9.8C478.4,285.31,484.65,269.87,482.18,251.54ZM359.92,247c2.2,20.33,3.91,37.63,6.05,54.87.57,4.68,1.43,10.63,8.46,9.33,8.24-1.52,19.86,1.67,21-11.79,1-11.39,11.17-24.22-3.6-33.74C382.6,259.67,372.84,254.48,359.92,247Zm18.22,137.68c8.1-9.66,7.46-19.56,8.41-28.92.41-4.13,3.58-10.87-4.76-10.54-4.9.19-9.41,3.34-8.55,9.54C374.56,364.19,376.3,373.59,378.14,384.66Z"/><path d="M404.24,980c-102.06-9-184.44-51-237.49-141.78-4.43-7.57-16.1-16.31.83-25.26,13.23-7,19.22-5.8,27.14,8.14C241,902.57,314.43,940.13,405.64,947.18c15.67,1.21,23.42,13.48,17,27.79C418.52,984.31,410.37,978.06,404.24,980Z"/><path d="M708.11,578.45c-4.23,21.5-7.43,39.88-11.63,58-1.39,6-2.9,16.12-13.15,9.91-7.25-4.39-21.71-3.52-17.61-18.65,10.22-37.67,11-76.26,11.53-114.88.12-9.24,3.1-17,12.21-20,8.64-2.82,14.86,2.35,19.23,9.36C776.9,611.8,779.64,744,702.54,841.35c-10.82,13.66-17.58,13.24-28.78.9-9.2-10.14-1.39-14.51,3.43-20.83,54.33-71.2,62.69-149.44,35.56-233.07C711.94,585.87,710.53,583.58,708.11,578.45Z"/><path d="M658.63,441.61c14.43-2.72,18.86,2.77,16.89,17.07C667.28,518.86,645,573.54,613,624.75c-5.28,8.46-10.18,10.76-17.8,3.6-5.72-5.38-18.06-6.35-9.67-20,30.05-48.82,52.63-100.6,57.69-158.58C644.26,438.25,652.69,442.31,658.63,441.61Z"/><path d="M535.05,705.69c-5.24-6.8-10.21-13.32-15.24-19.79-4.49-5.77.28-8.62,3.61-12.06,9.21-9.53,19.18-18.48,27.27-28.89,8.65-11.15,14.78-9.93,25-1.32,11.49,9.64,6.8,15.82-.69,23.47-10.24,10.46-20.28,21.1-30.57,31.49C542.05,701,539,702.79,535.05,705.69Z"/><path d="M309.58,469.68c-6.05,10.24-.78,21.81-16,21.9-17.65.11-23.75-3.66-19.6-22.24,4.57-20.47,8.47-41,14.9-61.06,3-9.49,8.16-17.17,18.67-16.85,9.91.3,13.57,8.36,15.38,17.25,8.55,41.83,29.2,75.39,67.08,96.88,8.93,5.07,7.6,10.82,1.37,16.27-5.64,4.92-6.4,19.65-19.75,10.57C347.8,516.17,325.35,498.53,309.58,469.68Z"/><path d="M558.08,368c11.53,51.34-3.2,93.84-43.83,127-4.93,4-12.28,16.44-19.5,2.54-4.3-8.29-16.22-16.27-1.07-28,25.95-20,38.92-47.45,34.3-80.87-1.21-8.71,2.26-11.23,8.78-13.23,7.33-2.26,14.67-4.48,22-6.73Z"/></svg>