<svg id="Ebene_1" data-name="Ebene 1" xmlns="http://www.w3.org/2000/svg" viewBox="0 0 1012.64 1080"><path d="M908.62,60.34c27.62,32,22.09,55.49-16.62,72.47-82,36-158.08,80.27-212.07,154.69-5.87,8.08-11.12,16.6-16.49,25-14.88,23.37-27.59,46-1.12,71.1,8.84,8.38,11.6,22.64,14.36,35.31,9,41.12,7.85,43.57-27.46,65.8-31.93,20.11-55.07,47.63-67.05,83.56-3.92,11.77-9.8,16.64-22.46,17.71-57.56,4.83-102.84-16.22-132.54-65.26S398.9,420.3,431.55,373.36c33-47.4,80.12-67.15,138.09-57,8.86,1.56,15.7,3.45,20.94-7.48,50.16-104.51,136.5-170.08,237.7-219.47,19.67-9.59,39.24-19.4,58.86-29.11Z"/><path d="M160.88,1027.25c-35.77-9.75-68.18-24.55-90.61-56.2C32.84,918.24,35,852.76,76.68,802.3c7.57,2.28,9.28,10,13.53,15.24,38.83,47.51,88.89,68.36,149.6,61.87,11-1.17,15,.68,18.31,10.71a135.57,135.57,0,0,0,33.79,54.14c8.55,8.49,7.58,14.53,1.21,23.74-22.92,33.18-56,49.51-93.56,59.25Z"/><path d="M871.18,624.94c-.35,73.65-61.59,134.21-135.9,134.38-76,.17-137.13-61.64-136.59-138.09.53-75.42,61.37-135.56,137-135.46S871.54,547.71,871.18,624.94Z"/><path d="M316.41,452.8c-70.52,1.67-132.4-53.31-138.29-122.88C171.91,256.47,222.7,191,293.66,181,364.92,170.9,432.85,217.62,448,287c3.87,17.73,2.05,32-14.2,44.82-25.38,20-42.45,47.84-47.21,79.4-3.62,24-15.89,32.19-36.32,37.13C339,451.11,327.74,451.75,316.41,452.8Z"/><path d="M408.94,969.31c-61.15.2-117.5-44-131.73-103.28-15.16-63.18,15.58-128.21,73.06-156.42,12.59-6.18,17.28-4.65,22.94,9.16,28.45,69.37,86.2,106.62,161.14,104.12,14.42-.48,13.12,6.55,12.71,15.41C543.72,911.51,483,969.07,408.94,969.31Z"/><path d="M893.77,443.75c-52.44-.08-95.47-8.66-133.94-33.23-44.79-28.6-55-70-29.16-116.24,11.58-20.72,25.94-39.36,45.52-53.38,29.42-21.07,57.07-21.43,87.33-1.31,19.39,12.9,34.24,30.23,47.43,49,26,37,45.41,77.42,62.42,119.18,4.84,11.89,2.43,17.71-9.43,22.54C939,440.51,913.15,444.36,893.77,443.75Z"/><path d="M177.75,545.17c0-31.9,10.95-59.8,30.17-85,6.62-8.68,11.63-11.71,22.43-5.06,43.26,26.67,89.54,31.26,137.5,14.59,11.53-4,15.85-.68,16.47,10.49,0,.71.11,1.42.2,2.13,3,23,24.79,43.28,21.93,62.57-2.78,18.77-25.09,35-33.21,55.92-7.3,18.8-12.6,38.29-10.4,58.46,1.48,13.54-5.53,17.33-16,19.83C260,699.77,177.84,634.68,177.75,545.17Z"/><path d="M572.46,610.93c-2.11,51.79,14.79,95.73,52.49,131,8.09,7.57.19,11.49-3.81,15.31-41,39.17-89.78,50.54-142.44,31.88-53.76-19.06-83.95-60-90-117.08-3.8-35.68,7.13-67.57,28.64-96.16,6.32-8.39,10.91-10.53,20.26-2.66C476.18,605.69,520.87,618.59,572.46,610.93Z"/><path d="M303.28,709.52c-38.68,37.83-58,80.22-55.92,131,.56,13.68-9,12.46-16.92,13.66C162.53,864.51,89.16,804.7,83.22,734.73,78.45,678.4,99,634.22,146,602.78c4.58-3.07,11-11.6,16.32,1.21C187.72,665.63,235.33,698.85,303.28,709.52Z"/></svg>