<svg id="Ebene_1" data-name="Ebene 1" xmlns="http://www.w3.org/2000/svg" viewBox="0 0 1063.42 1080"><path d="M532.25,1053.69c-40.26,0-80.53-.21-120.79.13-11.54.1-19.34-3.48-24.24-14.59-5.56-12.62-17-20.22-27.93-27.78-32.79-22.7-68.05-41.45-101.66-62.87-64-40.78-121.56-88.5-164-152.41C51.52,732.71,30.37,662.36,24.45,586.78c-4.67-59.66.15-118.29,16.28-175.9,19.81-70.71,55-133.17,104.49-187.12,86.53-94.24,193.15-154,317.67-182.53,63.8-14.64,126-7.25,187.27,12.34C771.64,92.38,874.6,158.68,951.37,261.79c70,94,97.62,200.63,90.36,317.12-5.23,83.72-29.06,160.87-78.12,229.48-41.79,58.44-96.3,102.89-156.6,140.75-30.21,19-61,37-91.18,56-16.32,10.32-32.43,21-40.77,40-3.39,7.72-11.71,8.56-19.73,8.53C614.3,1053.61,573.28,1053.68,532.25,1053.69Zm-383-475.34c-7.08-4.67-12.09-8-17.09-11.27-10.56-7-19.79-15.35-26-26.65-11.14-20.3-11.38-45,4.69-56.49,21.76-15.57,22.5-34.43,17.58-56.63a16.48,16.48,0,0,1-.45-5.66c1-7.23-3.12-8.88-9.19-9.67-10.68-1.39-21.13-.56-31.74.85-7.95,1.05-11.54,4.37-13.66,12.29C59,478.93,55.67,533.46,60.16,588.84c9.47,116.64,61.06,210.45,151.74,283.62,40.95,33,86.25,59.34,131,86.51,25.94,15.72,52.72,30.56,71.28,55.76,2.44,3.31,5.66,3.28,9.12,3.28H642.19c3.42,0,6.7.17,9.16-3.15,19.61-26.39,48-41.61,75.19-58.1,43.5-26.38,87.45-52,127.14-84.17,72.89-59.08,123.07-132.47,143-225.13.78-3.63,3.12-7.58-.08-10.81-16.87-17-24-39.32-32.78-60.64-2.6-6.26-5.37-6.59-10.93-3.15-17.06,10.54-34,8.89-50.06-2.41-9.32-6.53-15.05-15.83-19.21-26.26-6.85-17.15-8.5-35.34-10.81-53.38-.78-6.05-1.29-9.31-9.55-7.39-31.81,7.41-60-6.28-74.82-35.53A193.19,193.19,0,0,1,778,422.68c-2.63-7.76-6.9-11.47-15.47-12.29-12.75-1.22-25.68-2.32-37.74-7.68-38.42-17.07-45.62-58.31-15-86.65,5.58-5.15,11.38-10.07,16.67-15.51,3.42-3.52,5.46-8.77.2-11.66-8.64-4.75-19.54-9.53-28-5.79-12.5,5.47-25.14,7.8-38.19,10.09-12.53,2.2-17.74,10.61-15.21,23.36,1.25,6.31,3.22,12.48,4.93,18.69,2.52,9.17,4.81,18.39,4.39,28-1,21.74-13.69,35-31.53,45.38-23.83,13.81-24.28,38.38-1.45,53.49,7,4.61,14.25,8.7,21.35,13.1,8.43,5.21,16.38,11,22.8,18.71,19.83,23.69,15,53.95-11.24,70.3-6.44,4-13.32,7.4-19.37,11.92-8.46,6.33-8.94,13-2.31,21.34,5,6.24,10.63,12,15.15,18.5,16.81,24.35,21.77,50.42,10.71,78.71-6.53,16.71-15.18,32.25-24.7,47.37-23.93,38-52,73-78.93,108.77-6.06,8.06-8,14.62-3.21,24.43,10.25,20.92,16.33,43.3,17,66.8.32,11.68-7,19.91-17,20.34s-18-7.44-18.38-19c-.51-17-5-32.91-11.45-48.44-13.2-32-30.92-61.7-46.11-92.69-25.48-52-41.7-105.83-34-164.7,1.76-13.43,8.9-21.49,19.43-20.59,11.65,1,17.59,10.92,15.66,25.48a196.64,196.64,0,0,0,.07,50c5.66,46.62,26.52,87.47,48,128.13,3.12,5.91,5,4.93,8.46.33C558,788,583.52,755.84,605.29,721c1.76-2.81,4.29-5.36,4.16-9.43-8.37-.69-16.31,2.85-24.7,1.9-28.24-3.19-49.28-24.09-56.2-56.37-4.43-20.7-1.25-41.67-2.15-62.5-.6-13.77-2.67-27.14-7.8-40-2.43-6.1-5.9-8.1-12.26-4.85a135.6,135.6,0,0,1-18.88,7.89c-26.1,8.67-47-3.45-53.11-30.31-2.39-10.54-1.3-21.18-1.51-31.78-.35-17.6-.5-17.73-16.95-13-5.44,1.55-11,3.16-16.59,3.67-29.69,2.72-44.29-10.77-44.23-40.42.07-30.38.07-30.4-29.3-38-18.09-4.66-31.77-14.28-37-33.15-1.41-5-3.93-7-9.46-7.48-11.56-1.05-19,1.1-25,13.13-15.56,31.23-47.68,48.37-78.34,43.14-10.73-1.83-13.2,0-11.25,11,4.48,25.29,3.69,49.17-20.52,66.29-13.31,9.41-13.12,19.48-.44,30.39,7.14,6.15,15.54,10.83,23.33,16.23,26.25,18.19,25.64,45.28-1.58,62.34a193.06,193.06,0,0,1-22.07,11.81c-8.11,3.73-8.09,8.1-3.6,15.06,7.92,12.28,19,18.19,33.21,18.76,9.86.41,19.75.17,29.49,2.27,15.57,3.36,25.86,15,27.49,30.77,1,10.05-1.68,19.59-3.4,29.28-2.63,14.79,3.67,22,18.65,20,9.35-1.24,18.43-4.36,27.7-6.26,25.62-5.25,44.43,10.91,43.26,36.94-.4,8.86-3.59,17-6.32,25.28-5,15.32-5,15.33,10.84,16.84,20.87,2,32.91,14.79,34.05,35.75.67,12.42-4.5,22.84-10.31,33.18-7.25,12.89-6.62,14.82,7,21.15,9.62,4.48,19.55,8.33,29,13.18,10,5.14,17.95,12.69,22.37,23.39,3.68,8.9.87,18.05-7,22.69-8,4.76-17.72,3.27-23-5.24-4.82-7.77-11.84-11.4-19.53-14.74-11.12-4.83-22.68-8.79-32.41-16.35-14.58-11.32-20.5-28.79-14.83-45.62,2-6,5.37-11.7,8.45-17.36,7.36-13.54,7-14.25-8.52-16.15-26.64-3.24-39.85-22.23-33.39-48.37,1.91-7.71,4.57-15.24,6.84-22.88,1.55-5.2,0-7.14-5.55-5.53-6.56,1.89-13.18,3.66-19.86,5-39,7.65-68.64-20.78-62.64-60a68.07,68.07,0,0,1,2.15-10c2.5-8,.84-12.41-8.69-11.4-4.12.43-8.35,0-12.52-.26-28.63-1.74-50.79-14.15-64.86-39.68-13.52-24.51-8.08-44.7,16-59C131.24,587.7,139.37,583.67,149.26,578.35ZM90,376.2c14.46-.86,27.31-.45,39.91,1.67s25.13,5.62,37.7,8.38c29.24,6.44,45.12-.62,58.32-27.82,9.47-19.53,24-28.13,45.48-27,15.9.87,32,1.34,47.8.1,26-2,34.72-16.14,26.27-40.49-4.35-12.53-9.54-24.76-13.76-37.33-13.26-39.43,13.39-80.69,44.24-98.14,8.16-4.61,16.36-2.46,22.14,5.4,5.27,7.16,3.86,17.49-3.11,23.64-4.54,4-9.77,7.31-14,11.64-13.42,13.81-21.37,29.43-15,49.42,1.43,4.45,3.65,7.36,8.49,7.84,12.38,1.21,23.15,7,34.07,12.25,17.52,8.48,25.07,7.84,36.61-8.27,16.4-22.91,37.44-28.85,63.83-22.91,19.95,4.49,27.65-3.18,25.12-23.67-2.38-19.22,3.26-35.13,19-47.12,7.53-5.74,15.54-10.9,21.94-18.08,9.41-10.58,9.17-16.73-2.88-23.58s-25.13-12.47-37.64-18.83c-11.88-6-24.3-12-30.87-24.21-3.91-7.25-8.06-7.94-15.35-6.69-66.26,11.4-127.84,35.38-185.57,69.28-87.07,51.13-157.38,118.61-202.1,210.51C97.14,359.63,94,367.28,90,376.2Zm913.83,203.37,2.28-.64a36.33,36.33,0,0,0,.75-4.33c5.58-106.32-19.13-204.19-83-290.5C856.33,192.7,766,132.25,660,94,625,81.39,589.1,72.46,551.52,69.6c1.37,4.61,5.28,5,8.16,6.35,12,5.78,24.23,10.93,35.18,18.57,22.33,15.6,27.95,35.61,17.08,60.56a18.79,18.79,0,0,0,18.78,26.09c13.54-1.07,26.58-.61,38.15,7.67,1.93,1.38,4.11,2.49,6.34,1.18,15.25-9,33.06-13.92,45.55-27.33,8.91-9.56,18.45-11.88,26.63-5.41,8.43,6.67,8.84,18.3.71,28.35-7.3,9-17,15-27.08,20.44-11.69,6.28-23.54,12.32-34.76,19.37-9.46,5.93-9,9.58.63,15a30,30,0,0,0,7.38,2.79c12.12,3,24.4,5.52,36.41,8.93,35.88,10.17,46,46.58,20.59,73.81-5.43,5.8-11.69,10.82-17.52,16.27-10.91,10.2-9.31,21,4.19,27.61,6.95,3.37,14.67,4.57,22.15,4.72,28,.57,45.32,14.18,53.12,40.94,2.53,8.7,5.85,17.36,11.93,24.38,7.27,8.39,16.92,12.18,27.6,9.77,9.48-2.14,11.65-11.16,13.35-19.41a116,116,0,0,0,2.16-18c1.17-25.63-3.18-50.63-8.66-75.53-2.61-11.84,2.84-21,12.7-23.13,10.3-2.19,18.91,3.27,21.66,15.05,6.66,28.52,12.87,57.59,9.36,86.74-2.65,22.06-2.53,43,3.09,64.4,4.5,17.15,3.55,35.55,10.45,52.26,5.44,13.15,12,14.85,23.52,6.75,22.74-16,38.69-12,51.11,13.22C995.94,561,999.75,570.36,1003.86,579.57ZM652.63,258.11c-7.12-10.42-12.47-20.52-9.47-31.88,2.47-9.32.72-11.38-8.71-9.73-20,3.47-35.49-4.07-47.27-20.44-2-2.77-2.67-9.46-8.56-6.63-4.7,2.26-9.3,5.7-9.39,11.88A119.76,119.76,0,0,0,570,215c1.38,13.5-2.29,25.47-10.37,36.28-15.32,20.52-36.16,23.7-59.11,17.88-12.06-3.06-19.24.57-27.22,10-24.21,28.46-47.54,37.87-79.44,18.91-.65-.38-1.38-.63-2-1-5.29-2.92-8.43-2.89-7.55,4.67,3.88,33.63-21.3,56.94-51.21,63.67-2.67.6-6.2,0-7.15,4.17,6,4.69,13.48,4.77,20.35,6.49,27.73,7,40.43,21.26,43.54,49.73a125.42,125.42,0,0,1,.5,18.18c-.23,6.12,1.79,8.54,8,6.7s12.4-3.47,18.64-5.07c26.73-6.84,45.45,5.7,49.93,33,1.8,11,1.26,22,1.59,32.95.45,15.18,1.13,15.64,14.7,9.84,5.23-2.23,10.37-4.75,15.76-6.53,20.82-6.87,37.3-.54,48.35,18.52,7.35,12.66,10.69,26.61,12.81,41,3.29,22.31,1.28,44.75,2.07,67.11,1.18,33.55,22.92,45.33,51.4,28.11,2.27-1.37,4.32-3.15,6.67-4.35,8.3-4.22,8.33-10.3,5.09-18-4.85-11.56-14.24-19.58-21.58-29.18-16.52-21.63-14.11-49.43,6.57-67.25,6-5.15,13-9.14,19.85-13.21,15.7-9.37,16.3-16.4,1.13-27.25-9.86-7-20.69-12.72-30.72-19.54-42.92-29.18-41.41-84.71,2.91-111.84C621.23,368,622,366,616.2,345.72c-3.56-12.4-8-24.82-6.85-37.85C611.63,281.94,625.86,265.37,652.63,258.11Z"/><path d="M317.13,637.89c-1.25-12.36-2-21.36-3.11-30.32-2.51-20.48-1.74-40.92.19-61.38,1.24-13.2,8.88-21.43,19.46-20.45,10.83,1,17.41,10.37,16,23.33-5.52,49.36,2.44,96.7,20.86,142.57,6.83,17,17.05,32.11,26.16,47.84C432.85,802,455.23,870,476.37,938.57c3.22,10.43-1.56,19.46-11.16,22.81-9.27,3.23-18.68-1.44-22.34-12.13-6-17.56-11.13-35.44-17.12-53C406,838.36,383.93,781.6,349.07,730.59c-28-40.91-62.5-75.19-101.47-105.35-4.8-3.72-9.74-7.26-14.51-11-10.54-8.31-12.68-17.59-6.2-26.41s16.39-9.84,27-2.1a589.15,589.15,0,0,1,50.49,40.74C307.7,629.47,311.05,632.43,317.13,637.89Z"/><path d="M766,704.13c18.5-33.78,33.31-67.57,40.54-104.37,2.69-13.72,10.4-20.89,20.72-19.2,11.18,1.84,16.41,11.55,13.88,25.35-10.64,57.84-38.73,108.11-68.37,157.7-26.49,44.33-57.23,85.87-84.93,129.39-11.37,17.86-23.54,35.31-28.77,56.46a16.93,16.93,0,0,1-21.29,12.26c-9.12-2.68-14.55-11.49-12.7-21.3,3.51-18.66,12.84-34.88,22.9-50.48,21.8-33.8,43.91-67.41,66.7-100.54,7.68-11.16,11.06-22.89,12.11-35.94A506.3,506.3,0,0,0,717,605.21c-2.77-12.84,2.65-22.43,13.52-24.55,10-2,18.25,4.89,21,17.51,6.84,31.59,11.29,63.47,11.83,95.84C763.34,696.85,762.37,700,766,704.13Z"/><path d="M734.8,925.91c-15.31.14-23.41-14.91-15.64-27.87a319.44,319.44,0,0,1,43.73-56.63c24.94-26,50.76-51.18,75.65-77.23C869,732.31,891.34,696,898.17,651.42c1.74-11.35,11.37-18.07,21-16,10.43,2.27,15.56,11.58,13.58,23.72-8.37,51.35-34.29,93.3-69.31,130.5-28.07,29.84-59.09,56.81-85.57,88.19A340,340,0,0,0,750,915.23C746.13,921.37,741.1,925.48,734.8,925.91Z"/></svg>