<svg id="Ebene_1" data-name="Ebene 1" xmlns="http://www.w3.org/2000/svg" viewBox="0 0 1050.35 1080"><path d="M229.89,725.65c25.87-31.86,51.72-60.75,74.1-92.11,21.84-30.61,26.47-65.95,17.48-102.79-2-8.26-8.9-19,4.65-22.84,12.93-3.63,14.08,8.39,16.61,16.81,5.53,18.4,6,37.32,4.16,54.45,24.32-22.72,47.77-48,74.57-68.94,51.17-40,56.77-88.29,31.91-144.18-3.38-7.58-6-15.8,3.78-19.66S470.65,351,474.09,358c13.05,26.48,17.49,54.65,14.79,88.48,31.65-25.24,62.34-46.12,85.25-75.06,15.09-19.06,15.28-43.14,9.7-66.73-1.9-8.05-6-18.27,5.53-21.33,13-3.46,14.7,8.57,16.13,17.07,2.29,13.64,2.78,27.59,4.08,41.85,8,.89,12-5.92,17.22-9.84,50.13-37.69,102.59-71.59,159-99.15,4.42-2.16,8.74-4.53,13.24-6.5,6.24-2.72,12.63-3.66,16.68,3.31,4.92,8.46-.83,13.15-7.36,16.62C792.87,255,777.06,262.65,761.61,271c-5.86,3.16-13,4.95-17.07,12.94l41.83,5c7.53.89,14.87,3.46,14.3,12.2-.7,10.65-9.35,10.47-17.48,9.64-8.39-.86-16.78-1.94-25.2-2.44-36.22-2.15-69.45,5.06-99.13,27.82-35.6,27.29-71.06,54.64-106.43,88.19,33.14-.61,63.06-2.79,92.45,3.54,10.3,2.22,20.7,4.05,30.89,6.71,8,2.09,18.58,3.88,15.46,15.57s-13,7.85-21.13,5.88c-37.85-9.19-75.88-14.9-114.81-7.22-22.07,4.35-40.85,13.47-55.38,31.63-20.39,25.48-42,50-61.9,76.46,28.7-7.6,56.79-12.58,85.74-11.45,7.86.31,17.2-.15,17.43,10.47.27,12.06-9.51,11.63-18.26,11.48-24.83-.42-48.81,3.9-72.61,11.13-50.24,15.26-74.67,56.64-104.48,100.9,20.1-7.49,35.13-14,50.74-18.61,14.09-4.11,28.74-6.6,43.31-8.69,8.71-1.24,20.57-3.29,21.34,10,.67,11.71-10.23,10.73-18.6,11.8-55.14,7-102.76,29.68-139,72.12-34.81,40.73-57.54,89.41-88.74,138.5,26.65-6,40-19,47-39.61,16.54-48.4,42.88-58.11,88.53-33,18.91,10.4,38.57,14,58.07,2.32,5.75-3.43,15.81-5.34,13.09-16.33-2.54-10.23-7.78-18.14-18.72-20.57a31.73,31.73,0,0,0-10.42-.53c-8.06,1-15.12-1.3-15.86-9.72-.9-10.2,7.88-12,15.78-13,20-2.58,40.54,9.76,48,30.33,4.75,13.11,8.69,25.88,25.43,26.63,15.47.69,26.38-6.85,35-19.51,13.08-19.24,29.47-24,48.69-12.34,13.24,8.05,24.68,11.18,35.38-1.53,11-13.07-1.32-21.56-7.75-31-17.89-26.29-17.07-54.18-6.39-82.6,2.75-7.31,7.22-15.31,17-11.2s7,11.9,3.78,19.69c-2.07,4.94-5.32,10-3.27,17.27,19-3.55,33.51,4.48,45.57,18.93,10.35,12.38,22.65,13.83,35,3.2,12.7-10.94,9-20.39-1.9-31.58-15.37-15.83-14.79-37.14-1.27-56,15.48-21.59,15.5-21.64-9.67-28.6-15.65-4.33-23.5-14.61-23.62-30.71-.11-15.67,6.69-26.88,21.59-32.81,6.46-2.57,12.75-3.27,16.69,3.48,3.85,6.58,1.72,12.29-5.2,15.62-6.76,3.26-12.73,7.16-10.54,15.84,2,7.94,9.67,6.71,15.53,8.31C700,583.62,708,607.92,689,631.66c-17.71,22.09-13.61,37.2,13.49,44.65,23.18,6.37,48.19,12.78,67.84-6.74,21.11-21,22.54-47.83,12.53-74.7-6.73-18.09-2.09-25.19,17.09-23.83,20.73,1.46,35.27-7.47,42.42-27.35,2.75-7.62,6-16.08,15.88-12,10.51,4.33,7.64,13.68,4.21,21.74-8.13,19.05-20.57,34.44-42,37.71-13.07,2-13.17,7.5-11.25,18.11a87.56,87.56,0,0,1-8.06,55.45c-15.78,31.8-39.65,43-83.35,37.44-11.9-1.52-17.54-.36-23.33,12.14-14.15,30.54-51.47,35.17-75.59,11.26-3-3-5.66-6.33-8.92-8.95-4.35-3.48-9.06-7.58-14.89-2.57-5.23,4.48-4.57,10-1.55,15.28,3.14,5.46,6.84,10.61,10.3,15.89,10.48,16,11,32.15-1.74,46.65-13,14.83-31.38,24.29-48.84,13.76-20.6-12.43-28.62-5.27-44.27,9.35-29.3,27.37-49.67,60.75-73.58,91.75-2.75,3.57-7.36,6.93-5.29,14.79,33.39-3.65,64.12,6.4,94.3,20.76,16.49,7.84,34.39,9.36,47.94-7.59,12.84-16.07,8.55-27.86-11.46-30.13-8.65-1-19,.47-17.31-11.94,1.6-12,12.4-11.83,21.68-10.57,13.78,1.87,24.67,9.71,34.75,18.74,13.61,12.2,29.3,17.3,46.75,10.88,13.85-5.09,21.74-14.31,16.45-31C652,845.25,673,819,710.2,821.82c10.42.78,20.67,3.89,31,5.92,8.68,1.71,16.25-.92,19-9.25,4.16-12.78-8.06-8-13.11-10.19-10.71-4.56-19.74-10.65-25.47-21-3.08-5.57-3-11.15,2.2-15.13s9.86-2.33,15,1.88c26.09,21.36,45.81,16.14,59.81-15.21,3.49-7.82,4.69-20.57,17.75-14.72,11.91,5.34,5.6,15.64,2.47,23.84-2.23,5.85-4.76,12.2-9,16.55-13.36,13.75-25.26,27.16-31.75,46.65-5.41,16.28-22.95,21.63-40.81,18.51-9-1.56-17.83-4.35-26.87-5.17-23.91-2.18-32,8.25-24.63,30.9,11,34.09-21.14,66.86-61.55,59.83-17.13-3-26.06-1.75-35.92,14.3-13.44,21.86-43.83,25.36-74.78,12.6-14.92-6.15-29.13-13.9-45.24-17.06-41.89-8.23-59.43-1.08-82.63,34.46-11.53,17.66-22.77,35.51-34.52,53-19.64,29.29-62.93,44.33-95.44,33.11-13.29-4.59-9.07-13.47-4.36-22,19.1-34.46,39.26-68.39,63.07-99.73,13.78-18.12,18.82-35,8.09-56.1-3.65-7.19-4.31-16.27-4.82-24.58-.42-6.81,3.24-12.53,11.09-12.67,6.81-.13,10,4.74,10.72,10.83,1.29,10.38,2.59,20.67,8.82,29.95,8.59-2.41,10.27-11.16,15.69-16.17,7-6.45,10.68-23,23.69-13.7,13.17,9.38.1,18.72-5.59,26.35-32.8,44-64.79,88.51-93.32,135.42-3.57,5.87-6.81,12-11.05,19.42,23.17,4.55,41-1.36,52.68-19.37C371.7,959.68,413.75,896.53,459.88,835c-14.89-7.54-26.86-9.31-42.1-.59-26.56,15.2-54.06,11-80.13-4.26-29.6-17.37-43.85-11.91-54.41,21.1C273,883.33,250.58,901.44,218,906.62c-12.31,2-19.77,7-25.43,18.21-17,33.9-35.42,67.12-52.85,100.82-18.45,35.68-55.95,52.08-94.26,40.15-15.16-4.72-8.71-14.87-4.68-23.72a1614.36,1614.36,0,0,1,76.08-145.7c22.38-38.25,46.4-75.44,71.56-111.91,6.41-9.28,12.44-18.73,15.8-29.66,3.54-11.51,4.59-19.94-10.28-26.22-19.33-8.16-26.11-29.94-19.24-56.76,2.76-10.78,1.05-13.8-9.39-17.53-39.92-14.27-52.66-51.63-28.78-85.88,7-10.07,4.86-13.86-2-21.81-20.27-23.58-13.56-58.44,13.6-76.9,26.31-17.88,59-10.86,74.87,16.07,4.06,6.88,8.61,14.27-.34,20.25-9.27,6.2-14-1.13-18.15-8-9.63-15.83-23.34-20-39.69-12.33-14.07,6.59-21.84,19-19,34.3,3.31,17.91,18.26,25.09,34.53,25.19,25.39.17,45.5,8.67,58.46,30.67,4.62,7.84,12.75,18.58,0,25.49-12.4,6.73-14.49-6.3-18.86-13.59-9.33-15.54-22.81-22.86-40.77-19.29-16.11,3.2-29.05,10.43-31.35,29.21-2.37,19.34,7.28,32.73,29,36.76,10.25,1.9,21,1.44,31.49,1.58,6.39.09,11.19,2.46,13.17,8.4,2.17,6.53-1.61,10.8-7.35,13.18-13.32,5.53-19.21,16-19.59,29.77-.33,12.35,2.79,23.3,17.87,23.24C222.46,710.6,225.5,717.17,229.89,725.65ZM396.06,571.44c-7.75.24-9.78,5.25-12.85,8.49A1831.52,1831.52,0,0,0,163.61,862.3c-33.79,53.48-63.8,109-92.15,165.57-7.71,15.36-2.37,17.48,11.65,16.61,20.7-1.29,30.11-15,38.35-31.46A2790.22,2790.22,0,0,1,363.28,615.81C373.85,601.34,384.57,587,396.06,571.44Z"/><path d="M433.74,185c0-5.36,0-9.54,0-13.73.22-20,8.67-35.39,26.6-44.56,19.32-9.89,38.3-7.93,55.62,4.82,7.29,5.35,13.26,12.48,19.91,18.71,5.33,5,11.36,5.59,17.19,1.31,5.21-3.82,5.82-9.53,3.67-15.21-2.73-7.21-6.68-14-8.94-21.32-10.6-34.36,10.86-63.57,46.83-61.55,14.24.8,25-1.45,35.7-10.82,8.47-7.39,19.8-10.47,31.32-11,7.15-.35,12.81,2.24,13.55,10,.62,6.58-3.44,10.24-9.8,11.57a119.62,119.62,0,0,0-14.32,3.5c-10.54,3.62-18.66,7.59-6.39,19.66,9.76,9.61,13.71,22.73,15.87,36.14,1.56,9.73,6.22,16.93,15.51,21,7.27,3.18,16.17,6.8,22.11,2.46,8-5.84.29-14-2.22-20.6-14.43-38.15.08-72.58,35.56-83.61C766,21,802.2,43.6,810.47,81.78c2.53,11.7,4.68,22.42,19.51,23,15.4.66,22.93-8.37,26.72-21.91.19-.67.36-1.36.49-2,5.22-29.23,16.65-52.53,51.12-54.34,37.38-2,74.5,19.35,87.78,50.58,6.11,14.37,6.68,28.91-.65,42.8-6,11.38-3.23,19.28,5.84,27.7,22.13,20.54,28.43,46.15,20.5,75-2.16,7.86-2.17,15,.65,22.5,3.82,10.17,6.12,21.95.76,30.83-11,18.16-9.43,33.44-.79,52.64,11.35,25.21-5,51.87-32.74,57.43-13,2.6-18.36,7.77-24.6,20-8.89,17.46-14.33,34.58-18.81,53.57-11.1,47-71.84,66.11-109.46,36.51-19.53-15.37-29.43-14-41.94,7.54-10.87,18.69-27.28,25.82-47.66,24.57-16.34-1-27.33-10.43-32.68-25.8-2.55-7.32-5.28-15.86,4.71-19.83,8.53-3.4,11.87,2.62,15.47,9.66,9.22,18,29.14,19.55,39.3,2,10.76-18.61,24.42-28.52,46.13-31.85,20.43-3.14,24.06-21,23.47-39.2-.26-8.05-3.91-19,8.47-20.08,13.17-1.15,12.72,10.46,13.37,19.45,1.09,15.09-.32,30.37-10.44,42-10.49,12-3.15,17.21,6.06,22.06,16.05,8.46,30,1,43.37-7.33,13.85-8.66,25.4-20.76,22.05-37.66-3-15-1.14-23.93,11.5-33.81,14.62-11.43,11.84-27.53,1.54-41.49s-22.89-14.63-36.29-3.78c-7,5.64-17.39,9.56-22.17,2.6s3.22-15.47,9.65-21.15c20-17.73,47.75-15.71,64.77,7.3,10.88,14.72,22,19.11,37.07,10,16.11-9.79,12-23.58,4.33-36.72-9-15.54-9-30.52,1-45.57,4.39-6.62,8.44-14.78,4.23-21.73-5.13-8.47-12.57-.19-18.76.91-29.59,5.26-57.43-13.43-58.49-40.12-.34-8.62.19-18.45,11.27-19.39,10.41-.88,11.73,7.2,11.36,15.94-.62,14.38,9.16,19.79,21.21,21.46,13.71,1.89,26-2.05,30.77-16.17,7.12-20.94,4-40.71-13.23-55.88S965,131.55,975,111.19c6.45-13.14,3.37-24.81-5.08-35.34-14.5-18-33.75-27.08-56.86-27.48-17.17-.3-27.81,7.84-31.19,25.07a142.89,142.89,0,0,1-4.8,18.34c-8.18,24.17-25.84,37.12-48.46,35.88-21.38-1.18-33.46-13-39.28-39.48-3-13.81-9.67-24.89-22.11-31.81-15.3-8.52-30-6.27-43.09,4.64C710.24,72.56,709,88,715.47,103.22c8.79,20.78,12.89,41.44,6.7,63.59-5.74,20.49-18.65,34.27-38.4,41.65-6.85,2.56-14.36,3.8-18.39-4.36-4.31-8.74,2-12.7,8.78-15.9,3.8-1.79,7.85-3.16,11.38-5.38,6.74-4.23,13.78-10.44,13.19-17.94-.8-10-11.21-5-17.21-6.3-24.73-5.49-39.5-19.86-43.72-45.14-3.68-22-16.81-35.15-39.08-38.08-23.48-3.08-36.41,12.53-29,34.84,2,6,5.44,11.4,7.83,17.24,7.15,17.47,2.15,32.19-12.39,42.81-15,11-30.41,8.69-44.33-3.29-2.64-2.27-4.77-5.15-7.07-7.8-11.61-13.33-25.58-21-42.87-12.83-16.27,7.66-16.59,23.07-14.41,38.34,2.79,19.53,16.83,26.11,34.16,28.48,10.22,1.39,19.18-2.41,28.43-6.12,16.92-6.8,33.08-4.83,47.62,6.7,5.91,4.68,10.65,10.31,4.93,17.8-4.7,6.16-11.32,5.68-16.71,1-11.48-10-22.75-6.93-35.28-1.93-24.05,9.58-46.85,6.08-67.57-9.74-.56-.42-1-1.12-1.63-1.31-30.54-9.66-47.47-27.8-50.72-62.25-1.85-19.49-31.17-26-48.85-14.45s-24.45,28.47-20.39,49.25c1.15,5.92,1.68,11.37-3.55,15.25s-10.37,1.33-15.6-1.48c-6.11-3.3-12.54-6.72-19.24-8-11.53-2.26-23.3-1.74-28,11.93-4.22,12.28-2.69,23.75,9.35,31.55,3.52,2.28,7.54,3.81,11.08,6.07,15.2,9.68,19.54,25.4,11.15,39.87-8.3,14.32-23.6,17.87-40.2,9.23-3.11-1.62-5.94-3.78-9.06-5.39-20.88-10.78-32.61-7.92-42.39,10.19-10.19,18.88-3.93,45.31,12.15,54.45,8.5,4.83,11.12-2.61,15.59-6,27.41-20.73,56.63-31.09,91-15.76,5.11-13.91-.43-26.5-2.2-39.24-5.34-38.4,17-66.73,55.11-69.72,7.86-.62,16.94-1.77,18.66,8.45s-6.41,11.82-14.72,13.46c-34.24,6.77-41.53,18.29-35.2,53.3,4.47,24.76,4.39,48-11.49,70.42-14.33,20.22-8.13,36,14.42,48,23.68,12.61,32.45,27.42,27,46.22-2,6.87-4.79,14.49-13.81,12.81-8.17-1.51-11.34-7.51-8.51-16,4.14-12.34-3.53-17.54-13-22.68-35-19-42.33-35.72-29.42-72,4.41-12.39-1-15.13-9.95-17.5-29.82-7.88-74.65,25.52-74.83,56-.1,16.64,10.31,25.32,24.95,29.94,15.48,4.88,27.67,13.62,34.58,28.68,3,6.62,5.61,13.92-2.28,18.67s-13.43.57-16.63-7c-5.19-12.25-15.75-17.28-27.34-21.21-14.74-5-25.37-14.48-31.78-28.85-2.33-5.21-1.17-14.09-10.35-13.4-6.73.51-11.22,5.48-14.35,11.28-1.67,3.08-2.72,6.49-4.35,9.6-2.94,5.61-7.55,8.89-13.76,6-5.59-2.58-8.35-7.59-6.45-14,5.66-18.92,16.62-32.34,37.37-35.37,4.58-.67,9.86,1.06,12.31-5.38,2.82-7.42-3-9.83-6.75-13.7-25.81-26.51-30.64-49.3-16.62-77.9,13.85-28.25,37.69-37.25,66.53-25,3.23,1.37,6.26,3.19,9.45,4.64,5.3,2.41,11.5,10.42,16.25,2.94,5.17-8.14-5-9.64-9.79-12.5-14.75-8.75-24.87-20.14-25.71-38.35-1.53-32.94,17.12-52.37,50.13-49.31,11.91,1.11,16.33-.41,19.94-12.93,9.12-31.6,37.43-50.39,66.5-47.11,28.3,3.19,45.37,23.26,49.81,58.62C427,178,426.34,182.59,433.74,185Z"/><path d="M1004.59,437.27c2.71-8.2-9.28-25.19,8.71-26,17.35-.75,12.41,17.53,13.47,28.07,2.17,21.56-3.5,42-15.72,60-5.21,7.67-6.44,13-1.25,22.18,33.4,59.21-.81,117.94-68.42,118.82-7.71.1-16.2-3.72-19.65,9.08-2.72,10.09-.07,14.41,7.42,20.71,25.61,21.53,27.8,57.38,2.33,79.23-16.39,14.06-19.36,26.31-16.48,47.32,6.93,50.59-33.73,88.69-84.27,81.62-11.59-1.62-19.05.05-27.84,8.06-21.86,19.94-48.22,28-77.93,23.78-7.7-1.09-14.41-3.71-13.54-12.66.88-9.18,8.07-10.16,15.8-9.29,28.76,3.26,52.68-5.72,70.72-28.7,5.53-7,11.64-8.11,20.31-6.29,23.13,4.87,46.53,8,63.69-14.2,16.59-21.5,16-44.12,2.95-67-5.71-10-1.21-15.24,7.12-20.42,8.88-5.53,17.94-11.32,25.32-18.62,12.21-12.09,11.92-26.47,2.77-40.35-9.38-14.21-20.36-10.07-32.44-2.76-6.37,3.86-14.48,5.2-22,6.69-8.14,1.61-16.43.61-17.68-9.63-1.13-9.33,6.45-11.52,13.77-12.38,10-1.19,19.13-4.33,26.83-11.05,17.19-15,18.13-37,1.53-52.55-5.18-4.84-9.21-8.94-4.7-15.87,5.2-8,11.93-5.62,18.39-1.89a40.6,40.6,0,0,1,8.31,6.39c20.57,20.44,38.69,23.78,61.81,11.22,20.58-11.18,30.43-32.93,25.83-57.26-.51-2.74-.74-6.11-2.44-8-22.81-24.85-17.93-47.91,1.94-72.27C1006.6,464.31,1005.62,450.63,1004.59,437.27Z"/></svg>