<svg id="Ebene_1" data-name="Ebene 1" xmlns="http://www.w3.org/2000/svg" viewBox="0 0 1251.41 1080"><path d="M335.9,389.82c45.9-.82,87.58-16.8,130.05-29,11.76-3.38,26.26-7.63,26.4-21.35.17-16.57-18.3-6.89-25.64-12.81-25.74-20.75-49.13-7.92-72.57,3.46-13.4,6.51-24,3-37.13-2.69-49.25-21.33-98.13-45-150.57-56.69-39.38-8.79-79.88-12.47-117.91-27.3-8.08-3.15-17.2-4.57-24.28-9.18C31.67,213,31.05,201,58.55,173.46c25.56-25.56,55.79-44.31,90.34-52.49,68.58-16.24,139-26.95,209-26.68,78.55.31,137.51,41.46,172.23,113.89C538,224.62,540.38,244,555,257.8c18.14-41.91,43.15-76.89,78.23-103.82,22.39-17.18,70-.92,78.56,25.93,2,6.43,4.08,12.61,12.4,14.47,10.53-7.36,1.18-15.62.08-23-9.61-65,40.58-112.16,103.47-96.18,9.64,2.45,18.45,4.21,28.75,3.86,28.25-1,52.94,8.33,63.29,37.41,7.85,22.06,17.07,20.3,32.7,7.36,50.8-42,107.64-72,172.6-86.87,31.4-7.16,52.71,1.36,70.36,27.92,41.26,62.12,35.41,108.07-21.91,180.88-35.41,45-81.15,69.75-136.64,78.34-30.64,4.74-60.08,13-86.76,28-11.87-31.26-11.42-66.83-57.36-73.77-23.35-3.53,5-18.92,3-29.66-44.09,12.09-66.82,39.82-79.05,96.73,9.49-.43,10.66-9.63,15.49-14.56,16.83-17.13,29-16.16,50.33-1,35.21,24.94,33.08,36.84-4.09,54.4C860,393,860.39,418.58,848.88,434.62c-7.49,10.44-14.8,28.24-28.09,23.25-14.85-5.57-8.09-22.26-3.41-35,2.87-7.83,9.29-18.91-2.28-22.75-10.93-3.63-14,9-16.05,16.73-10.19,38.33-19.09,77-29.24,115.36-2.12,8-2.18,20-11.85,21.85-11,2.07-13.09-10.37-16.59-17.56-19.93-40.95-67.51-43.25-97.3-70.34-4.15-3.77-11-1.08-14.42,4-4.08,6-3.31,12.84.32,18.78a120.89,120.89,0,0,0,36.4,37.78c6.39,4.27,14.62,6.37,19.88,11.6,10.14,10.07,30.31,18.73,17.42,37-15,21.22-26.27-1.18-37.72-7.75-61.61-35.4-122.65-71.82-184.27-107.21C435.19,433.6,393.18,397.19,335.9,389.82ZM321.82,182.45c41.68,29.49,78.47,65.76,122,93.51C412.72,232.9,372.83,200.9,321.82,182.45ZM533.93,352.81c37.8-11.84,73-4.52,108.18.8C564.09,310.42,538.16,304.48,533.93,352.81ZM979,211.28c.4-5.52-.93-10.52-6.38-9.7-12.16,1.83-24,6.85-28.49,18.79-2.69,7.21,5.42,11.93,12.3,11.12C968.38,230.09,974.83,221.21,979,211.28Z"/><path d="M459,612.93c-16.7,28.05-46.42,28.44-65.55,48.47,18.13,2.07,29.62-9,43.54-10.73,7.47-.91,16.05-5.58,21.1,2.76s-2.29,14.12-7.6,19.68c-31.83,33.33-58.4,71.94-100.46,94.87-13.78,7.52-25.56,19.61-31.5,35.2,17.67,12.6,48.85-45.07,54.26,13.52,13.32-7.11,11-29.83,21.22-31.45,33.76-5.35,39.66-22.49,31.23-51.8-1-3.61,7.26-10.39,11.87-15.07,32.15-32.62,71.37-55.09,111.31-76.36,9.67-5.16,23.5-11.18,27.31,4.58,7.81,32.29,18.46,11.9,29.37,3.24,17.24-13.67,34.43-27.42,52.11-40.51,9.31-6.89,18-18,32-10,5,2.85,10.41,8.74,7.58,13.23-7.26,11.51-14.65,25.08-31.43,23.82-15.33-1.15-20.86,9.83-21.13,20.23-1.44,54.69-35.72,92.94-64.54,134.06-5.37,7.67-16.81,15.49-5.27,25,20.37,16.71,11.44,35,6.12,54.05-20.91,74.82-67.22,129.73-131.15,172-25.11,16.63-49.29,15.29-75.3,5.31-78.09-29.94-121.38-90.25-129.51-169.64-14.23-139,45.49-229.39,188-262.2C439.92,613.55,447.64,613.86,459,612.93Z"/></svg>