<svg id="Ebene_1" data-name="Ebene 1" xmlns="http://www.w3.org/2000/svg" viewBox="0 0 1062.3 1080"><path d="M764.09,227.64c20.07-18.81,40.6-37.15,60.06-56.58,13.45-13.43,24.87-14,38,.17q22.23,23.9,46.19,46.15c13.79,12.81,15,24.43,1.27,38.14-13.07,13.06-25,27.23-42.09,46,31.27-8.09,56-13.77,80.23-21C961,276.5,970.66,279,980,289c14.36,15.33,29.68,29.76,44.42,44.74,20.45,20.8,18.42,30.89-8.89,42.06Q835.41,449.39,655.11,522.47a94.76,94.76,0,0,0-37.6,27c-117.24,135.76-235.09,271-352.06,407-20.07,23.34-42.62,37.78-73.84,34.15-10.64-1.23-12.78,3.85-14.65,12-2.67,11.68-5.73,23.32-9.42,34.72-3.11,9.62-10,15.38-20.6,12.94-11.23-2.59-16.45-10.49-13.91-21.87,3.1-13.89,7.14-27.58,10.81-41.34,1.52-5.73,4.61-12.06-2.63-15.89-6.32-3.34-9.42,2.75-12.91,6.14-12.37,12-24.37,24.45-36.67,36.55-8.79,8.65-18.51,10.5-27.5.86-8.15-8.74-6-17.89,1.86-25.91,12.64-12.83,25.48-25.46,38.12-38.29,3-3.06,7.48-6,5-11.29-2.89-6.27-8.33-5.12-13.6-3.69-13.75,3.73-27.46,7.6-41.25,11.16-11.92,3.07-21.33-.26-24.52-12.87-2.94-11.63,3.66-18.36,14.34-21.7a25.5,25.5,0,0,1,4.38-1c27.34-3.38,46.2-12.26,42.75-46.43-1.85-18.36,12.95-32.47,26.62-45Q288.79,662.94,459.45,505.89a128.8,128.8,0,0,0,27.18-35.3q107.64-202.65,215.77-405c15.59-29.24,23.06-30.45,46.1-7.64,13.34,13.2,26,27.13,40,39.55,13.11,11.62,15.92,23.08,8.39,39.56-13.08,28.61-24,58.19-35.85,87.36ZM729.5,91.7c-4.59,8.41-8.59,15.59-12.45,22.83Q616.42,303.1,516,491.75a135.23,135.23,0,0,1-28.52,37.09Q315.66,686.37,144.32,844.37c-24.15,22.24-26.44,42.14-8.38,69.42A110.41,110.41,0,0,0,160.48,940c30.07,23.47,52.81,21.33,77.71-7.4q178.44-205.9,357-411.75a113.27,113.27,0,0,0,19.51-32.49Q681.52,323.68,748.79,159.2C764.3,121.19,764.28,121.18,729.5,91.7ZM655.68,483.58,985.85,349.05c-26.42-34.21-26.42-34.18-64.14-24.25Q817.4,352.28,713.07,379.62c-8.74,2.29-17.27,3.6-21.24,13.88C681.06,421.39,669.61,449,655.68,483.58Zm59.79-142.8c48.06-11.08,95.88-15.65,124.15-61.52,7-11.28,17.23-20.78,27-30,19.57-18.34-4-22.87-10.23-32.34-6.74-10.23-13.89-15.09-26-2.85-30,30.3-61.64,59.1-93.17,87.9C726.25,312,718.74,323.32,715.47,340.78Z"/></svg>