<svg id="Ebene_1" data-name="Ebene 1" xmlns="http://www.w3.org/2000/svg" viewBox="0 0 692.17 1089.77"><path d="M470.16,18.67h14c19,15.27,19.41,39.62,29.14,59.41,8.13,16.53,3,27.18-12.37,36.51-39.35,23.95-67.75,58.38-91.38,98.78,80,31,115.16,90.44,116.59,173.68,1.17,68.45,27.77,127.79,70.29,181,117,146.39,85.89,348-69.08,452.38-41.45,27.91-88.26,40.63-136.61,49.25H330c-4.37-1.35-8.66-3.31-13.14-4-84.16-12.58-151.81-53.37-201.9-121.61-82.39-112.23-78.72-263.63,8.84-371.94C171,513.83,197,448.22,198.67,373.29,200.6,285.52,253.25,224,340,209.46c9.2-1.54,15.87-3.31,17.25-14.63C366.6,118.09,407.73,61.51,470.16,18.67Z"/><path d="M235.81,30.23c24.39,1,47.82,5.77,69.32,17.54,45.6,25,55.36,72.89,19.81,110.76-47.45,50.54-107,65.57-174.25,50.64-37.95-8.42-74.16-22.12-109.2-38.75-18.94-9-21.17-19.2-6.64-33.89,32.8-33.16,67.82-63.61,109.08-86.33C172.79,34.3,203.73,30,235.81,30.23Z"/></svg>