<svg id="Ebene_1" data-name="Ebene 1" xmlns="http://www.w3.org/2000/svg" viewBox="0 0 1014.93 1014.35"><path d="M687.07,995.76c9.48-8.43,18-16.08,26.58-23.61q51.9-45.37,100.61-94.15c6-6,12-12,17.68-18.32a59.92,59.92,0,0,1,20.11-14.43c18.51-8.55,36.25-18.31,50.53-33.3,6.49-6.8,12-14.24,15.5-24.48C853.49,820.63,786.32,844,716.49,862.69c12.77-25.24,35.92-37.37,57.94-51.18-3.33-2.65-6.34-2-9.35-1.08-26.19,7.59-48.73,21-67,41.43-6.18,6.9-13.18,7.42-20.32,2-2.86-2.18-3.8-4.87-1.63-7.75,3.58-4.73,5.36-10.3,8-15.46,12.79-25,34.17-39.69,59.73-49.28,12.16-4.56,24.69-7.87,37.27-11.07,13-3.3,24-9.34,31.1-21.48,4.17-7.09,11.48-10.59,19.32-12.27,18.81-4,31.61-15.34,40.53-31.9,6.78-12.59,13.9-25,20.89-37.47,1.48-2.64,3.62-5.33,0-7.77-3.47-2.33-6.66-1.52-9.19,1.71a213.26,213.26,0,0,1-29.66,30.94c-26,22.21-55.91,37.75-87.34,50.5-38.66,15.68-77.4,31.19-117.4,43.28-1.68.51-3.33,1.41-5.71,1,8.11-14.94,15-30.25,27-42.49,11.17-11.47,25.46-15.48,40.73-18a244.37,244.37,0,0,0,75.47-24.88,64.32,64.32,0,0,0,11.4-7.14c6.56-5.48,8.82-12.48,7.32-21.55-23.59,17.05-49.92,25.34-78.44,29,.67-2.52,2.57-3.29,4-4.41,21.09-16.54,42.66-32.5,61.36-51.86,2.77-2.87,5.5-5.8,8.25-8.69A90.74,90.74,0,0,1,834,614.57a99,99,0,0,0,24-13.16c17.54-13.25,26.63-31,26.36-52.84a51.38,51.38,0,0,1,11.21-33.68c11.17-14.38,15.74-30.87,14.38-49.1-1.05-14.12-1-28.22,4-41.87-6.36,6.11-8.75,13.87-9.16,22.24-.53,11.12.15,22.31-2.33,33.29a81.74,81.74,0,0,1-18.1,36.21c-6.86,7.9-10.88,17.13-10.28,27.38,1.58,27.16-11.76,44.72-34.64,56.68a55.74,55.74,0,0,1-8.56,3.83c18.57-35.72,33-72.27,26.68-113.6-.9-.32-1.18.36-1.38.91-7.47,20.37-21.6,35.36-39.06,47.39-37.55,25.87-76,50.35-114.1,75.43a21.16,21.16,0,0,1-2.28,1.07c1.66-10,6.68-17.33,14.1-23.12,8.26-6.45,17-12.22,24.12-20.1,15.88-17.65,23.63-39.06,28.81-61.66.81-3.52,2.09-7,1.93-11.2A30.1,30.1,0,0,0,754,514.94c-8.52,20.92-22.81,37.2-39.47,52-22.88,20.28-42.55,43.62-61,67.85-12.72,16.67-28.84,28.3-47.59,36.87-2.42,1.1-4.86,2.17-7.23,3.39-2.15,1.1-3.55,1-3.59-1.81-.31-22.29-1.35-44.64,6.68-66.1a98.2,98.2,0,0,1,12.27-22.2c25.86-36.58,53-72.18,81.94-106.37,8.56-10.1,18.84-17.72,31.81-21.42,41-11.71,63.74-39.95,72.94-80.57,4.54-20,4.64-40.25,3.76-60.57,0-.25-.35-.49-.77-1.05-7.5,5.32-12,12.68-14.42,21.3-4.47,16.13-10.5,31.53-19.9,45.48-18.71,27.76-45.36,44.39-76.7,54.25-13.07,4.11-26,8.27-36.82,17.13-16.07,13.11-24.09,30.55-25.69,50.64-1.72,21.7-11.94,38-28.61,51-10.91,8.46-22.26,16.35-32.11,26.14-13.72,13.65-23.9,29.36-28.85,48.22a11.89,11.89,0,0,1-.83,1.84c-4.75-5.24-7.18-13.77-5.69-23.65,7.85-52.43,22.37-102.54,51-147.89,6.41-10.14,14.45-16.46,26.11-19.87a196,196,0,0,0,87.29-53.08c11.38-11.82,16-26.19,13.85-42.6a16.78,16.78,0,0,0-.69-2.33c-3.11,2.75-5,6-6.91,9.2-5,8.06-9.68,16.31-14.76,24.32-8.45,13.34-19.31,23.71-35.36,27.3-1.09.24-2.16.78-3.69-.08,33.21-30.92,43.36-69.67,38.72-114.23-4.6,3.49-6.52,7.87-7.79,12.66-1.86,7-1,14.24-1.52,21.36a92.1,92.1,0,0,1-19.89,51.31c-5.69,7.25-10.51,14.88-13.24,23.82-2.34,7.64-7.69,13.23-14.37,17.32A232.07,232.07,0,0,1,609,427.21c3.2-5.3,6.37-10.62,9.6-15.91,13.27-21.7,27-43.18,35.87-67.21,3.39-9.17,6.24-18.51,6.8-28.61-3,4.53-6,9-8.92,13.58C628.5,365.58,603,401,579.89,437.94c-20.11,32.22-38.31,65.42-52.11,100.89a27,27,0,0,1-1.54,2.71c-1.14-11-2.19-20.91-3.2-30.83-1.94-19.2-3.71-38.42-5.87-57.6-.86-7.61.42-14.14,4.76-20.73,20.29-30.82,35-64.55,49.89-98.12,7.9-17.76,16-35.44,24-53.16a4.78,4.78,0,0,0,.54-2.27C563.8,317.05,539.11,360.26,514.66,404c-.85-9.38-1.72-18.76-2.54-28.15-2.59-29.66-5.81-59.28-6.62-89.07-1.46-54.25,5.89-106.56,34.32-154.17.4-.69.65-1.47,1.18-2.67A51.25,51.25,0,0,0,518.48,137c-26.17,15.28-43.87,37.8-55.3,65.53-8.88,21.55-13,44.27-16.17,67.2-2.66,19.23-5.35,38.45-8.47,57.68-.77-11.79-3.54-22.75-11.14-32a42.36,42.36,0,0,0-5.4-5.86c-9.14-7.62-12.35-17.79-13-29.17-.94-16.28.76-32.61-1-48.87-1.34-12.66-3.87-25-10.13-36.24-.73-1.31-1.56-2.56-2.4-3.8a11.34,11.34,0,0,0-1.65-1.42c4.92,15.22,6.25,30.23,5.94,45.39-.24,11.64-1.05,23.26-1.39,34.9-.62,21,4.8,39.52,22.64,52.67,3.8,2.8,5.62,6.48,6.15,11.38,1.81,16.7,4.86,33.25,6.32,50A123.3,123.3,0,0,1,434,382c-11.93-5.45-22.38-12.32-27.8-24.12-12.35-26.9-24.11-54.08-28.56-83.72a123.27,123.27,0,0,1-1.44-28.37c1.25-15.15-1.94-29.44-7.44-43.35-2.67-6.75-5.72-13.35-9.06-19.9-1.13,3.28,0,6.37.34,9.47,2,18.39,2.21,36.86,2.46,55.32.49,37,6.22,72.83,23.37,106.17a195.49,195.49,0,0,0,21.55,32.94A26.07,26.07,0,0,0,419.35,395c8.4,3,12.18,8.1,11.52,17.1-1,13.59-2.8,27.13-4.32,40.68Q420.79,504.13,415,555.46c-1.06,9.42-2.14,18.83-3.26,28.72-3.78-2-5.46-5.45-7.08-8.66-7-14-14.66-27.61-22.54-41.11-4.87-8.33-9.67-16.69-14.53-25-5.37-9.22-4.46-14.25,4.08-20.34,10.88-7.76,16.17-18.39,16.12-31.55a112.79,112.79,0,0,0-5.05-31.92c-.53-1.77-.81-3.84-2.93-5.32-2.75,9.14-1.78,18.31-2.22,27.34-.39,8-.7,16-3.71,23.52-3.24,8.14-8.75,14.34-16.77,19.26-10.05-64.5-24.13-127.32-54.59-185.31-1.39,9.17,0,18.07,2.11,26.91A183.23,183.23,0,0,0,312,355.24c7.63,19.75,10.23,40.58,13.3,61.29,4,27.29,13.13,53.19,21.3,79.36q5.94,19,11.85,38.08c.29.93.92,1.81,0,3.22-21.78-19.68-39.67-42.52-56.68-66.15s-29.25-49.75-38.22-78.76c-6,26.32-5.82,49.93,14.75,69.13,3.08,2.87,4.95,6.64,6.46,10.56C303,519.33,333,557.83,373.15,588.6A23,23,0,0,1,381.5,600,469.93,469.93,0,0,0,400,647.34c5.62,12.23,4.72,23.83-1,35.49-1.11,2.24-2.26,4.45-3.53,6.6a23.3,23.3,0,0,1-32.87,7.86c-4.6-2.86-6.24-7.2-6-12.35a111.78,111.78,0,0,0-.43-18.92c-1.42-10.82-5.74-20.12-14-27.36A14.68,14.68,0,0,1,337,627.28c-.17-6.32,1.18-12.55.47-18.92-1.05-9.48-3.75-18.37-9.36-26-13-17.69-26.27-35.24-42.74-50-1.23-1.11-2.52-2.14-4.38-3.71.5,2.85,2,4.34,3.12,6,9.44,14.5,18.9,29,29.16,42.94,9.88,13.44,15.45,28.11,13.72,45.19-1,9.67,2,18,10.36,24,5.43,3.9,8.65,9.63,10.72,15.91,2.76,8.41,3.59,17.14,4.4,26.76-5.94-4.5-10.13-9.57-14.22-14.67-11.63-14.52-19.84-31.09-28.21-47.55-11.38-22.39-22.19-45.08-36.62-65.76-6-8.6-12.37-16.84-20.22-24-20-18.18-29.29-42-34.07-67.85A530,530,0,0,1,210,362.88c-2-.59-2.35,1.13-3,2-9.13,12.63-11.93,26.95-10.43,42.13,2.19,22.18,4.82,44.32,7.24,66.48a15,15,0,0,1-.54,6.8c-7.53-9.19-15.26-18.24-22.56-27.61-19.78-25.36-36.58-52.34-44.91-83.85a163.09,163.09,0,0,1-3.66-65.26c-4.88,1.22-7.47,4.66-9.58,8.22-9.86,16.65-16.43,34.52-18.38,53.85-4,39.81,8.48,75.48,28.15,109.18,16.54,28.32,38.15,52.85,59.2,77.77,15.15,17.93,29.95,36.13,44,55,24.31,32.57,38.74,69.13,45.53,108.94,3.5,20.55,8,40.78,17.86,59.43,4.23,8,9.37,14.65,18.25,18.17,7.57,3,12.73,9,15.78,16.58,5.45,13.49,6.59,28,10.63,43-11.26-5.79-20.21-12.84-28.89-20.28C284,807.06,257.62,776.68,233,744.68c-4-5.16-5.24-10.87-4.51-17.35q1.89-16.62,3-33.3c.46-7-1.08-13.84-6.24-18.9-6.4-6.26-13.12-12.18-17.65-20.17.38,6.1,2.81,11.47,4.9,16.92,4.21,11,8.86,21.89,10.12,33.8a50.66,50.66,0,0,1-2.46,21.68c-24.41-33.6-49.5-65.54-69.67-101,3.28,19.31,9.78,37.52,17.78,55.23s17.78,34.52,28.22,51.6c-4.43.81-8-.36-11.51-1.55-15.3-5.15-25.18-15.12-27.64-31.52a36.53,36.53,0,0,0-14.11-24.34A163.3,163.3,0,0,1,102.56,629c-.55-1-.84-2.17-2.47-2.67a82.23,82.23,0,0,0,9.37,25.19,86.42,86.42,0,0,0,18.17,23C139,684.67,147.31,696.35,149.57,712c1.17,8.06,6.36,14.14,13,18.83a39.09,39.09,0,0,0,13.91,6.56c18.82,4.27,33.47,14.9,44.33,30.3,24.27,34.42,51.33,66.78,74.78,101.79,6.85,10.24,12.87,21,19.05,31.62,1.39,2.4,1.95,4.9.77,7.58-1.52.61-2.16-.67-2.92-1.37-44-40.41-88.3-80.56-130.13-123.27C130.59,731.16,83.21,674.86,45.66,610.81c-.56-.95-.85-2.19-2.45-2.64,3.38,18.66,8.8,36.59,14.51,54.48,11.8,37,30.19,70.86,48.24,104.94,22.25,42,44.93,83.82,62.6,128.07.79,2,1.52,4,2.37,6.19-.76.09-1.34.35-1.62.16-27.9-19-54.4-39.4-75.14-66.53-26.9-35.2-43.46-74.9-51.93-118.08C35.1,681,31.74,644,28.16,607.07q-4.26-44-6.52-88.09c-2.11-40.29,5.82-77.58,31.9-109.91C70.67,387.82,76,362.51,76.47,335.7c.26-15.24-.42-30.63,3.65-45.63,5-18.54,15.14-33.58,32.12-42.65,38.17-20.41,69.31-48.82,95.57-82.7,28.91-37.29,66.29-63.1,108.62-82.51,45.35-20.79,92.81-35.31,141.17-47.1C476,30.63,494.37,25.77,513.14,23c18.45-2.73,34.89,2.3,49.52,13.72s31,18.58,49.7,20c9.25.7,18.23-1.08,27.31-2.09,21.71-2.4,40.61,3.5,54.16,21,10,12.94,22.85,20.48,37.86,25.37,13.27,4.32,26.57,8.57,39.82,13,18.1,6,31,17.5,37.87,35.6,6.71,17.78,19.31,29.15,37.82,33.74,21.29,5.28,35.57,18.82,44.59,38.22,9.2,19.77,16.17,40.41,23,61.09,8.79,26.55,23.43,49.33,43.38,69,12.16,12,24.95,23.64,33.16,39.06,11.6,21.8,11,43.83.62,65.71-7.12,15-12.86,30.3-14,47-1.07,15.19,1,30.09,7.12,44,12.28,28.08,8.67,54.72-5.23,81-6.3,11.89-12.12,24-18,36.17a106.46,106.46,0,0,0-9.09,66.05c6.55,37.85-4.59,70.07-32.95,96C867,875.05,810.06,918.47,753.23,962c-16.42,12.57-34.89,21.95-53.24,31.38C695.91,995.46,692.83,996,687.07,995.76ZM813.38,450a45,45,0,0,0-9.72-.61c-10.29.69-19.13,5.25-27.83,10.17-16.68,9.44-34.38,15.71-53.52,17.73-7.53.8-15.09.32-23.46.37,5.7,6.82,12.74,7.95,19.87,7.7C753.72,484.2,783.64,469.19,813.38,450ZM172.86,578.76c13.08,15.24,45.25,31.57,54.61,28C210.91,594.13,190.76,588.77,172.86,578.76Z"/></svg>