<svg id="Ebene_1" data-name="Ebene 1" xmlns="http://www.w3.org/2000/svg" viewBox="0 0 1647.08 879.32"><path d="M145.22,518.55c-7.51-1.71-14.52-3.47-21.56-3.32-20.46.46-38.12-6.63-54.06-18.79-7.27-5.55-14.34-11.38-21.43-17.16a42.38,42.38,0,0,1-6.73-7.35c-2.52-3.3-2.79-6.32-.86-10.1,2.82-5.52,3.39-11.77,4.77-17.75,3.34-14.48,12.57-24.24,25.51-30.7,2.36-1.17,4.15-2.22,5.32-4.69,2.94-6.18,8.82-8.81,14.67-11.3,3.48-1.48,6.78-2.75,6.8-7.46,0-1.74,1.56-2.71,3.44-3.06a16.41,16.41,0,0,0,10.29-6.6c6.28-8.49,16.21-11.42,24.67-16.51,3.64-2.19,6.29,1.11,7.87,4.12,2.12,4.05,3.79,8.34,6,12.4.36-4.54-1.51-8.43-3.13-12.4-2.56-6.27-1.45-8,5-8.89,5.31-.71,10.48-1.35,15.72.78,1.6.65,3.88-.33,5.84-.64s3.93-.74,5.74.54c-.53,2.73-3.82,3.32-4.52,6.59,6.07-1.95,12.23-.7,18-2,6.16-1.42,11.79-.53,17.61,1.27s11.83,3.78,16.83-2.53c1.79-2.24,5.22-1.31,7.77-1.55,1.44,1.84-2.25,3.3-.15,4.57s3.66-.77,5.19-2c1.77-1.37,2.58-3.44,3.67-5.3a6.35,6.35,0,0,1,5.68-3.46c.86,0,2.24-.38,1.74,1.39-.25.89-1.13,2,.39,2.41a2.47,2.47,0,0,0,2.95-1.38c.9-2.08,4.3-3.93.7-6.71-.94-.73,4-8.59,5.35-8.31,5.35,1.08,9.7-1.58,14.28-3.44,2.05-.83,4.21-2.18,4,2-.07,1.5,1.59,2.07,3,1.95,2.33-.21,5-.41,5.68-3.15,1.39-5.82,5-5.41,9.1-3.51,4.81,2.23,8.67,2.18,10.9-3.49a3.6,3.6,0,0,1,1.81-1.62c11-5,21.85-10.8,34.67-9.18,1.84.23,4,.76,5.64-1.07-.47-2.24-3.49-.92-4.3-3.69,2.91,0,5.63.07,8.34,0a61.57,61.57,0,0,0,7.93-.61c1.87-.31,4.4-.49,4.47-3.11s-2.66-1.93-4.37-2.92c2.59-2.21,5.54-2,8.38-1.75,4.28.36,6.3-1.13,8.74-5.2,4.81-8,12-14.21,21.86-15.66,2.25-.33,2.94-.78,2.48-3a7,7,0,0,1,4.45-8.08,23.78,23.78,0,0,0,12.74-11.29,3,3,0,0,1,2.8-1.59c.27,2.51.54,5.2,2.18,7.25,4.37,5.45,3.12,10.81,0,16.22a19.92,19.92,0,0,0-1.72,3c-.76,2.19-.12,4.23,2.06,4.93,2.41.78,3.07-1.5,3.56-3.18a46.23,46.23,0,0,0,2.29-11.69c.2-8.12,2-9.92,9.84-11.5,4.85-1,7.54-4.56,9.93-8.46,1.71-2.78,3.52-5.4,7.4-4.69.95.17,2.25.23,2.25,1.49,0,.59-.88,1.29-1.5,1.73-2.05,1.46-5.79,2-4.81,5.4,1.06,3.68,4.9,4.72,8.18,4.42,11.69-1.08,23.67-.37,34.82-5.16a12.25,12.25,0,0,1,3.31-1.09c3.89-.43,5.65-1.54,4.8-6.31-1-5.34,2.42-10.17,4.41-15.06.22-.55,1.09-1.37,1.41-1.27,6,1.92,9.7-5.87,15.74-3.61a3.68,3.68,0,0,0,1.94-.28c.24-.07.42-.41.63-.64-.09-.29-.11-.78-.29-.84-17.82-6.59-27-22.66-38.4-36-7-8.21-8.4-19.71-9.25-30.57a17.64,17.64,0,0,1,3.12-10.87,20.44,20.44,0,0,0,2.46-5.94c2.43-9,9.37-11.34,17-5.8.93.67,1.77,1.55,3.06,1.51.17-.25.54-.58.48-.73-2.68-6.63-1-10.69,6.29-11.47,7.77-.84,14.21-4.29,20.92-7.57,3.21-1.56,7.06-4.08,10.1-.75,3.32,3.64,7.48,7.63,4.3,13.63-.71,1.34-1.33,3.08.56,3.81,1.51.57,2.23-1.12,2.93-2.17a8.28,8.28,0,0,0,0-9.42c-1.44-2.38-3.1-4.63-4.72-7,2-.93,3.39.11,4.81.78,3.12,1.47,6.05,2.49,7.77-1.81.66-1.68,1.55-1.33,2.59-.37s1.29,2.37,2.74,2.7c1-.07,1.05-.89,1-1.45-.31-2.66-1.21-5.75,3.35-4.94,3.08.55,6.8.86,4.89,5.77-.56,1.45.22,2.62,1,3.7a10.23,10.23,0,0,1,1.88,6.58,9.68,9.68,0,0,0,2.53,7.33c.94,1.11,2.11,2.13,1.7,3.92-1.11,4.9,1.79,6.78,5.93,7.21s7.85,1.47,9,6.29c.21.83,1,2,2.16,1.55a2.19,2.19,0,0,0,1.08-3,28.43,28.43,0,0,1-1.5-11.27c.19-2.84-2.44-4-4.74-4.15-4.16-.28-1.21,3.76-3.48,5.72-3.8-10.35-4.29-22-13.21-30.1,3.87-1.87,6.68-1.18,8,2.38,1.91,5.26,6.09,9.62,6,15.67,0,2.11,1.27,2.43,2.95,1.19a5.6,5.6,0,0,0,2.5-5.59c-.25-1.95-.44-3.91-.66-6,2.87-.1,3.44,2.1,4.28,3.74,2.33,4.59,5.24,8.28,10.47,10,3.6,1.18,5.75,4.37,7.48,7.71.71,1.39.75,3.21,2.47,4.21a2.82,2.82,0,0,0,.68-3.58c-1.25-3.16-1.15-5.67,2-7.77,2.11-1.39.88-3.07-.74-3.86-3.13-1.5-3.13-3.68-2.33-6.61a10.08,10.08,0,0,0-1.7-8.54c-1-1.4-2.9-2.74-1.5-4.79s3.32.58,5.24-.3c-.69-2.86-2.84-2.61-4.95-2.56-1.67,0-3.09-.5-2.89-2.51s1.74-2.37,3.32-2.11c2.61.42,5.26.7,7.58,2.25,1.74,1.16,2.6,5.27,6,1.77.65-.67,1.8,1.11,2.53,2,3,3.56,5.95,7.16,9,10.71,4.25,5,10,5.55,16,5.13.85-.06,1.77-.09,2.06-1.05a1.85,1.85,0,0,0-1.34-2.33c-7-2.22-5.14-9-7.09-13.76-.64-1.55.58-2.57,2.25-2.27,6.58,1.19,13.2-2.6,19.76.18A1.58,1.58,0,0,0,677,113a17.21,17.21,0,0,1,22.54-.7c1.13.91,1.87,2.32,3.74,1.2s3.12.12,4.11,1.6c1.41,2.12,3.1,2.51,4.89.61,2.27-2.42-.2-3-1.68-3.85a6,6,0,0,1-3.2-4.08c4.88-.86,9.47-1,13.42,2.56,2.82,2.56,5.38,2.65,8.25-.15,3.4-3.32,6.43-.93,9.27,1.21.88.67,1,1.5.11,2.52-2.2,2.54-2,3.37,1.21,3.3s5.73,2.67,9.61,1.43c-2.34-2.53-5.45-4.89-1.4-8,1.52-1.16,2.64-1.9,3.89.4,1,1.94,2.51,5.07,5.09,3s0-4.37-1.61-6.21a11.44,11.44,0,0,1-.94-1.51c6.23-.61,12.26-2.92,18.06,1.8-1.25-2.3-2.5-4.35.75-5.74s3.62,1.28,4.54,3c1.86,3.57,2.22,7.21-.49,10.84,2.9.38,3.74-1.45,4.57-3,1.45-2.63,2.74-5.16,6.44-3.26a1.18,1.18,0,0,0,1.87-.87,1.55,1.55,0,0,0-1.23-1.86,22.15,22.15,0,0,1-4.23-1.43c-1-.61-3.77.12-2.83-2.33.73-1.92,2.12-4.37,4.77-3.31,3.22,1.28,6.4,3.09,8.24,6.19,1.48,2.48,2.77,5.34-1.83,6.4a4.54,4.54,0,0,0-2.91,2.59c-.56,1.17-1.62,2.36-.22,3.56a2.55,2.55,0,0,0,3.25,0c2-1.41,4.06-2.65,5.15-5.21,2.6-6.15,3.82-6.48,9.7-3.61,1.28.62,2.56,1.85,4-.17-2.4-2.76-5.95-3.24-9-4.56-1.32-.57-3.38-.86-2.71-2.83.81-2.37,2.7-1.15,4.14-.49,3.32,1.52,6.63,3.1,9.88,4.76,2.82,1.44,5.44,2.89,8.91,1.65,2.75-1,4.86.56,5.78,3.32.64,1.88.95,3.87,1.56,5.76.47,1.45,1.17,2.8,3.06,2.81a3.62,3.62,0,0,0,3.49-2.36c1.32-2.77,1.27-5.83,1.62-8.78.17-1.43-1.76-3.32.82-4.17,2.38-.78,4.87-1.48,7.13.34a16.52,16.52,0,0,1,5.53,8.15C856,126.54,863.83,137,873,146.6a157,157,0,0,1,15.41,19c.77,1.12,1.11,2.92,3.87,2.65-4.91-7.92-9-15.82-16-22-10.3-9.12-18.73-19.44-17.92-34.51.11-2.24-.9-4.53-1.31-6.81a3.17,3.17,0,0,1,2.53-3.77c2.12-.58,1,1.5,1.42,2.32.82,1.75,2,2.12,3.63,1.33,3.37-1.66,4.32.25,5.06,3.08a18.49,18.49,0,0,0,8,11.19c.07-3.1.84-5.51,3.9-6.19a3.07,3.07,0,0,0,1.27-.66c-1.6-5.33,5.24-6.93,5.11-11.6-.1-3.49,1.15-4.4,4-1.91a8.39,8.39,0,0,0,1.64,1.13c1.3.67,2.73,1.9,4.12,1.13s.31-2.43.35-3.69c0-.6.14-1.19.37-2.93,4.64,5.8,10.36,8.08,16.32,10.25,4,1.47,5.13,6.36,7.9,9.42.82.91,1.16,3,2.74,2.29,2-.94.34-2.6,0-3.88a24.67,24.67,0,0,0-6.93-10.79c-1.32-1.27-3-2.42-1.82-4.61a3.47,3.47,0,0,1,2.57-2.18c2.36-.16,2.26,2,2.87,3.42a7.26,7.26,0,0,0,5.15,4.34,20.14,20.14,0,0,1,10.53,7.2c3,3.78,6,5.24,10.77.67-.88,5.17.32,6.79,4.52,4.9,2-.89,3.9-1,3.19,2.64-.74,3.81,3.41,4.28,5,6.49,1.83-1.28,1.63-3.14,2.3-4.6s-.77-3.86,1.51-4.17c2-.27,1.71,2.6,3.85,3.81-.83-3.72-1.53-6.93-2.28-10.12-.1-.47-.42-1.25-.7-1.27-6.28-.61-7.57-6.84-11.51-10-2.91-2.36-6.68-3.66-10.26-1.64-4,2.23-5.51.13-6.65-3a19.24,19.24,0,0,1-.68-10.34c2.3,1.49,4.29,2.27,6-.79,1.46-2.66,2.9-1.6,3.34.9.85,4.88,4.14,7.48,8.47,8.92a92.37,92.37,0,0,1,18.17,8.07c6.79,4,16.5,2.23,22.61-3.73,3.79-3.7,7.37-5.3,12.35-2.2,3.48,2.17,7.16,1.24,10.32-1.06,4.63-3.39,9.37-4.78,14.91-2.2,2.37,1.11,4.88.26,7.31-.47,6.6-2,13.21-3.24,20.11-1.19,2.55.76,5.3.19,7.92-.39a23.43,23.43,0,0,1,8.59-.22c-3.18,2.37-5.94,3.87-8,6.27s-2,4.11,1.11,5.33c4.74,1.86,5.83,5.49,4.84,10.09-.22,1.06-1.24,2.68.71,2.6,3.77-.15,6.78,2.66,10.55,2.6.28-2.34-1.54-3-2.59-4.09-.77-.82-2.18-1.53-1.23-2.82s2.17-.39,3.21,0c4.4,1.86,8.49,4.46,13.31.13,2.09-1.89,3.4.85,3.69,2.94.65,4.83,3.26,7.49,9.28,7.8-8,4.1-14.6,8.94-22.61,10.36-3.48.61-7.09,4.85-11,.48-.51-.57-1.42.6-1.42,1.47,0,4.45-2.74,3.14-5.12,2.4-3.41-1.06-4.76-3.9-5.87-6.95-1.64-4.49-4-8.12-9.58-7.84-1.3.07-2.11-.83-3-1.57a3,3,0,0,0-3.69-.44c-1.2.73-1,2-.71,3.15,1,4.22-1.25,4.39-4.43,3.71-1.54-.33-3-1.67-4.8-.53.4,2.71,2.78,3.67,4.66,4.79s3.11,1.89,2.19,4.53c-.79,2.27-1.28,3.86-4.22,3.68-3.91-.23-5.31,2.05-4.62,5.75.27,1.44.14,2.75-1.41,3.31-1.34.48-2.29-.44-2.9-1.42-4.22-6.7-6.27-14.27-8.64-21.71a2.64,2.64,0,0,1,.62-2.23c.93-.87,1.79,0,2.58.62,1.11.89,1.81,2.46,3.66,2.24.87-2-1.39-3.81,0-6,1.83.91,3.78,5.14,5.93.37a2.54,2.54,0,0,1,1.29.37c1.63,1.24,3.46,2,4.59-.22s-1.22-3.23-2.45-4.29c-3.57-3.08-7.87-4.37-11.85-1.35-3.43,2.61-7,2.77-10.81,2.54-3.49-.21-7-.53-10.47-.54-6.34,0-7.7,1.77-6.49,8,.22,1.12,1.67,2.8-.22,3.25s-3.75,1.9-5.74.79c-1.56-.86-1.58-2.61-1.18-4,.66-2.38,1.69-4.66,2.79-7.58-7.1,2-13.64,0-20.25-1-1.7-.27-3.89-1.2-4.81,1.16s1.66,2.45,2.75,3.49c2.41,2.29,4.71,4.4,7.7.45,1.18-1.55,2.84-.36,3.72.94,4.16,6.19,10.64,9.47,16.62,13.34,5,3.27,10.25,6.19,14.57,10.44a9.3,9.3,0,0,0,6.75,2.78c3.79-.05,5.82,2.2,6.76,5.52,1.73,6.12,2.15,12.43,2.66,18.74.31,3.78-3.72,3.79-5.27,6.44,4.69.11,7.38-2,8.84-6,1-2.81,1.87-5.69,3.07-8.42.83-1.88.68-2.88-1.31-3.78a10,10,0,0,1-4.51-4.54c-.63-1.17-1.14-2.6.09-3.68s2.54-.52,3.71.18a8,8,0,0,1,4.26,7.27c4-3.24,2.12-6.46.9-9.79-.9-2.43-5-5.56-.49-7.4,3.9-1.59,3.75,2.95,4.62,5.41.45,1.26.8,2.71,2.44,2.78s2.26-1.18,2.57-2.56c.61-2.68,2.47-2.48,4.21-1.58,2.7,1.39,1,3-.14,4.36-2.43,2.93-4.52,6.22-8.2,7.86-1.05.47-2.31,1.05-1.78,2.53.43,1.2,1.67.89,2.6.77,3.84-.48,7.64-1.39,11.66-.62a15,15,0,0,0-.24-1.49c-.42-1.4-4.24-.14-2.57-2.88,1.15-1.89,3.1-1.23,4.77.05,1.84,1.41,3.91,2.52,5.73,3.95,1.31,1,5.78.85,1.92,4.33-.76.69.34,1.21.81,1.34,5.84,1.62,10.79,5.15,16.33,7.39a3.47,3.47,0,0,0,4.3-.76c-9.42-4.87-16.67-12.7-26.67-18.09,6.53-1.54,10.75,1.38,14.15,5.1,3.15,3.47,6,5.5,11.07,4.35a9.16,9.16,0,0,1,9.93,4.46c2.83,4.73,6.8,5.64,11.83,5.08-1-2.59-3.44-3.11-5.28-4.38-1.59-1.08-2.49-2.36-1-4.09,1.34-1.54,2.64-.8,3.84.33,3,2.75,5.88,5.47,5.58,10.06a3.5,3.5,0,0,0,2.19,3.62c1.93.81,2.65-.65,3.45-1.94.64-1,1.47-2,2.78-1.79,1.56.19,1.44,1.57,1.58,2.71.39,3.19,2.58,4.89,5.19,6.22,1.27.65,2.61,2,3.91.24,1.12-1.54,0-2.85-.86-4.06-1.57-2.28-5.59-3-5.31-6.14s4.48-2.89,6.5-4.77c.36-.33.78-.61,1.12-1,1-1.15,1.48-3.45,3.62-2.72s1,3.23,1.65,4.64c1.88,4.1,2.13,8.25,1.85,12.58a2,2,0,0,0,1.57,2.27c2.29.36,5-.38,5.76-2.18,1.94-4.48,6.68-7.72,6.07-13.31a2.12,2.12,0,0,1,1.2-2.46c.89-.33,1.51.37,1.84,1.24,1.5,3.91,4.75,3.79,8.23,4,3.09.2,8.81-1.82,6.61,5.39-.36,1.16,1,1.67,2,1.78,2.49.3,4.54-.84,6.35-2.38,1.3-1.1.74-2.39,0-3.57-1.57-2.38-3.9-2.89-6.56-2.68-1.45.11-3.45.55-3.52-1.58-.09-2.52,2.11-1.23,3.38-1.46,3.55-.65,7.26-2.2,10,2.48,1.51-2.57,2-6,6-5.15-3.94-5.76-5.5-6.27-11.71-3.91-1.29.49-2.54,1.21-3.63,0a3.11,3.11,0,0,1-.58-2.26c.21-1.34,1.36-1.67,2.6-1.89,1.69-.31,4.79,1.37,4.58-1.88s-3.2-2.61-5.53-2.35a7.46,7.46,0,0,1-1.47-.14c2-6.63.72-8.37-6.18-8.53-2.33-.06-4.66-.21-7-.18-2.58,0-4.46,1-5,3.86-.48,2.43-2,4-4.23,5.21-5.73,3.16-5.69,3.24-7.49,8.81a1.69,1.69,0,0,1-1.47-2.18c.42-2.88,2-6.32-3.55-5.24-.49.1-1.47-.85-1.78-1.52-2.43-5.3-6.63-9.1-10.78-13-1.59-1.47-3.55-3-.83-5.2.61-.51.32-1.16-.07-1.77-.57-.9-3-1.28-1.23-2.84,1.16-1,2.45.24,3.56,1,1.29.88,2.89,1.71,3.89,0,1.16-2-1-2.45-2.14-3.16-2.37-1.47-5.34-1.86-7.16-4.33-.89-1.2-1.66-.22-2.39.48-3,2.88-4.48,1.83-5.12-1.93-.61-3.57-3.45-4.52-6.53-5.18-2.32-.49-4.78-1.16-4.44-4.33s2.76-2,4.64-2.16c4.6-.27,6-2.94,3.91-7.13-.67-1.33-2.87-2.54-.92-4.19,1.65-1.39,3,.39,4.42,1.09,3.62,1.76,7.55,3.06,6.12,8.57-.36,1.38,1.68,1.78,2.78,2.46,5.21,3.23,5.57,4.06,4.18,9.53a8.18,8.18,0,0,0,6.09-4.64c1.17-2.36,2.75-2.6,4.77-1,3.37,2.74,7,4.12,11.54,3.17,2.17-.45,4.5.78,6.09,3.25-5.73,2.43-12.72,1.57-17.57,7.4,3.73-.06,6.92-.85,10,1.1.93.58,3.36-1.59,5.2-2,9.53-2.17,17.6-7.84,26.75-10.88,2.93-1,3.82-4.06,5.82-6,2.62-2.54,5.23-6,10.3-1.72-5.13,1.2-9.16,2.91-10.06,8-.2,1.13-.56,2.52.62,3.21,1.44.84,2-.38,2.47-1.53a1.68,1.68,0,0,1,1.91-1.1c8.9.31,17.75.87,26.42,3.15a25,25,0,0,0,13.33,0,10.79,10.79,0,0,1,6.38.34,25.32,25.32,0,0,0,18.95-1.28,15.52,15.52,0,0,1,4.74-1.37c6.21-.63,7.61,1,5.69,6.84-.91,2.77-.32,4.69,2.26,5.67,4.62,1.76,5.7,4.28,1.62,8.26,11.94,1,20.78,6.18,27.4,15.38,2.7,3.76,7,4.95,11.24,5.86,9.8,2.1,11.47,3.74,13.28,13.38.22,1.22,0,3,1.86,3,1.62-.06,1.8-1.68,2.13-3,1.42-5.69,1.64-11.95,7.29-15.72.38-.25.5-1.26.38-1.85-1.59-7.73-.93-16-6.06-22.87-2.63-3.52-1.85-5,2.69-6,15-3,29.81-1.1,44.6,1.6,4.25.77,8.49,1.66,12.71,2.61.88.2,2.06.7,1.61,2-.33,1-1.34.8-2.14.65-8.33-1.62-16.92-.23-25.25-2.64-6-1.71-12.26-.32-18.4,0-1.84.1-3.79.69-4.09,2.94a3.7,3.7,0,0,0,3,4.08c19.07,3.38,21.4,21.78,31.43,33.48,1.36-1.36.84-4.06,1.59-6.31,2-5.87,6.19-7.28,10.46-3.46,1.41,1.26,2.12,2.58,1.16,4.34-2,3.61-2.37,7.57-2.82,11.55-.43,3.82-1.27,7.56-3.85,10.63-1.27,1.52-1.51,3.06.26,4.27s2.67-.22,3.48-1.53c2.1-3.38,4.68-6.48,5.55-10.52s2.81-3.48,5.18-1.23c1.38,1.32,2.37,4,4.65,3.08,4.91-1.91,10.8-.78,15-4.9,1.39-1.38,1-2.58-.12-3.92-2.09-2.58-.64-5.08.47-7.46a2.33,2.33,0,0,1,3.32-1.28c1.83.9,1.09,2.13.24,3.26-1.27,1.68-1.91,3.06.76,4.17,1.61.67,2.11,2.46,2.65,4.06,1.07,3.14,2.47,5.89,6.53,5.65,1.27-.07,2.9,1,2.61,1.83-2.17,6.21,4.74,5,6.49,8.06,1.14,2,3.33,1.14,4.45-.72,2.23-3.68,4.08-2.19,6.11.18,6.61,7.72,6.86,20.7-.45,30-11.18,14.29-26,21.38-44.41,20.1-9.19-.64-18-3.37-27-5a56.11,56.11,0,0,0-17.87-.33c-1.3.17-2.92.33-3.75,1.15-5.47,5.4-12.6,6.35-19.61,7.81a56.3,56.3,0,0,0-8.52,2.73c-3,1.13-5.46,2.68-4.18,6.64a3.81,3.81,0,0,1-.53,2.36c-1.77,3.91-2.59,7.26,3.61,7.17,1.29,0,1.92,1.15,2.77,1.93,2.93,2.72,5.93,5.35,8.9,8,2.6,2.34,6.23,3.89,3.12,8.77-1.62,2.54,1.84,3.82,3.82,4.8,3.17,1.56,3.47,2.71.09,4.45-2.37,1.22-5,3-3.38,6.19,1.54,3,4.53,2.39,7.07,1.41a66,66,0,0,1,19.36-4.52c3.61-.25,4.94-1.75,3.24-5.15-1.23-2.47-1.8-5.27.89-6.58,3.1-1.52,5.19.67,6.56,3.55,2.83,5.94,7.62,8.62,14.16,8,4.13-.4,8.26-.89,12.37-1.54,5.08-.79,10-1.16,13.84,3.24a3.23,3.23,0,0,0,4.11.63,8.94,8.94,0,0,1,7-.22c-2.2-5.4-5.94-8.6-9.34-12.05-2.1-2.14-4.27-4.21-6.29-6.42-.7-.75-2.1-1.52-1.16-2.9a2.61,2.61,0,0,1,3.57-.81c4,2.39,7.26.6,10.73-1.24,6-3.2,7.53-2.44,9.3,4.3.29,1.13.54,2.27.88,3.38.46,1.53.47,3.52,2.78,3.55s1.63-2,2.09-3.29c.9-2.45,2.78-2.62,4.24-1,3.47,3.78,8.57,3.34,12.71,5.35,2.46,1.19,3.75-.4,3.82-2.89.08-3.28,1.34-5.42,4.93-5.61,2-.11,2.39-1.48,2.43-3.13.08-3.31,1.84-5.39,5-5.92,3.49-.59,3.24,2.53,4,4.57.4,1.07.85,2.82,2.16,2.11,4.47-2.41,10.08.27,14.21-3.59,3.55-3.32,6.47-2.55,8.47,1.94a24.4,24.4,0,0,0,2.67,3.7c.86-4.24-2.33-6.41-2.57-9.43-.16-2.09-2.86-4.55.34-6.1,3-1.44,2.92,2.47,4.89,3.46,1.47-2.71,2.76-5.56,5.12-7.75,4.81-4.47,9.19-4.92,14.37-1.18,2.79,2,1.5,4.79,1.28,7.34-.18,2.05-1.6,4.32.93,5.87a6.48,6.48,0,0,0,7.12.24c3.27-2.13,5.14-1.75,6,2.24a2.63,2.63,0,0,0,1.71,2.29c2,.53,4.19.84,2.52,3.82-1.4,2.48-3.37,3-5.9,2-.9-.38-1.62-1.25-3.17-.81.37,2.78.74,5.64-2.08,7.86-1.86,1.45-.45,3.15,1,4a26.07,26.07,0,0,1,5.58,4.12c1.14,1.08,2,2.31,1.47,4s-2,1.92-3.59,2c-1.3.07-2.9.05-3.82.76-6.67,5.15-12,2.24-17.27-2.4-4-3.49-7.39-2.91-10.47,1.38-1.17,1.62-2.48,3.43-1.32,5.48,1.09,1.9,3.29,2.27,5.25,2.4a32.79,32.79,0,0,0,5.85-.64c-2.09,4.08-4.25,7-9,5.53-.87-.26-1.84-.34-2,.69-.21,1.44,1,1.52,2,1.32,4.92-1,9.08.83,13.2,3.27,4.86,2.88,8.67,6.23,7.88,12.56a1.24,1.24,0,0,0,.07.5c.73,2.56,0,6.7,3.83,6.57,4.14-.15,2.56-4.31,2.85-6.83s.11-5,1.54-7.2c.47-.72,1-1.4,2-1.28s1.27.89,1.4,1.8c.77,5.57-4.33,16.95-9.61,18.9-7.74,2.85-15.58,6.14-24.11,5.49a10.88,10.88,0,0,0-7,1.93c-4.87,3.09-8.78,2.12-11.78-2.84-.67-1.1-.08-4.21-2.82-2.7-2.39,1.33-1.7,3.7,0,5,6.81,5.17,10.51,14.3,20.19,15.82a4.59,4.59,0,0,1,3.53,2.46c4.21,7.86,11,13.25,18,18.47,2.83,2.14,5,4.12,1.65,7.52-1.71,1.71-.6,2.44,1.08,3.11,2.9,1.15,5.92.69,8.9.83,1.91.09,3.66.5,4.61,2.39s-.2,3.21-1.58,4.23c-2.9,2.16,1.2,4.94-.63,7.23-7.47-8.8-13.34-10.45-23.52-6.66a11.58,11.58,0,0,0-6,4.3c-2.08,3.21-4,6.5-7.3,8.68a3.11,3.11,0,0,0-1.42,3.5c.66,1.93,2.43,1,3.42.7,14.88-4,29,1.15,43.33,3.44a7.3,7.3,0,0,1,2.84.86c5.9,3.78,11.34,4.3,16.43-1.54,1.39-1.6,3.68-1.29,5.64-.48s2.18,1.91.8,3.43a18.93,18.93,0,0,1-7.45,4.87c-14.29,5.46-27.36,13.73-42.08,18.25-2,.63-3.5,2.42-5.15,4.58,3.14.68,5.31-.9,7.42-2.09a73.2,73.2,0,0,1,24.88-8.52c6.6-1,11.27,2.13,15.26,6.63,2.47,2.8,1.42,5-2.36,5.2a45.49,45.49,0,0,1-14.36-1.41c-1.58-.41-3.36-1.49-4.5.38-1.27,2.08.58,3.52,1.88,4.61,2.52,2.14,5.35,3.93,8,5.94,1.06.81,2.11,1.79,1.23,3.35a2.42,2.42,0,0,1-3.07,1c-14.06-4.18-27.42-.66-40.47,4.14a149.21,149.21,0,0,1-43.4,8.59c-17.88,1-35.2,5-52.54,9.05-23.73,5.47-47.87,8.21-72,11.05-43,5.07-85.48,13.1-127.94,21.44-49.11,9.65-98.17,19.71-147.6,27.6-69.66,11.11-139.55,20.74-209.17,32.15-30.22,5-60,12.1-89.94,18.31-23.88,5-48.11,6.59-72.33,8.58q-38.82,3.18-77.62,6.55c-6.31.54-12.51,1-18.79-.88-6.73-2-12.55.74-17.22,5.44-14.67,14.75-33.63,22.44-51.61,31.72a19.18,19.18,0,0,1-8.21,1.84c-4.11.08-5.74,2-5.79,5.81-.08,5.73-1.71,11.14-3.28,16.58-1.74,6-4,11.43-9.81,15a10.8,10.8,0,0,0-5,10.76c.4,3.76-1.25,6.32-4.1,8.51-3,2.33-5.9,4.86-8.81,7.34-1.75,1.5-3.3,3-3,5.78.31,2.57-1.92,3.59-4,4.41-8.75,3.38-16.15,8.45-20.81,16.86a4.78,4.78,0,0,1-3.38,2.73C452.09,753,440.68,759.84,428.1,763c-24.9,6.15-50.31,7.53-75.79,8-23.67.46-47.28-.42-70.45-6.07a120.48,120.48,0,0,1-27-10.14,10.18,10.18,0,0,1-3-1.76c-8-8.87-18.18-8.52-28.66-6.8-30.86,5.06-61.66,10.53-92.59,15.1s-61.42,2.63-91-8.3c-7.1-2.62-13.76-6-19-11.59a31.32,31.32,0,0,1-8.51-24.71,13.9,13.9,0,0,1,3.68-8.57c3.26-3.48,3.67-7.44,2.08-11.58-3.93-10.3-3.81-20.81-2.13-31.77,3.47.94,4.66,4.54,7.46,6.08.31.17.58,1.16.41,1.33-5,5.11,1.79,8.21,2.13,12.4A1.9,1.9,0,0,0,26.88,686c5.67.89,4.61,3.91,2.43,7.35-1.84,2.88-.42,5.49.89,8,6.64,12.49,17.94,19,30.92,22.34,10.11,2.58,20.63,3.62,31,5.12a18.75,18.75,0,0,0,16.52-5.28c3.33-3.29,6.91-4.3,11.32-2.3a10.89,10.89,0,0,0,8.28,0c12.52-4.36,24.45-9.6,33.27-20.14S181.9,683.34,191,673.4c20.13-21.92,35.27-46.64,41.79-76a93.87,93.87,0,0,0,1.45-29.78c-1.27-12.76-8.35-21.4-19.14-27.45C195.66,529.23,175,528,154.21,534.59c-28.23,8.92-54.86,21.89-78,40.35C62.29,586,49.14,598.62,40.25,614.68c-1.52,2.75-3.06,5-.69,8.11,1.92,2.48.1,4.19-2.07,5C31,630.11,27,634.57,25.62,641.33a8.23,8.23,0,0,1-1.07,2.24C23.73,645,23,647,20.89,645.85c-2-1-.55-2.64-.08-3.92,7.81-21.47,21-39.57,35.85-56.56,7.27-8.29,14.88-16.17,24.28-22.12,1.11-.7,2.71-1.47,2.35-2.91-.5-2-2.5-1.07-3.81-1.08-16.49-.07-33,0-49.47-.11-2.56,0-6.43,1.57-7.26-2.26-.78-3.59,3.22-4.34,5.53-5.43,24.15-11.38,49.11-20.41,75.43-25.36,12-2.25,24-3.53,36.1-4.85C141.55,521.06,143.54,521.34,145.22,518.55Zm535.59-220.1c2.87,4.82,7.27,3.58,11.52,2.92,1.29-.2,3.46,1.13,3.57-1.24s-1.85-3-3.87-2.8c-3.8.34-7.58.81-11.37,1.23,2.41-4,1.78-6.84-3.14-8-1.89-.44-3-1.79-4.17-3.28-1.4-1.84-2.86-8.65-4.67-.14a1.78,1.78,0,0,1-1,1.06c-1.8.71-3.63,1.24-1.81,3.75,1.48,2,2.84,1.53,4.59.32,3.2-2.19,5.63-1.28,7,2.32C678.08,296.36,678.8,297.93,680.81,298.45ZM979,149.51c2.67,1.55,4.78.45,6.54-1.57.75-.87,1.42-2.43-.52-2.54-6.39-.37-5-4.22-3.5-8.34-1.56-.48-3.86,1.41-4.27-1.18-.34-2.17-.69-4.22-2.52-5.74-.81-.68-.53-1.42.34-2,1.21-.77,3.05-1.35,1.72-3.31s-3.17-1.66-5-1c-5,1.78-8.66,5.55-13.59,9,5.28,1.08,8.15,4,10.62,7.42,1.07,1.49,2.1,3.24,4.22,3,4.88-.48,6,2.35,6,6.38a14.25,14.25,0,0,0-3.07-1.39,4.16,4.16,0,0,0-4.65,2,3.65,3.65,0,0,0,.83,4.51,4.43,4.43,0,0,0,5.41.84C980.4,154.13,979.06,151.67,979,149.51Zm271.78,211.7.12.11c-.13-3.71-.93-6.31-5.68-4.52-1.47.55-3.19-.61-4.61-1.53-4.34-2.79-8.71-5.52-13-8.37-2.16-1.44-4.46-3.15-6.51-.39-2.18,2.94,2.86,2,2.55,4.4-.29.89-1.38,1-2.25,1.36-3.77,1.67-5.06,3.39-1.8,7.34,3.6,4.38,5,10.55,11.36,12.92-5.59,1.24-9.91-1.23-14.33-3.08a1.69,1.69,0,0,1-.26-2.95c3.69-2.94,1.29-4.6-1.08-6.5-1.49-1.18-3.71-2-3.3-4.54.56-3.55-1.74-4.23-4.43-4.58-3.22-.42-3.39,1.78-3.57,4.08s-1.94,2.94-3.79,3.32a4.5,4.5,0,0,1-4.54-1.41c-1.55-1.76.24-3.05.61-4.55.55-2.28,3.16-2.83,4.12-4.74a1.6,1.6,0,0,0-2.26-.46c-4,4.24-10.49,4.74-14.18,9.39-.73.92-1.82,1.48-2.41.4-2.47-4.5-5.68-1.38-8.79-1.32.63,2.4,2.43,3.43,3.86,4.74.84.77,2.17,1.3,1.21,2.74s-2.16,1.29-3.52.64a58.36,58.36,0,0,1-9.57-6.3c-3.59-2.72-7.26-3.41-10.72.17-1.58,1.65-3.06,1.67-4.8.38-1.5-1.1-3.25-2-1.88-4.35.53-.89,1-1.91-.44-2.37-2.86-.91-6-2.12-8.49.35s.49,4,1.63,5.78c.36.56.81,1.06,1.17,1.62a1.85,1.85,0,0,1-.72,2.92,2,2,0,0,1-3-.73,19.44,19.44,0,0,1-1.1-3.28c-1.73-5.06-10.94-7.34-14.64-3.48-1.64,1.7-3.15,2.43-5.17,1s-3.57-1.79-4.66,1a1,1,0,0,1-1.64.41c-4.82-3.23-10.54-.58-15.59-2.4-1.22-.44-2.76-.77-3.53.75s.54,2.41,1.53,3.28c1.49,1.32,3.58,2.63,1.45,4.81s-4.08.86-5.57-.91c-4.83-5.75-11.66-4.81-18.11-5.75,2.78,2.41,2.43,5.93,3.74,8.91q3.56-3,7.25-.85c.38,1.8-2.5,3.2-.4,5a6.56,6.56,0,0,0,6.06,1.47,36.47,36.47,0,0,0,3.78-1.27c3.12-1.09,4.89.14,7.15,2.59,2.87,3.1,6.17,5.68,7.62,9.85.08.22.87.21,1.14.27,2.07-5.18,1.39-11.13,10.22-12.06,5.15-.55,6.31,1,6.71,4.08.27,2.13,2.65,8.13-4.38,5.71-1.39-.48-2.55.52-3.27,1.75a3.2,3.2,0,0,0,.34,3.75,21,21,0,0,0,8,6.57c7.18,3.23,10.09,7.94,9.16,15.46-.27,2.17-.51,4.07,1.74,5.1s3.72-.6,5.12-2.06c6.14-6.38,4.61-20.45-2.94-26.46,3.36-1.77,6.49-.88,9.53.72a4.2,4.2,0,0,1,2.59,4c-.08,1.44-2,3.19.88,3.93,2.32.6,4.74,2.21,6.84-.48,1.08-1.38,2.18-2.48,4.19-1.57,1.61.72,3.44,2,5-.05s-.64-2.85-1.53-4.12-1.38-3,.88-2.42c3.21.85,5.87-.78,8.8-.93,2.65-.13,4.11-.69,1.75-3.4-2-2.28-1.1-3.88,1.35-5a6.09,6.09,0,0,0,2.91-2.61c.6-1.09.57-3.52,2.76-2.28s1.7,2.81,0,4.44c-2.69,2.61-3,5.76-1.65,9.19.74,1.85,1.39,3.74,1.94,5.65a2.24,2.24,0,0,1-.25,1.84c-.68.67-1.61.23-2.23-.28a15.1,15.1,0,0,1-2-2.19c-.83-1-1.67-2.56-3.14-1.41-1.69,1.33.07,2.17.86,3.13s3.07,2.21.47,3.62c-1,.55-3-.18-2.49,2a2.76,2.76,0,0,0,3.93,2c3.61-1.42,5.9.34,8.48,2.44s5.66,4.34,9.76,1c-6-.82-6.16-5.81-7.9-9.62-.48-1.05,0-2.34,1.11-2.25,3.22.24,7.69-.19,8.73,3.2,1.56,5,4.72,5.58,9,5.76-1.65-4.26-1.67-4.28,2.26-8.28.64-.65.4-1.11.12-1.68-1-1.91-.41-3.92-.45-5.89-.09-4.37,0-8.39,6.27-5.39,1.15.55,2.21-.21,3.28-.72a3.39,3.39,0,0,1,4.1.79c3.08,2.94,5.82,6,5.16,10.75-.63,4.53,1.69,5.46,5.65,4.69a10.58,10.58,0,0,0-.56-2.14c-2.65-5,.78-6.69,4.4-8.62,4.55-2.43,3.26,2.21,4.58,3.59,1.14,1.19,1.9,3.09,3.93,1.8,2.27-1.44.41-2.82-.34-4.17s-2.2-3.08.23-4.07c2-.84,4.46-1.17,5,2,.29,1.54.4,2.91,2.26,3.41,5,1.37,3,3,.15,4.69-1.56.94-3,2.09-4.48,3.16a11.17,11.17,0,0,0-4,13.21c.5,1.28,1.33,3.21,2.46,2.72,4.88-2.15,7.3,1.58,10.82,4.54-.88-5.3-1.51-9.89.81-14.21a4.53,4.53,0,0,1,5.88-2.41c2.71.92,1.93,3.05,1.28,5s-2.25,4.24.08,5.87c2.12,1.48,5,3,7.3,2.16s2.25-4.21,2.56-6.64a9.1,9.1,0,0,0-.75-3.37q-4.5-15-9-30.08c-.48-1.6-1.34-3.28,1-4.11,1.89-.67,3.69-.56,4.77,1.4a24,24,0,0,1,1.22,3.26,45.34,45.34,0,0,0,5.14,10.22c1.25,1.78,2.87,3.79,5.31,2.57,3-1.51,6.2-1.72,9.85-1.55-1.58-3.93-6-5.64-5.52-11,3,4.06,7.78,5.71,7.92,10.29.17,5.65,3.39,5,7.07,4.56a20.59,20.59,0,0,0-5.16-11.81c-1.51-1.77-4.76-3.92-3.15-6,1.45-1.88,3.9,1.28,6,2,1.93.61,4.16,1.67,4-1.92-.08-1.72-1.38-4.06,1.31-4.49,2.32-.37,2.48,2.16,3.23,3.77,2.95,6.32,7.55,11.81,9,19,1.68-4.5-2.58-7.79-1.57-12.31,4.19,2,5.34,5.79,6.34,9.58,1.87,7.12,3.35,8.28,10.41,7.46,1.88-.22,3.31-.41,4.77,1.47,2.62,3.4,3.36,3.22,6.63-.16-.64-1.63-3.28-.24-3.51-2.15-.29-2.26,1.93-1.79,3.15-2.36,1.85-.88,1.7-2.09.9-3.68a4.83,4.83,0,0,0-5.21-3c-.83.08-1.7-.08-1.89-1.15a2.22,2.22,0,0,1,.94-2.14c2.86-2.61,5.69-2.14,8.36,1.44,2.48,3.33,4.12,7.47,8.52,9.29.86-2.54-.16-4.49-.72-6.55-.32-1.17-1.79-2.57-.5-3.6s2.87.07,4.17.72c2.46,1.22,4.06,3.37,5.65,5.53,1,1.37,1.74,3,4.16,4.27-1.91-9,5.16-10.78,10.12-14.08-.85-1.33-2.06-1.39-3.16-1.65-7.2-1.7-11.65-6.76-15.35-12.66-.76-1.21-1.24-4,.18-3.56,2.53.81,6.14,1,7.2,4.48,1.75,5.75,7.31,8.53,12.66,6.13,1.3-.58,2.37-.65,3,.5,2.07,3.64,6.16,4.38,9.18,6.63,1,.78,2.05,2,3.48.92s.44-2.34-.26-3.44c-1.47-2.3-.21-2.85,1.87-3.08,2.84-.31,5.14,1.11,7.55,2.2s4.9,1.56,7.23-2.48c-3.9,1.43-5,0-5-2.71.06-3-1.88-3.47-4.29-3.5-2.73,0-5.6.38-8.3-1.82,5.15-2.66,10.17-3.37,15.21-1.59,4,1.41,2.52,5.26,2.77,8.25a2.15,2.15,0,0,0,1.73,2.12,2.12,2.12,0,0,0,2.49-1.19c.82-1.44,1.42-3,2.25-4.44,1.29-2.25,3.18-3.43,5.82-2.51.57.2,2.42.56.63,1.75-3.54,2.36-.8,2.53,1,2.94a16.51,16.51,0,0,0,5.94-.2c3.7-.51,7.27-.75,9.07,3.81,1.15,2.91,3.63,2.36,5.93,1.31s4.4-2.2,7.12-1.27a22.53,22.53,0,0,0,10.79,1.3c2.29-.34,3.78.58,2.32,3.15-1.68,3-.32,4.1,2.4,5.05,2.36.82,5.5,1.1,5.21,4.93-.09,1.14.06,2.64,1.67,2.45a2,2,0,0,0,1.63-3c-1.43-2.77.2-4.68,1.29-6.91,5.08-10.41,4.94-20.68-2-30.2a70.75,70.75,0,0,0-34.31-25.47,28,28,0,0,0-14.28-1.1,33.68,33.68,0,0,1-6.44.32c-15.15-.48-30.3-.69-45.4,1.07-3.85.45-8,.48-10.87,4.26,6.25,3.8,13.58,5.48,18.89,11.6a16.22,16.22,0,0,1-12.88-2.47c-5.89-3.86-12.28-7.91-19.44-6.53-11,2.12-22.92-2.25-33.24,5.87-3.11,2.44-5.19,2-.71,4.5,1,.58,2.12,1.45,1.23,2.77-.74,1.1-1.79.22-2.68-.09-1.75-.63-3.4-2-5.67-.52,3.11,2.48,6.14,4.75,9,7.22,2.53,2.2,1.72,4.4-.52,6.3-.72.61-9.1-1.38-9.55-2.32-1.23-2.57,2.12-2.85,2.62-5-9.43-3.12-19.37-3.14-29.37-4.83,1.46-1.69,2.83-1.66,4.12-1.93,1.13-.23,3.06.86,3.17-1.21.06-1.28-1.09-2.36-2.32-3-3-1.68-6.21-1-9.27-.46-8.49,1.5-16.79,4.27-25.6,3.63a4.1,4.1,0,0,0-3.16,1.09c-1.77,2.56-4.37,2.36-7.4,2.26,1.77,2.78,7,4.41,1.94,8.08-.45.33-.08,2.41,1.3,1.78,3.73-1.71,5.47.61,6.44,3.29C1255.71,357.94,1253.55,359.93,1250.73,361.21ZM399.44,742.11c7.23-1.44,14,.88,20.13-.9,10.52-3.06,21.43-4.09,31.9-7.29C466.26,729.4,480,723,491.94,713c12.32-10.17,21.39-22.6,24.66-38.28,3.92-18.77,9.51-37.48,6.5-57.07a59.29,59.29,0,0,1-.7-16.39,9.43,9.43,0,0,0-1.36-5.71q-3.42-6.36-6.64-12.83c-3-6-6.63-11.67-12-15.7-36.65-27.27-76-42.23-123.07-32.35-26.86,5.64-52.41,13.24-76.06,27.11-8.09,4.75-14.71,10.79-18.32,19.72-1.11,2.76-2.69,5.34-4.06,8-3.59,6.93-7,14-10.82,20.78-8.46,15-7.93,29.83.69,44.5,2.24,3.83,3.06,7.4,1,11.73-2.6,5.36-1.44,10.76,1.66,15.67a22,22,0,0,1,3.43,8.73c.64,4.51,3.15,7.94,6.41,11,2.93,2.71,5.77,5.51,8.63,8.29A80.3,80.3,0,0,0,312.33,725C340.1,738.81,370,741,399.44,742.11Zm119.74-230c-17.31-1.58-33.66,3.9-50.4,6.31-3.07.44-3.29,2.07-2,4.58,2.23,4.25,3.75,8.81,1.07,13.3-2.14,3.58-.63,5.18,2.44,6.39a89.48,89.48,0,0,1,16.75,8.81c16,10.68,30.41,22.78,36.17,42.27.79,2.68,3,3,5.52,3.29,10.66,1.45,20.59-3.33,31-3.47a4,4,0,0,0,2.59-1.35c6-6.89,14.21-10.23,22.07-14.18,7.67-3.85,9.62-8.18,8.11-16.7-.69-3.92-2.08-7.67-2.31-11.71-.76-13.2-7.77-21.81-20.63-25.57-2.09-.61-4.14-1.05-5.36-3.2-2.16-3.82-5.81-5.24-9.92-5.85C542.66,513.34,531,511.46,519.18,512.13Zm-83.94-8.64c0-13.78-5.66-21.35-17.58-23.26a42.75,42.75,0,0,0-23,2.56c-8.95,3.57-17.87,7.26-27,10.34-28.33,9.57-52.58,26.18-76.41,43.6-2.18,1.59-3,3.22-1.67,5.86,2.4,4.74,4.66,9.56,6.81,14.42,1.41,3.2,2.94,3.24,5.62,1.23a55.55,55.55,0,0,1,10.59-6.56C339,540,365.83,529.83,394.91,527.23c9.27-.83,18.65-2.22,27.69,1.07,3.94,1.42,5.94,0,7.63-3.18A43.75,43.75,0,0,0,435.24,503.49ZM260,571.27c5.47-10.4,9-21,8.22-32.31-.74-10.48-9.06-17.81-13.52-26.73-3.1-6.19-12.13-8.76-20-7.69-20.19,2.75-39.71,8-57.8,17.68-1.78.95-5.33,1.23-4.81,3.47.65,2.83,3.95,1.21,6.06,1.19,15.57-.16,30.61,1.87,43.47,11.57,7.95,6,15.65,12.35,23.25,18.79C250,561.53,255.44,565.41,260,571.27ZM921.77,276.59c7.3-5.21,9.33-3.85,12.19,7.22-5.1,1.58-5.15,1.64-1.66,5.87,2.32,2.82,4.78,5.54,7.23,8.26.78.87,1.72,1.73,3,1.2a2.33,2.33,0,0,0,1.37-2.45c-.08-1.33-.87-1.94-2.14-2.37-2.73-.92-5.27-6.74-4.19-9.29a1.65,1.65,0,0,1,2-1c6.76,2,11.39-1.9,16.23-5.54,2.64-2,5.28-2.73,7.47,1,1.23,2.12,3.64,2.76,6.08,2.85,1.68.07,3.71,0,4.71,1.24,1.74,2.17,3.67,1.9,5.8,1.32a14,14,0,0,1,11.1,1.24c1.64.95,3.35,1.16,4.68.09,3.7-3,6.67-1.26,9.93.85,5.23,3.38,10.47,6.87,17.2,8.08-.76-3.62-2.55-5.15-5.93-4.93-2.27.15-3.71-1.25-4.6-3.19-.58-1.25.26-2,1.27-2.19,4.58-.82,5.79-3.85,5.6-8-.06-1.35.26-2.8,1.82-3.19s2.21,1.1,2.94,2.18c1.88,2.74,3.64,5.58,5.65,8.22,2.37,3.12,5.28,5.4,9.53,5,.31-1.75-2.22-3.34,0-4.7,2-1.2,3.52-.09,4.63,1.57,2.3,3.42,4.85,3.29,8,1.1,4.69-3.23,7.4-2.35,9.66,2.8.65,1.48.84,3.57,3,3.34,2.78-.28,4,.88,4.28,3.49a1.73,1.73,0,0,0,2.57,1.49c1.57-.63,1-1.93.53-3-1-2.23-1.64-4.84-4.42-5.7-2.34-.73-2.44-2-1.64-4.2,3.45-9.36-1.79-17.65-11.73-18.15-9.32-.46-18.56-.45-27.09-5.29-3.22-1.83-6.32,1-9.28,2.35-1.1.51-.8,1.38,0,1.87,1,.59,1.59,1.33,1,2.39-.7,1.25-2,1.17-3.1.74-3-1.2-5.87-.88-8.81-.07-.83.23-1.64.62-1.69,1.57s.63,1.47,1.52,1.7c3.25.84,5.85,3.3,9.83,3.16-2.67,3.43-5.38,4.59-8.8,3.28a8.3,8.3,0,0,1-5.73-8c-.07-4-1.44-6.7-5.52-7.24-1.86,1,1.94,5.75-3,4.23-2.12-.65-4-2.09-6-3.19-1.44,3-1.38,7.15-5.77,7.4-4.13.25-.87-4.33-3.41-5.61a33.55,33.55,0,0,1-14.14,6.84c-1.57.38-3.71,1.32-4.61-.42-2.89-5.55-7.44-2.93-12.24-3.25,1.59,2.67,3.6,1.95,5.2,2.31.89.2,2.23-.08,2.38,1.18a4.18,4.18,0,0,1-.87,2.27,1.44,1.44,0,0,1-2.49.27c-2.16-2.29-5.08-1.78-7.54-1.66-6.49.31-12.46,0-17.63-4.83-2.37-2.24-4.35-.33-4.79,2.51C921.25,273.07,921.62,274.56,921.77,276.59Zm220.45-9.95c-.25,2.13,3.9,2.09,2.06,4.42s-3.52,0-5.24-.68a15,15,0,0,0-3.31-1c-13.34-1.85-26.66-4.06-40.2-2.21a9.2,9.2,0,0,1-5.84-.76c-4.93-2.71-10.29-2.35-15.6-2.15-1.89.07-4.77-.22-4.91,2.17-.15,2.67.41,6.72,3.11,7.32,5.17,1.14,9.58,4.92,15.18,4.3,1.75-.2,3.56-.27,3.52,2.19,0,3.06-1.88,1.78-3.44,1.32-2.68-.78-3.9,1.39-5.27,2.94a2.21,2.21,0,0,0,0,3.17,4.69,4.69,0,0,0,5.07,1c1-.34,2.36-1.35,3,.55-1.29,1.66-3.7.91-4.8,2.64.57,1.27,1.81,1.2,2.9,1.45,12.54,2.91,25.3,3.68,38.12,3.74,1.59,0,4.29,1.2,4.62-1.27.29-2.16-2.23-2.44-4.06-2.74-.45-.07-1-.25-.67-1.14,2.77-1.75,5.82-1.56,8.9-.6,1.31.41,2.84,1.24,2.44,2.7-1.16,4.32,1.78,3.45,4,3.43,4.67,0,9.34-.15,13.74,1.76,1,.45,2.86,1,2.89,1.59.23,4.66,3.21,2.71,5.49,2.51,1.79-.15,4.16.2,4-2.5-.24-3.41-2.61-1.31-4.12-1.19a2.4,2.4,0,0,1-2.56-1.09c-.57-1,.18-1.5.94-1.9,2.37-1.25,6.4-1.4,5.82-5s-4.72-2.15-7.21-2.95c-3.54-1.13-5.15-2.27-2.09-5.69,1.63-1.82,1.13-3.41-1.4-3.91-1.36-.26-3.27.52-3.42-1.79-.14-2.14,1.44-2.67,3.16-3.16,1.38-.39,3.54-1.34,1-2.72C1153.1,268.77,1148.16,265.87,1142.22,266.64Zm143.84,30.83c-2.79.64-4.54.95-6.22,1.47-1.11.35-3.08-.22-2.92,1.86.18,2.28,2.24,3.19,3.82,4.33,1.2.86,2.58,1,3.3-.7,1.63-3.77,3.13-2.2,4.87-.05.91,1.11,2.07,2.57,3.72,1.88,1.83-.77.24-2.33.32-3.52.09-1.4.22-2.85,1.5-3.48,1.93-1,1.71,1.32,2.5,2.05,2.5,2.29,5,3,8.1,1.14a48.16,48.16,0,0,0,8.31-6.36c1.05-1,2.3-2.07,1.58-3.85-1.76-4.31.72-5.61,4.31-6.4,2.27-.49,4.73-1.85,2.51-4.39-4.77-5.45-6.54-11.72-7-18.74-.17-2.94-2.45-3.67-5.17-2.79-3.37,1.09-7.36,1.09-9,5.18a1,1,0,0,0,.34.89c2,1.3,2,2.5.44,4.37s-3.09,2-5.21,1.21c-1.71-.67-3.12-.07-4.33,1.48-4.19,5.39-7.72,11.7-15.86,11.93a3.68,3.68,0,0,0-2.78,1.94c-.42.64-.89,1.74-1.8.82-3.36-3.4-7.77-.28-11.46-2-2.17-1-2.4.75-2.32,2.46.07,1.45,2,3.27-.55,4.25s-3.38-.77-4.65-2.53c-2.89-4-8-3.65-10.91.5-.69,1-1.68.83-2.63,1.05a22.59,22.59,0,0,0-5.21,1.55,15.34,15.34,0,0,1-12.45,1c-6.22-2-12.4-.66-19.34,1.64,4,2.71,9,1,10.87,4.23,2.81,4.77,7,4.31,11.2,4.53a48.57,48.57,0,0,0,19.06-3.05c4.86-1.75,10.17-5.29,12.21,3.32.06.27.45.48.7.69a2.8,2.8,0,0,0,3.67.28,3.82,3.82,0,0,0,1.63-2.33c0-1.73-1.69-1.1-2.66-1.44-1.71-.59-3-1.37-2.85-3.48.21-2.38,2-2.26,3.66-2.36,4.3-.25,8.82,1.5,12.86-.33C1277,293.66,1281,294.52,1286.06,297.47ZM625.88,502.1c-4.48-3.37-3.69-8-4.51-12.1-.32-1.63-.28-3.65-2.49-3.71s-1.74,2.07-2.09,3.38c-3.24,12.47-3.46,25.32-4.62,38.05-.14,1.56.07,3.34,1.35,4.11,6.71,4.08,4.72,9.32,2.3,14.76-1.34,3-3.53,6.14-2.48,9.45,2.32,7.37,2.35,15.1,4.19,22.51.84,3.38.94,6.55-1,9.6a4.64,4.64,0,0,0,.25,5.58c2.39,3.34,7.85,4.48,12.27,2.19,3.84-2,2.26-5.47,1.53-8.36-.68-2.72-2.25-5.29-1.46-8.2,2.47-9.06-.51-18.65,2.73-27.65.33-.94-.21-2.3-.62-3.37a21.52,21.52,0,0,1-1-10.33,154,154,0,0,0-2.17-48.13c-.32-1.58.44-4.34-2.59-3.63-2.51.6-2.58,2.75-1.64,4.82C625.4,494.43,625.65,498,625.88,502.1Zm813.8-44.63c-2.27,3.75-5,6.74-9,5.47-5.74-1.84-5.74,1.17-6.27,5.26-.51,3.92.51,4,3.94,3.33,9.26-1.85,18.92-2.36,26-10a3.9,3.9,0,0,1,1.8-.79c3.71-1,5.7-3.69,7.12-7.1a38.86,38.86,0,0,1,10.58-14.89c3.79-3.25,7.31-6.88,9-11.74.63-1.79,3.33-3.7.52-5.61-2.57-1.73-5.48-4-8.68-1.75-5.8,4.07-11.86,7.26-19,8.37-2.55.4-3,2.55-.85,3.78,4.73,2.63,3,5.76,1,8.69a23.89,23.89,0,0,1-15.36,10.29c-3.67.75-7.49,1.94-10.59-1.82-1.39-1.67-2.44-.42-2.39,1.2.12,4.09,3,6.45,5.85,8.82C1436,461.22,1436.93,457.45,1439.68,457.47ZM240.6,723.26c1.45-.1,3.28-.12,5.08-.36,10-1.35,18.9-5,25.51-13,1.81-2.19,3.06-4.71.17-6.92-6.79-5.19-14.11-8.69-23.07-6.75-11.52,2.51-20.25,9.61-28.66,17.24-2.37,2.15-.62,3.46,1.16,4.6C226.71,721.84,233.31,723.18,240.6,723.26Zm967.94-415.43c-1.83-2.94-.94-7-5.23-7.68-5.88-.94-8.69-5-10.45-10.17-2.8-8.26-11.23-11.71-18.48-7.38a3.74,3.74,0,0,0-1.2,4.5,4.94,4.94,0,0,0,5.39,3.51,11.15,11.15,0,0,1,7.35,1.64c-2,1.47-3.6.85-5.15.67a14.16,14.16,0,0,0-9,2.25c-1.41.84-2.48,2-1.59,3.65a5.72,5.72,0,0,1-.64,6.52c-.71,1-.71,1.89.36,2.53s2,0,2.35-1c.84-2.26,4.1-3.72,2-7-1-1.61.69-2.25,2.06-2.47,2.59-.42,4.53.81,6.09,2.68C1189.19,308.2,1197.79,310.47,1208.54,307.83ZM726.47,415.6c1,5.27,1,5.27-2.37,10-.29.4-.77.89-.72,1.28.87,6.63-2.13,12.47-3.62,18.63-.43,1.76.34,4,1,5.79,1.19,3.27,2.77,6.39,4.09,9.61.92,2.23,2.36,3.25,4.65,2.15s2.78-2.91,1.65-5.35a10.55,10.55,0,0,0-6.13-5.43c-1.5-.61-2.61-2.09-1.81-3.58.9-1.69,2.59-.57,3.88-.08a4.45,4.45,0,0,1,1.53,1.25c2.26,2.46,3.63,1.8,5.21-.93,2.43-4.19,6-7.49,8.4-11.93,1.65-3.05.53-3.19-.8-4.24-3.06-2.42-6.94-3.08-10.45-4.53-1.86-.77-3.54-1.68-1.81-3.95C732.33,420.14,730,417.83,726.47,415.6ZM1417.63,471c-5.13-1.44-5.83-4.14-2.33-5,4.56-1.14,4.83-3.51,4.55-7.12-.08-1.06.66-2.19,1.08-3.27.53-1.37,2.82-3,.43-4.08-2.12-.94-2.14,1.85-3,3.1a13,13,0,0,0-.67,1.35c-.46.9-1.06,1.87-2.11,1.92-1.63.08-1.49-1.5-1.83-2.5-.8-2.34-2.15-4.65-1.79-7.18.65-4.61-1.3-5.43-5.43-4.69-3.33.59-5.13,1.77-5.06,5.39a34.43,34.43,0,0,1-.7,7.44c-.7,3.52-1,6.3,4.14,3.77-1.5,7-2.31,7.44-8.13,4.91-1.85-.81-3.57-1.32-4.8.7s2.72,8.77,5.13,8.82C1403.53,474.71,1409.62,473.14,1417.63,471Zm85.44-172.3c-3.2-1.5-6.42-2.59-8.55.32-4.16,5.68-10.51,7.84-16.22,11-3.08,1.73-6.11,3.45-7.75,6.71-.72,1.44-3.06,2.74-1.09,4.71,1.69,1.67,3.54.41,5-.38a100.08,100.08,0,0,1,17.17-6.44l12.86-3.91C1499.53,306.33,1499.34,304.57,1503.07,298.74ZM836.55,271.47c3.81,3.34,6.17,8.13,10.92,6.15,5.24-2.18,5.21-.28,4.58,3.84-1,6.74.67,12.52,6.65,16.49,2,1.37,3.8,1.57,4.14-1.53.37-3.46,2.13-3.48,4.87-2.48,1.27.47,3.24,2.53,4.18.12.69-1.76-1.56-2.63-2.89-3.51s-2.92-1.59-4.3-2.51c-2.76-1.85-4.44-5.17-3.39-7.71,2.18-5.28-1.53-5.91-4.53-7.22C850.63,270.44,844.16,271.1,836.55,271.47Zm380-142.19c.32-2.21-.63-4.06-2.84-3.57-4.16.91-7.77-.26-11.57-1.57-2.45-.85-4.52.24-5.58,2.85-1.14,2.79.18,4.54,2.51,5.63a55.69,55.69,0,0,0,5.64,1.89c7.14,2.46,11.53,7.11,11.66,15,.08,5.1,2,9.69,3.55,14.43.81,2.53,2.13,3.2,4.43,2s3.47-2.62,1-4.88c-.7-.64-1.68-1.66-1-2.57,2.85-3.83.23-5.05-2.7-6.44a4,4,0,0,1-1.6-2.4C1218.17,143,1215.4,136.45,1216.51,129.28ZM1513.22,339.4c-.63-2.88,3.62-4.56,1.21-7.5-3.11-3.79-11.84-5.58-16.18-3.31a2.65,2.65,0,0,0-1.61,3.27c1.17,3.47-1.17,4.36-3.57,5.33q-4.15,1.67-8.3,3.38c-1.11.46-3.08.07-2.83,2s2.19,2.29,3.61,3.11,2.15.39,3.19-.94c6.27-8,13.69-8.74,21.94-2.39,1.9,1.47,3.73,2.16,5.92.87,3.71-2.2,7.59-3.11,12-1.18-.15-4.24-3.44-5.34-5.79-6.69C1518.33,332.85,1517.35,339.62,1513.22,339.4ZM1112.7,431.89c-.12,1.09-1.33,2.57.5,2.9,1.55.28,1.52-1.39,1.72-2.47,1.44-7.66,2-15.16-3.73-21.61-.87-1-2.23-2.67-1.91-3.34,2.7-5.64-.36-8.47-4.81-10.78-.13-.07-.18-.28-.28-.41-.8-1.06-1.88-2.67-3.11-1.62-1.76,1.5-2,4.24-3.83,6-.47.44,1,1.43,1.94,1.76,4.83,1.64,5.13,4.71,3.36,9.05a11.85,11.85,0,0,0,6.62,15.08C1111.82,427.44,1113.53,428.84,1112.7,431.89ZM1046.05,97.23c3.59.38,6.79,1.27,6.88-2,.08-3.1-3.56-1.86-5.5-2.63a4.29,4.29,0,0,0-2,0c-12.35,1.64-24.73,3.16-37,5.65a56.92,56.92,0,0,0-6.16,1.92,1.89,1.89,0,0,0-1.36,2.31c.11.76.69,1.32,1.35,1.17,5.06-1.19,9.32,1.94,14,2.49,2.21.26,4.59-.11,5.59-2.35,1.51-3.36,4.15-3.23,6.66-2.21,3.56,1.44,6.41.35,9.39-1.37S1043.82,97,1046.05,97.23ZM1539,436.47c-2.64.19-4.82.71-6.91.45-8.77-1.08-17.06,2.09-25.64,2.65-1.46.1-3.08.72-3.36,2.46-.34,2.08,1.64,2.21,2.89,2.82C1517.56,450.47,1528.07,447.85,1539,436.47ZM537.22,261.4c3.56-.65,7.16-1.28,10.75-2,2.57-.49,5.27-1.34,4.89-4.54-.44-3.69-.66-8-5.51-9-2-.46-4.11-.21-4.49,2.51-.14,1,.1,2.17-1.43,1.91-3.5-.59-5.91,1.87-8.78,3-1.82.73-5,.21-4.63,3.38.3,2.71,3.05,3.25,5.21,4A24.37,24.37,0,0,0,537.22,261.4Zm804.39-103.81c0,2.65.32,4.94,4,3.22a1.54,1.54,0,0,1,2.35,1c.23.87-.46,1.49-1.27,1.89a17.38,17.38,0,0,1-8.07,2.25c-1.45,0-3.36-.13-3.26,2,.09,1.71,1.54,2.38,3.2,2.54a18.36,18.36,0,0,0,10.08-2.23c1.17-.59,2-2.22,3.8.34,1.3,1.9,4.9.14,7.32-.67,1.3-.43,1.29-1.83.68-3-2.7-5.07-6-9.7-11.32-12.22C1345,150.84,1341.7,153.11,1341.61,157.59Zm-109.56-4.8c1.13,1.07,3.29,1,3.39,2.6.24,4.14,2.77,4.31,5.89,3.88s6.36-.64,6.62-5.11c.13-2.25,1.92-3.76,3.88-4.85,1.09-.61,3-.64,2.65-2.41a4.86,4.86,0,0,0-3.09-3.63,7.85,7.85,0,0,0-8,1.06C1239.59,147,1236,149.84,1232.05,152.79ZM821.12,402.43c-6.93-.28-12.29,1.37-15.9,4.52-4.13,3.59-8.87,2.7-11.75-2.27a38.77,38.77,0,0,1-1.51-3.8c-.64,3.24-3,5.59-.51,6.95,4.61,2.52,8.75,6.29,14.21,6.89,2.87.31,6.78,1.4,7.47-3.24.64-4.33,2.56-3.9,5.38-2.09,1,.63,1.54,2.34,3.47,1.44C820.58,408.28,816.74,406.17,821.12,402.43ZM722,284l-1,.7c-2.42-1.94-4.93-3.78-7.24-5.85s-4.56-3.88-7.64-4.35c-1.52-.24-3.4-1.29-4.34.92-1.3,3,.47,5.42,2,7.76,1.23,1.85,2.67,1.31,4.28.37,5.5-3.19,5.63-3.07,8.1,2.54,1.19,2.71,3.24,6.72,5.57,6.08,3.26-.9,3.39-5.2,3-8.63a9.85,9.85,0,0,0-.52-2.42c-.36-.93.27-2.8-1.52-2.51-1.52.25-1.87,1.7-1.48,3.17C721.49,282.48,721.75,283.21,722,284ZM1025.7,402.89c.52,2.2-1.68,6.32,3,5.08a19.74,19.74,0,0,1,11.72.28,5.41,5.41,0,0,0,5.18-.92c1.89-1.41,3.8-2.65,6.28-2.79a3,3,0,0,0,3-2.83c.17-1.77.54-3.78-2.09-4.26,0,3.88-6.19,7.91-12,7.73-5.59-.17-8.94-3.15-8.44-7.46-4.7-.08-8.81,2.76-13.5,2.79-1,0-1.57.5-1.56,1.48a1.52,1.52,0,0,0,1.62,1.55C1021.05,403.44,1023.19,403.14,1025.7,402.89Zm-286.89,60c0,3.21,2.58,5.89,0,8.16-3.3,2.93-1.1,4,1.4,5.06s7,3.82,7.65,3.11c2.37-2.6,1.41-6.52,1.07-9.94a21.26,21.26,0,0,0-1.44-5.76c-.9-2.23-.82-5.2-4.89-6.7C744.35,461.12,745.44,465,738.81,462.91ZM896.3,147.1c-1.22-3.09,2-6.6-1.15-9a54.15,54.15,0,0,0-10-5.36,3.69,3.69,0,0,0-4.87,1.29c-1.17,1.74,0,3,1,4.46C884.57,143.92,890,145.66,896.3,147.1ZM506.93,158.33c.09-4.59-2.48-7.75-5.87-10.34-.94-.71-2.79-1.51-3,.72-.27,3.58-2.84,3.53-5.28,3.93-1.14.19-2.39.32-2.53,1.86a2.75,2.75,0,0,0,1.73,2.77,10.29,10.29,0,0,0,5.29,1.16,4.25,4.25,0,0,1,4.21,2c.83,1.35,1.59,3.34,3.65,2.66C507.45,162.38,506.34,160,506.93,158.33ZM946,380.24c6.29,1.77,12.43,3.66,18.8,1.72,3.35-1,5.32-3.83,6.43-7.12.78-2.29-.42-3.55-2.52-3.89s-3.51,0-3.57,2.74c-.15,6.16-1.13,6.76-7.36,5.63-2.94-.53-4.22-1.35-1.49-3.91.83-.78,1.82-1.59,1.06-3a2.11,2.11,0,0,0-2.53-1.07c-1.27.33-2.86.62-2.71,2.35C952.49,378.22,950.12,379.73,946,380.24Zm284.27-255.63c1.46,2.94,3,5.39,2.84,8.58-.12,1.93,1.51,3.38,3.75,2.85a12.31,12.31,0,0,1,5.85-.13c1.64.39,2.65-1,3.43-2.36.87-1.51-.23-2.34-1.3-2.62-5-1.35-1.43-3.47-.17-5.28C1239.82,123.35,1235.23,124.59,1230.23,124.61ZM966.05,397.89c5.46.92,10.59,1.19,14.2,5.34,1.09,1.25,2.32,1.43,3.3,0,1.39-2-.71-2.15-1.71-2.59-6-2.66-8.11-7.5-8-13.68,0-2.06,0-4.12,0-7.26a16.16,16.16,0,0,1-7.84,5.74c-1,.34-2.31,1.08-1.61,2.57.56,1.2,1.62.76,2.58.36,1.5-.61,3-.76,3.87,1a4.6,4.6,0,0,1-.63,5.57A34.11,34.11,0,0,1,966.05,397.89ZM664.93,418a11.49,11.49,0,0,0,.39,10.79,41.89,41.89,0,0,0,5.8,8c.67.78.49,2.53,2.16,2,1.42-.48.91-2,1-3.05C674.79,428.22,670.88,422.91,664.93,418ZM635.66,161.61c5.77-9.09,3.43-18.72-5.8-23.54C633.17,145.71,630.62,154.25,635.66,161.61Zm412.12,259.25c-.37-1.81-1-4.26-3.5-5.51-3.35-1.69-7.28-1.88-10.47-4.29-1.15-.87-3.19.39-3.91,2.11-.48,1.15.11,1.89,1.35,2,4.74.57,7.66,3.25,9.59,7.56.89,2,3.24,2.08,5.28,1.76C1047.79,424.27,1048.09,423,1047.78,420.86ZM927.61,392.59c-2.72-.94-5.42-.38-7.42-2.22-.8-.73-1.32-2.43-2.62-1.84s-1.59,2.37-1.69,3.88c-.42,6.11,5.83,12.87,13.3,14.39C921.22,398.39,921.22,398.39,927.61,392.59Zm-7.11-82.1c1.81-.24,3.72.06,5.3-1,2-1.41,2.83-3.25.15-4.5-4.91-2.28-9.76-4.95-15.48-4.68-1.87.09-3.72.05-4.52,2.2a1.67,1.67,0,0,0,.8,2.11c1.81,1.13,3.16-.1,4.45-1,2.72-2,5.19-2,7.32.77,1.18,1.55,1.51,3-1.24,2.5-1.37-.25-2.46-.27-2.55,1.26-.08,1.35,1.13,1.92,2.33,2.11S919.36,310.4,920.5,310.49ZM384.14,329.35a13.52,13.52,0,0,0-1.32-1.88A43.74,43.74,0,0,0,370.16,318c-.87-.41-1.81-1.17-2.71-.34-1.05,1-.58,2.29,0,3.21a25.94,25.94,0,0,0,13.63,10.24C382.3,331.49,383.84,331.52,384.14,329.35ZM758,304.1c1.65-.16,2.35-.94,2.19-1.69-1-4.55.29-8.11,4.14-10.78.63-.44,1.28-1,.77-2-1.53-3-9.27-4.34-11.68-2-.71.7-1.67,1.75-.63,2.51C757.58,293.64,758.26,298.76,758,304.1Zm269.31,78.22c1.37,1.79,3.39,2.07,3.9,4.25.63,2.71,2.67,2.33,4,.65a14,14,0,0,0,2.89-11.18,3,3,0,0,0-3.22-2.56c-1,0-2.47.68-2.2,1.53C1034.12,379.6,1030.54,380.59,1027.32,382.32ZM900.47,114.11c-.21-5.25-3.23-10.28-6.15-9.87s-4.08,2.78-4.88,5.07c-.49,1.41,7.11,7.12,9.11,7.07C899.89,116.34,900.8,115.82,900.47,114.11Zm421.32,175.07c-2.35,0-3.08,1.68-3.36,3.58-.35,2.32,4.41,10.18,6.66,11.1a4.85,4.85,0,0,0,4.33-.1c1-.57,2.65-1.17.17-2.61-3.1-1.8-4.74-5.91-5-9.83C1324.5,289.65,1323.23,289.23,1321.79,289.18Zm-343.72,3.18c1.7,6.85,5,8.48,10.48,5.6a8.41,8.41,0,0,1,5.14-1.32c2.82.31,4-1.87,4.9-4.15.37-1,.68-2.08-.52-2.59-2.16-.92-3.81.43-5.45,1.56-.27.19-.51.42-.78.63C985.29,297.23,985.29,297.23,978.07,292.36ZM1064.2,111c-2.22-6.66-3.92-7.67-9.36-6.06-2.7.8-5.35,1.79-8,2.8-1.06.41-2.3,1-1.62,2.53a2,2,0,0,0,3,1C1053.19,108.38,1058.3,108.72,1064.2,111Zm-56,297.15c-1.28.62-4.07-1.07-4.11,1.82,0,2.31.29,4.49-.72,6.75-.57,1.29.55,2.7,1.76,3.22,1.79.78,1.44-1.18,2-2,1.16-1.62,2.36-3.21,3.54-4.8.85-1.14,2.56-2,1.68-3.76S1009.83,408.08,1008.17,408.12ZM627.07,466c.22-1.82,1-4.56-2-4.45-2.13.07-2.61,2.25-2.72,4.15a3.94,3.94,0,0,0,.41,1.91c1.63,3.11,2.6,6.1-.35,9.09a1.8,1.8,0,0,0,.1,2.67c.44.31,1.6-.06,2.24-.45,1.29-.77,2.37-1.74,2.33-3.51C627,472.23,627.07,469.09,627.07,466ZM382,342.05c-1.81.74-4.48,1.58-4.88,4.35-.44,3,2.11,5,3.84,7.15.15.19.89.09,1.24-.09,1-.49,3.35-9.27,2.82-10.27S383.65,341.8,382,342.05ZM920.77,296c-.44-2.35-1.08-4.49-4.7-3.41-2.35.7-4.5-.7-6.61-1.63-1.73-.76-3.48-1.17-5.22-.2a2.59,2.59,0,0,0-1,1.55,1.08,1.08,0,0,0,1.11,1.31C909.87,293.64,914.45,298.87,920.77,296Zm384.7,41.94c3.15.85,3.91-.79,4-2.79.21-3.32-2.32-3.13-4.46-3.05-2.86.12-7.63-.65-7.53,2.71C1297.67,339.83,1303.25,336.57,1305.47,337.93Zm-606-183.63c4.07.37,6.45-.36,6.68-3.87.24-3.75-3.14-3.08-5-3.31a4.58,4.58,0,0,0-5.2,4.18C695.66,154.41,698.48,154.14,699.48,154.3Zm549,19c-.31-2.31-2.77-3.85-1.91-6.49.46-1.41,3.41-2.86.55-4.42-2-1.08-4.22-.3-6.22.61-1,.47-1.73,1.76-.65,2.26,4,1.82,2.42,5,1.88,8Zm261.25,123c2.65.31,4.39-.09,4.87-2.35.36-1.69-4.71-6.21-7-6.37-2-.15-2.75,1.41-2.74,2.82A5.83,5.83,0,0,0,1509.76,296.31ZM1333.1,192.15c-1.95-1.31-3.44-2.28-4.9-3.29-2.36-1.65-7.93-.77-9.69,1.47-.93,1.19-.34,2,.72,2.21C1323.66,193.55,1328.14,194.73,1333.1,192.15ZM931.91,386.35c3.9,6.44,10.91,9.59,17.51,8.28-2.33-3.74-2.33-3.75-6.38-2.73-1.28.32-3.38.88-3.39-.61C939.62,385.32,934.56,387.88,931.91,386.35ZM623.59,449.63c0-3.16-3.18-4.55-4.06-7.24-.37-1.14-.26-3-2.33-2.33a3,3,0,0,0-1.92,4,20.18,20.18,0,0,0,4.89,7.42,2,2,0,0,0,2.24.62C623.52,451.69,623.53,450.63,623.59,449.63ZM889.47,303.71c-.49-4.19-4.81-6.26-6.53-10-.51-1.1-2.13.26-2.5,1.36-.68,2.09.38,3.49,2.26,4.35s4,1.5,1.74,4.18c-1,1.25.26,2.05,1.12,2.8a2.31,2.31,0,0,0,2.69.68C889.46,306.42,889.36,305.14,889.47,303.71ZM832.83,146.86c-3.88-1.26-7.34-2.55-10.92-.74-1.55.79-2.69,2.06-1.95,4s2.42,1.51,3.76,1C826.73,150.1,830.24,150.08,832.83,146.86Zm260.46-23.05c3.43-.26,5.28-1.57,5.25-4.65,0-2-1-3-3.19-2.57-2.53.47-5.72,0-5.62,4C1089.8,123,1091.62,123.8,1093.29,123.81ZM674.73,401.44c3.11.56,5.63,1.14,8.18,1.45,1.55.19,3.31-.44,3.58-2,.59-3.37-3-2.8-4.53-4.14-.73-.62-2-2.48-2.54-.71C678.67,398.46,676.62,399.39,674.73,401.44Zm397.74-.08c-1.57,1.06-4.89,1-4.3,4.16.55,2.91,2,5.72,5.42,6.43,1.44.3,1.45-1,1.37-2-.23-2.58-3.11-4.85-.81-7.77C1074.4,401.87,1073.5,401.18,1072.47,401.36Zm300.92,61.11c-.74-1.9-1.59-3.84-4.07-3.62s-4.06,1.62-3.91,4.21c.12,2.2,1.23,3.9,3.75,3.57A4.48,4.48,0,0,0,1373.39,462.47Zm-17.34-289.15c-3.86-1.23-7.5.89-11.28.19-1.3-.23-2.85-.44-2.93,1.58s1.63,1.89,2.81,2.19C1349.2,178.43,1352.35,175.12,1356.05,173.32Zm-640-37.57c-3.87,2.11-5.09,5-3.81,8.8.58,1.74,2.21,1.34,3.32.57C719.62,142.28,717.18,139.13,716.05,135.75Zm580.11,293.47c-.13-2.58-.61-5.21.08-7.76.89-3.32-1.21-5.63-2.47-8.24a1.41,1.41,0,0,0-1.51-1,1,1,0,0,0-.82,1.44C1293.74,418.6,1293,424.4,1296.16,429.22ZM876.25,155.15c-.84,5.37,1.36,9.36,5.13,10.21.82.19,1.71.33,2.3-.36a1.62,1.62,0,0,0-.22-2.22C881.19,160.3,878.85,157.88,876.25,155.15ZM662.4,117.65a7.14,7.14,0,0,1,.45,5.68c-.68,2,.5,2.86,2.17,3s3.27-.46,3.23-2.75C668.18,120.06,666.71,117.9,662.4,117.65ZM676.75,421.9a1.69,1.69,0,0,0-1.91,1.76c-.16,2.35,4.55,7.49,7,7.66a1.91,1.91,0,0,0,2.21-1.49c.35-1.15-.39-1.45-1.29-1.55-2.3-.26-2.71-2.19-3.37-3.84C678.88,423.16,678.35,422,676.75,421.9ZM811.67,132.33c-3.59,1.54-6.85.6-10.19-.69-1-.38-2.61.42-3.68,1.1s-1.49,1.84.1,2.65C800.3,136.62,809.41,134.82,811.67,132.33Zm39.77,2.21c-1.86.17-3.16,1.15-3,2.79.26,2.37,1.41,4.57,4.07,5a2.61,2.61,0,0,0,2.87-2.78C855.39,137,853.53,135.52,851.44,134.54ZM684.15,423c4.55,2.72,8.3,2.34,10.27-.72a2.17,2.17,0,0,0,.42-2.28,1.15,1.15,0,0,0-1.68-.47C690.46,421.15,687,420.53,684.15,423Zm-50.7-288.6.78-.14c0-2.87.34-5.79-.1-8.59-.39-2.57-3-2.78-5-2.72-1.11,0-1.33,1.14-.7,2.25C630.13,128.29,631.78,131.37,633.45,134.44Zm95.09-8.32c-4.59-1.71-8.36-3.17-12.17-4.49-1-.36-2.41-.76-3.1.5a3,3,0,0,0,.13,2.36,1.92,1.92,0,0,0,2.88,1c2.61-1.84,4.58-.55,6.69.9C724.33,127.3,725.84,128,728.54,126.12Zm269.72,256.2a26.55,26.55,0,0,0-3.43.27,1.52,1.52,0,0,0-1.33,1.78c.18.84.85,1.72,1.72,1.49,2.71-.73,5.2,0,7.78.61a2,2,0,0,0,2.43-1.94c.08-1.33-1.2-1.34-2.18-1.48C1001.61,382.8,1000,382.57,998.26,382.32ZM774,279.23c2.3-.76,4.28-1.38,6.23-2.09,1-.35,2-1,1.63-2.15-.7-2.06-2.64-2.9-4.5-3.63a2.54,2.54,0,0,0-2.8.45,1.34,1.34,0,0,0,0,1.29C777.93,275.25,774.29,276.94,774,279.23Zm39.44,144.41c3,0,5.89,0,8.83,0,1.34,0,2.72-.19,2.86-2a3.09,3.09,0,0,0-1.14-3.09c-1.19-.8-2.65-1.07-3.57.15C818.59,421.1,815.75,421.51,813.42,423.64Zm232.64-30.54a16.82,16.82,0,0,1,8.35-.61c2.15.41,2.54-1.13,2.56-2.66,0-1.9-1.06-2.68-2.91-2.08C1051.13,388.7,1048,389.42,1046.06,393.1ZM805.3,140.16c-1.84.88-4.84.77-5.07,4.07-.09,1.25,1.17,2.51,2.23,2.08,2.32-.95,5.47-1.27,6.35-3.95C809.27,141,807.3,140.11,805.3,140.16ZM996.46,409.9c-.05-1.19-6-5.4-6.9-4.71-1.35,1.09-4.44,2.48-2.38,4.2,1.88,1.56,5.27,1.34,8,1.77C995.83,411.26,996.37,410.65,996.46,409.9ZM944.7,124.49c3.55.2,5.27-.61,6.1-2.72a2.28,2.28,0,0,0-.44-1.77,1.07,1.07,0,0,0-1.73,0c-2.55,3.84-5.06,2.6-7.72.13a1.53,1.53,0,0,0-2.55.29,1.61,1.61,0,0,0,1,2.39C941.53,123.58,943.76,124.19,944.7,124.49ZM704.87,407.63c-1.63.48-3,.95-2.75,2.66.41,3.11,3,3.68,5.41,4.11,1.13.2,2.71-.12,2.5-1.61C709.59,409.79,706.12,409.71,704.87,407.63ZM685.44,411c3-1.15,4.26,1,5.87,2.7a2.63,2.63,0,0,0,3.61.16c.94-.66,1.78-1.52,1.5-2.87-.34-1.66-1.62-2-3-1.9C690.73,409.19,687.86,408.53,685.44,411ZM975,286.31c-3.56,1.47-5.32,3.95-7.58,5.79-1.31,1.06-1.19,2.26.28,3.13.88.52,2.26,2,2.82.34C971.56,292.52,974.62,290.48,975,286.31ZM605.64,479.21a2.61,2.61,0,0,0-2.84,2.72c-.13,2.34.58,4.35,3.39,4.49a2.6,2.6,0,0,0,3-2.55C609.41,481.31,608,479.92,605.64,479.21Zm275.55-57c5.3-.77,9.73-1.46,14.6-4.84C889.84,417.46,885.05,417,881.19,422.23Zm634.31-34c1.6,4,1.64,7.37,4.26,9.57a3.27,3.27,0,0,0,3.27.63,1,1,0,0,0,.36-1.64C1521.17,393.94,1520.14,390,1515.5,388.2ZM767.71,124c-2.59-1.57,1.91-7-3.62-7.5-1-.1-2.35.6-1.76,1.68,1.48,2.66,1,6.47,4.41,7.94C767.45,126.41,768.06,125.34,767.71,124Zm387.58,64.88a10.76,10.76,0,0,0-9.22-1.21c-1,.32-2.37.85-2,2.37s1.5,1.75,2.74,1.52A24.12,24.12,0,0,0,1155.29,188.86ZM901.7,280.48c-.75.38-3-.62-2.71,1.89.26,2.05,1.22,3,3.14,1.05.64-.64,1.5,0,2.17.55,1.25,1.08,3,2.64,4.17.78,1.32-2.19-1.83-2.07-2.72-3.23S903.53,280.18,901.7,280.48Zm-114.84,2c-8.72-1.31-10.84-.85-13.1,2.51C778.62,286.61,782.64,284.12,786.86,282.53ZM264.22,379.79l-1-.92-9.33,9.87C258.7,387.15,262.34,384.36,264.22,379.79ZM393.4,325.54c-1-2.29-1.66-4.15-2.62-5.84-.48-.86-.45-3.29-2.48-1.69-1.21.95-2.71,2.25-1.32,4.14A7.34,7.34,0,0,0,393.4,325.54ZM931.1,133.71c-1.4-6.13-5.79-8.27-11.33-8.84C924.15,127,927.22,130.86,931.1,133.71Zm387.8,265.73c.12-5-1.68-7.83-4.47-10.11a1.73,1.73,0,0,0-2.28-.15c-.75.73-.29,1.53.25,2.2Zm-119.09,22.73c0-1.4.23-3.16-1.94-3.19a3.37,3.37,0,0,0-3.56,3.33c-.13,2.21,1.62,3,3.61,3.09C1200.53,425.52,1199.3,423.38,1199.81,422.17Zm-995.65-31c-2.18.19-4.43.41-5,3.09-.32,1.54.72,2.13,2.11,1.74,2.16-.6,5-.5,5.67-3.23C207.47,390.5,205.23,391.58,204.16,391.15ZM1030,371.59c0-1.49-.29-2.77-2.12-2.58-2.26.25-3.44,1.77-3.9,3.85-.32,1.43.46,2.28,1.89,2.1C1027.94,374.7,1029.77,374,1030,371.59Zm-508.84-121c-1.55.41-3.59.52-3.62,2.62s1.64,3.24,3.56,3.52c2.26.33,2.08-1.67,2.3-3C523.72,252.05,523.2,250.76,521.2,250.58ZM935,398.61c-.23-2.1-1.6-2.66-3.46-2.46-1.45.15-3.43.23-3.32,2.08.15,2.48,2.55,2.64,4.45,2.85C934.25,401.26,934.93,400.16,935,398.61Zm40.42-230.89c1-.79,3.73,1.26,3.43-1.64s-3.32-2-5.24-2.32c-1.41-.26-3.62-.08-3.5,1.6C970.28,168.54,973.26,167.14,975.37,167.72ZM722.77,135.3c-1.3-.14-1.86.48-1.64,1.39.65,2.58,1.74,5,4.37,6.08.75.31,1.5-.65,1.32-1.57C726.3,138.59,725.47,136.15,722.77,135.3ZM1043.6,388.51c.34-1.57-.86-1.43-1.78-1.34-2.38.24-3.32,2-3.58,4-.19,1.49.82,2.88,2.23,2.57C1043,393.18,1042.73,390.45,1043.6,388.51ZM583.35,515.64c-1.17.24-4.06-.49-4,1.79.13,3.09,3.53,1.19,5.33,2.07,1.39.68,2.59-.48,2.49-2.12C587.06,515.18,585.39,515.43,583.35,515.64ZM882,289.9c-1.68-1.92-4-2.09-6.19-2.54-1.05-.21-2.42-.56-2.78,1.06-.32,1.47.66,2.07,1.93,2.25C877.35,291,879.79,291.84,882,289.9Zm80,102.39c-.1-1.88-1.41-2.63-2.91-2.92-2.09-.42-2.44,1.33-2.82,2.73-.55,2,.93,2.11,2.33,2.09S961.69,394.41,962,392.29ZM525.1,242.09a5.38,5.38,0,0,0-4.23,3.73c-.41,1.48.8,1.65,1.8,1.51,2-.26,4-.68,4.46-3.11C527.38,242.81,526.53,242.11,525.1,242.09ZM1216.31,407.4c3.52.94,4.85.79,6.13-.51,1.51-1.53,1.19-3-.35-4.16-1.92-1.49-2.07.21-2.41,1.48C1219.25,405.82,1217.21,405.66,1216.31,407.4Zm75,42.23c3-3.66,3.63-6.08,2.7-10.94C1291.85,442.25,1290.33,445.5,1291.29,449.63Zm-594-319.94c2.9,2.14,4.58,4.53,7.83,5.81C704.76,130.55,702.62,128.74,697.25,129.69Zm94.83,5.24c-4-1.58-.91-6.19-4.71-6.17-2,0-1.92,2.78-1.64,4.62C786.23,136.55,788.45,135.49,792.08,134.93Zm-38.32-7.58c-2.1-2.86-4.47-3.52-7.28-2.62-.93.3-1.92,1-1.6,2.16.27,1,1.35.79,2.11.7C749.11,127.33,751.25,128.5,753.76,127.35Zm-72.92-7.11c-.5-1.62-1.44-2.71-3.15-2.82-1.41-.09-2.93.29-3,1.87-.13,1.85,1.51,2.47,3.07,2.53C678.94,121.86,680.47,122,680.84,120.24ZM927.66,423c-2-2.5-3.52-4.8-6.59-6.08C920.83,421.76,923,423.41,927.66,423ZM734.48,292.48c2-1.2,4.09-2.32,6-3.63a1.68,1.68,0,0,0,.4-2.57c-.81-1-1.76-.64-2.55,0A10.13,10.13,0,0,0,734.48,292.48Zm343.8,112.65c.44,1.21-.51,3.4,1.63,3.51,1.82.08,2.95-1.39,2.91-3.29s-1.64-2.49-3.07-2.67C1078.05,402.47,1078.18,403.9,1078.28,405.13Zm-214-126.55c1,2.69,3.2,3.05,5.3,3.1,1.58,0,4.24,1.11,4.47-1.3.18-1.9-2.38-.77-3.65-1.21C868.53,278.53,866.67,277.72,864.24,278.58Zm119.47-149c1.73,0,2.88-.86,3-2.52a2,2,0,0,0-2.39-2.35,3.28,3.28,0,0,0-2.72,3C981.3,129.39,982.53,129.5,983.71,129.56ZM613.57,152.69c-1.51,3.77-1.92,6.85.46,10.57C615.65,159.35,614.86,156.33,613.57,152.69ZM990.73,131.2c1.2,4.64,2.79,7.74,7,9.49C995.92,135.25,995.46,134.6,990.73,131.2Zm-87,141.93c2.22,1.07,3.85,1.77,5.41,2.61,1.28.7,2.45,1.24,3-.7.45-1.55-.24-2.52-1.81-2.81C908.36,271.87,906.31,271.4,903.78,273.13ZM691.22,394.28a6.91,6.91,0,0,0,1.68,5.48c1,1.24,2.43.89,3.67.36.54-.23,1.27-.86,1.28-1.31,0-1.56-1.39-1.45-2.43-1.9A31.59,31.59,0,0,1,691.22,394.28ZM1096.79,177.6c-.88-2-2.77-2-4.58-2.11-.86-.06-1.9.08-1.61,1.21.53,2.05,2.12,2.88,4.17,2.75C1095.81,179.38,1096.73,179,1096.79,177.6ZM768.26,400.48c1.75,3,3.92,3.8,6.42,3.42,1.08-.16,1-1.69.55-2.5C773.42,398.36,771.05,400.65,768.26,400.48Zm122.36-7.41c-1.7.46-3.77.57-4.39,2.63-.44,1.45.9,1.52,1.89,1.39,1.79-.24,3.83-.33,4.42-2.5C892.93,393.17,891.72,393.07,890.62,393.07Zm18.87,1.08a2,2,0,0,0,1.79-2.1c0-1.67-.81-2.89-2.68-2.83a2.1,2.1,0,0,0-2.26,2.57C906.54,393.21,907.46,394.14,909.49,394.15Zm151.06,14.12c-.93,2.86-.4,4,.38,5.13a5.47,5.47,0,0,0,4.12,2.36c.25,0,.81-.67.79-1-.12-1.54-1.66-1.85-2.53-2.76A40.31,40.31,0,0,1,1060.55,408.27Zm-163.47-10c1.57-.22,3.18-1,3.34-2.45s-1.63-2-2.89-2.06c-2.08-.1-2,1.89-2.35,3.16C894.79,398.42,896.1,398.27,897.08,398.26Z"/><path d="M1590.66,389.82c4,5.9,8.2,11.71,11.35,18.16,2.42,5,1.53,7.17-3.68,9.11a25.53,25.53,0,0,1-10.79,1.42c-1.35-.1-2.66-.49-3.07-2.08s.76-1.81,1.68-2.57c3.35-2.77,3.53-5.86.13-8.08-2.37-1.54-2.43-3-.73-5.71-2.18.92-3.52,1.51-4.87,2.07-1.59.66-3.25,1.17-4.62-.3s.17-2.26.92-3.29c1.23-1.66-.2-1.94-1.35-2.19-2.39-.52-4.56.34-6.79,1.06-5,1.61-7.2-.12-6.25-5.15.58-3.07.44-5.3-3.12-5.95-2.81-.5-2.8-2.81-3-5-3.27.81-4.87,3-6,5.71a2.57,2.57,0,0,1-2.64,1.89c-1.42-.15-1.67-1.22-2-2.44-2.13-7.72-2.17-7.71,5.94-10.18,1.27-.38,2.55-.76,3.85-1,7.17-1.48,10.57-6.23,9.75-13.68-.16-1.47-.83-3.24-.26-4.38,1.73-3.44,2.19-6.09-2.2-7.69a2.56,2.56,0,0,1-1.12-2.08,71.63,71.63,0,0,1,3-16.08,2.16,2.16,0,0,1,2.4-1.42c1.22.06,1.47,1,1.68,2.06,2.63,13.68,9.4,26.35,9.84,40.57a9.49,9.49,0,0,0,2.4,5.4c3.2,4,6.48,8,9.72,12Z"/><path d="M1151.91,96.39c-.19,1.9-1.52,1.75-2.6,2s-2,.6-1.92,1.78c.09.94,1.13,1.08,2,1.22,3,.52,3.66,2.24,2,4.6-1.48,2.12-1,7-5.61,5.15-2.71-1.11-6-2.94-4.49-7.14,2.11-6.05,2.15-6.13-4.22-8.33-1.74-.61-2.76-1.38-2.07-3.16.59-1.53,2.38-2.7,3.57-1.77,3.56,2.79,7.77,3.54,11.89,4.67A5.39,5.39,0,0,1,1151.91,96.39Z"/><path d="M1381.24,146.81c0,4.72-2.1,6.58-5.45,6.9-3.62.35-4.87-2-5-5.26-.16-2.95.42-5.89-.61-8.85-1.33-3.86,1.32-3.8,3.8-3.14C1378,137.57,1381.28,142.79,1381.24,146.81Z"/><path d="M1243.23,110c3.15-1.52,7.08-1.07,8.52-4.84a1.88,1.88,0,0,1,1.71-.57c6.7,2.44,13.07.23,19.49-1.26a3.59,3.59,0,0,1,3.58.7c-5.33,4.1-10.6,7.7-17.84,6-3.16-.73-6.21.52-9.29,1C1247.4,111.44,1245.25,112.3,1243.23,110Z"/><path d="M1080.29,149.56c.57,3.32,6.71,4.24,3.67,9.72-3.57-4.72-7.79-8.19-13.45-9.52a2.44,2.44,0,0,1-1.5-2.88,2.64,2.64,0,0,1,2.74-2.4c3-.08,6-.24,9-.14,2.65.09,5.5,1,5.11,4.11C1085.27,152.9,1082.14,148.39,1080.29,149.56Z"/><path d="M1403.72,135.37c6.85,1.12,12.59,4.25,17.91,8.19,2.56,1.9,5,3.87,8.53,3,1.22-.29,2.43,0,2.43,1.62,0,1.48-1.22,1.91-2.36,2.11-4.82.83-9.65.5-12.69-3.67-3.23-4.41-6.66-8.13-12.06-9.71C1404.8,136.74,1404.3,135.91,1403.72,135.37Z"/><path d="M1537.33,359a28.8,28.8,0,0,0,.46,4.64c1.39,4.91-.11,8.43-4.61,10.21-2.88,1.13-4.18-1.17-5.62-2.89s-1.37-3.63.6-5.11C1531,363.68,1533.93,361.54,1537.33,359Z"/><path d="M1182.21,107.88a3.92,3.92,0,0,1-1.6,3,49,49,0,0,1-9.77,6.8c-1.22.62-2.49,1.29-3.56-.13a2.91,2.91,0,0,1,0-3.72,24.26,24.26,0,0,1,12.53-7.64A1.76,1.76,0,0,1,1182.21,107.88Z"/><path d="M1590.66,389.82l.16.18c.21-1.62-.93-2.77-1.45-4.13s-.92-3,.89-3.79a2.86,2.86,0,0,1,3.8,1.42c.81,1.42,1.36,3,2.07,4.48,1.26,2.68,2.47,4.93,6.31,3.18,3-1.36,4.22,1.17,5.6,3.59-5.16,1.29-9.15-.62-13-2.83C1593.61,391.11,1592.45,389.83,1590.66,389.82Z"/><path d="M1068,139.92c-5.59.27-11.2-1.41-16.72,1.07-1.82.81-3.15-.49-3.42-2.49s.4-3.2,2.64-3.21C1056.69,135.25,1062.59,136.36,1068,139.92Z"/><path d="M1161.56,158.06c-1.88,1.3,4.22,5.95-2.2,5.47-3.18-.24-6.15-1.26-5.83-5.16.26-3.31,3-3.88,5.84-4S1162.2,155.93,1161.56,158.06Z"/><path d="M1109.05,150.11c-1.88-.84-3.22-.27-4.31,1.34-.77,1.12-1.78,2.25-3.24,1-1.83-1.53-.52-3.37-.26-5.09.21-1.46.74-2.85,2.49-2.12,2.55,1.06,4.91,1.7,7.6.37,1-.51,2,.39,1.86,1.6C1113,149.83,1111.33,150.51,1109.05,150.11Z"/><path d="M1100.06,103.92c-2-1.21-6.13.48-6-3.54.12-3.12,3.23-4.17,5.85-4s3.63,2.78,3.61,5.15C1103.52,103.33,1102.22,104.48,1100.06,103.92Z"/><path d="M842,91.9c3.13,2.24,6.69,3.09,10.1,4.34a1.8,1.8,0,0,1,1,2.5,2.61,2.61,0,0,1-3.19,1.75,19,19,0,0,1-9.3-5.45,1.78,1.78,0,0,1-.27-2.29C840.62,92.31,841.4,92.19,842,91.9Z"/><path d="M1153.73,170.35c-.27,1.7.26,4.23-2.34,4.07-4.34-.27-3-4.37-3.92-6.86-.75-2,.8-2.08,2.18-2.14C1153.19,165.28,1153.36,167.89,1153.73,170.35Z"/><path d="M599.54,120c4.68,1.48,5.85,5.63,9.3,6.91.85.32.64,2.28-.32,3.05a2.36,2.36,0,0,1-3.8-.65C603.07,126.56,601.59,123.71,599.54,120Z"/><path d="M477.63,251c-5.24-1.08-10.67-.81-15-4.29C468.14,246.64,473.56,246.79,477.63,251Z"/><path d="M483.89,262.92c-3.16-1.5-4.89-2.36-6.66-3.15-1.17-.52-2.76-.52-2.73-2.36a1.75,1.75,0,0,1,1.5-1.73c1.47-.29,3.17-.61,4.18.75A69,69,0,0,1,483.89,262.92Z"/><path d="M1426.59,271.28c-.16-4.26,3.31-5.72,4.57-8.45.55-1.21,2.42-.4,3.4.54s.18,1.79-.59,2.4C1431.7,267.57,1429.85,269.93,1426.59,271.28Z"/><path d="M1096.24,139.13c-.26,1.77-1.37,2.46-3.1,2.27-2.28-.25-3.81-1.69-3.65-3.81.14-1.91,2.24-1.49,3.61-1.44C1094.9,136.2,1096.27,137,1096.24,139.13Z"/><path d="M1403.59,273.77c3-.73,5.9-2.14,8.16.83.81,1.07-.06,2.28-1.35,2.58C1407.38,277.89,1405,277.12,1403.59,273.77Z"/><path d="M876.43,103.43c-1.46-2.44-3.72-4.59-1.78-7.54.67-1,2.44-.77,3.1,0C880,98.7,878.47,101.05,876.43,103.43Z"/><path d="M1180.83,97.47c-.26,3.67-1,6.14-4.41,6.38-1.24.08-2.49-.4-2.4-1.9C1174.27,97.83,1177.88,98.75,1180.83,97.47Z"/><path d="M1163.78,93.47a8.44,8.44,0,0,1,6.09-3.12c1.27-.09,2.4.35,2.6,1.65s-.77,2.11-2,2.38A9,9,0,0,1,1163.78,93.47Z"/><path d="M1449.52,173.63a34,34,0,0,1-3.94,1.65c-1.76.46-3,3-5.28,1.34a1,1,0,0,1,0-1.67c1.92-1.42,3.48-3.72,6.35-3.08C1447.42,172,1448,172.67,1449.52,173.63Z"/><path d="M1111.82,104c0,1.88-1.19,2.26-2.64,2.21-1.91-.07-2.58-1.31-2.41-3,.14-1.35-.31-3.46,1.94-3.21S1111.16,102.43,1111.82,104Z"/><path d="M1311.82,117.86c1.78.7,3.48,1.52,3.71,3.6.21,1.81-1.1,2.23-2.58,2.05-2.26-.27-2.91-1.91-2.92-3.88C1310,118.53,1310.58,117.77,1311.82,117.86Z"/><path d="M892.7,93.5c-2.23-.52-2.65-2.42-2.77-4.46-.07-1.24.68-1.82,1.87-1.55,2.13.5,3.55,1.73,3.42,4.1C895.14,93,894.32,93.64,892.7,93.5Z"/><path d="M1444.35,186.32c.37-2.06,1.68-3.07,2.82-4.15.92-.88,1.88-2,3.39-1.61.27.06.6.75.57,1.13a3.52,3.52,0,0,1-2.4,3.4C1447.36,185.54,1445.94,185.88,1444.35,186.32Z"/><path d="M1205.71,106.17c2.35-2.41,4.44-3.13,6.61-1.35a2.09,2.09,0,0,1,0,3.12C1209.64,109.82,1208.22,106.88,1205.71,106.17Z"/><path d="M1053.27,127.69c2.89.38,5.71-.18,8.2,1.52C1058.26,132.33,1056.54,132.05,1053.27,127.69Z"/><path d="M831.92,107.66a9.56,9.56,0,0,1,2.94,4.76c.18,1-.89,1.33-1.74,1.13-2.32-.55-3.12-2.26-3-4.45A1.45,1.45,0,0,1,831.92,107.66Z"/><path d="M1405.84,172.24c1.08-1.62,2.07-3.31,3.27-4.84.74-.94,1.63-2.52,3.11-1,1.13,1.14.12,2.1-.78,2.86-1.57,1.33-3.19,2.62-4.79,3.93Z"/><path d="M1468.14,272.74c-3.61,1.24-5.52-1.26-7.85-2.38a1,1,0,0,1-.07-1.67c.39-.34,1.56-.53,1.65-.36C1463.18,270.59,1466.41,270,1468.14,272.74Z"/><path d="M1328.77,355.22c-.15-1.64-.17-2.78-.37-3.9-.41-2.42-1.45-5.18,3-3.22,1.88.83,2.44-.38,1.78-2.07-.84-2.16-1.75-4.3-2.7-6.42-1.48-3.29.48-3.84,3-3.65,4,.3,7.52,4.24,8.18,9.45.73,5.79,2.93,10.58,8.21,13.42,3.09,1.67,3.27,4.51,2.94,7.19-.2,1.66-6.93,1.46-8.61-.45-1.36-1.56-2.36-3-4.84-2.5-1.94.39-4.41.43-4.59-2.36s2.37-2.09,4-2.42c.47-.1.92-.32,2.12-.75-4.37-2.43-8.07-1.21-11.09.86-2,1.37-4.52,2.42-5.89,4.79a2,2,0,0,1-2.65.71c-1.07-.6-.77-1.62-.69-2.63C1321.12,354.88,1322.34,353.86,1328.77,355.22Z"/><path d="M1250.73,361.21c1.62,3.08,3.2,6.17,4.87,9.22s3.88,5.78,7.67,7.23c-3.54,2.91-6.23,2.43-8.57-1.22s-4.48-7.84-9-9.68c-1.55-.63-3.26-1.49-4.46.36-1.1,1.7.52,2.64,1.47,3.75,1.23,1.44,3.69,3.39,1.83,4.85-1.71,1.34-4.32-.43-6.06-2.1-.12-.11-.31-.27-.3-.39,1-10.2-9.26-8.73-13.86-13.13-1.16-1.11-3.16-1.45-2.43-3.61.64-1.94,2.41-1.43,3.82-1.31,2,.17,4,.53,5.91.88.91.17,2.28.29,1.59,1.75-2.65,5.67,2.08,3.47,3.81,3.25,4.65-.6,9.23-1.18,13.81.26Z"/><path d="M1191,368.1a37.64,37.64,0,0,0,5-1.91c2.07-1.12,4-1.76,5.73.35s3,4.48,1,7.13a29,29,0,0,1-3.54,4.11c-2.73,2.5-5.07,2.21-6.37-1.47-.9-2.57-3.11-4.79-2.22-7.87Z"/><path d="M1320.89,367.55c3.37.66,6.83-1,10.14.69,1.18.61,2.5,1.33,2.33,2.85-.21,1.82-1.58,1.18-2.91,1.36-3.76.48-1.44,2.78-.67,4.17.91,1.64,3.53,1.86,3.88,4.17-6.35,1.28-7,.87-9-5.23a18,18,0,0,0-2.19-3.81C1321.72,370.53,1320.43,369.55,1320.89,367.55Z"/><path d="M1298.19,363.45c-5.65-1-10.28-7.22-14.64.07-1.85-3.43-2.78-6.68-5.14-9.15a2,2,0,0,1,0-3.07c1-.66,1.77.36,2.29,1.25a3,3,0,0,0,2.72,1.87C1289.88,354.21,1293.28,358.92,1298.19,363.45Z"/><path d="M1296.22,348.59c0,1.63-.37,3.06-2.18,3.36-1.45.24-2.94-.49-3-1.91-.17-3.11-1.63-2.86-3.93-2.23-3.55,1-6.41-.77-9-3-.74-.64-1.56-1.38-1-2.51a1.61,1.61,0,0,1,2.52-.58c3.21,2.08,7.67.8,10.47,4,.79.92,1.82.35,2.76,0C1295.56,344.83,1296,346.63,1296.22,348.59Z"/><path d="M1132.35,363.57c4.07,5.79,4.61,10.37,1.87,14.23-1.48,2.08-3.28,2.95-5.4,1.21-2.29-1.88-.34-3,1-4.24a5.42,5.42,0,0,0,1.59-5.86C1130.89,367.11,1130.57,365.35,1132.35,363.57Z"/><path d="M1190.66,368.44c-2.83-.11-5.16-.81-6-4-.61-2.35.48-3.71,2-5.16s2.61-.89,3.93.1c1.74,1.3,2.81,2.8,1.89,5.07-.5,1.23-1,2.46-1.45,3.69Z"/><path d="M1144.61,372.24c-1.23-.37-3.11-.6-2.28-1.93,1.28-2.05.82-5.88,4.55-5.73a3.72,3.72,0,0,1,3.29,3.87C1149.87,371.53,1146.61,371.27,1144.61,372.24Z"/><path d="M1273.32,352c-5.24-.62-5.52-4.59-6.55-7.95-.21-.67-.08-1.36.75-1.52a3.87,3.87,0,0,1,4,1.43C1273.22,346.18,1272.86,348.92,1273.32,352Z"/><path d="M1301.18,360.15a3.2,3.2,0,0,1-3.11-3c-.22-1.81,1.07-2.3,2.53-2.18,1.78.14,3.32,1,3.47,2.92C1304.2,359.52,1303,360.15,1301.18,360.15Z"/><path d="M1434.51,355.09c.08,1.45-.69,2-1.49,1.85-2.7-.42-4.31-2.25-5.16-4.69-.36-1,.39-2.37,1.37-2.11C1431.92,350.84,1432.38,354,1434.51,355.09Z"/><path d="M1168,365.43c1.53.31,3,.85,3,2.65,0,2-1.49,2.27-3.06,2.22s-3-.63-3-2.47S1166.4,365.47,1168,365.43Z"/><path d="M511.34,525.17l9.46-2.4C517.9,527.73,516.81,528,511.34,525.17Z"/><path d="M1053,279.82c-1.42,1.62-3.22,1.55-5,1.42-2.1-.16-3.07-1.71-3.72-3.45-.19-.51-.13-1.56.17-1.73,1.73-1,3.07.27,4.42,1.06S1051.62,278.89,1053,279.82Z"/><path d="M1159.18,293.69c-8.22,2.18-11.18,1.39-13.45-2.93-.91-1.73-.92-2.84,1.09-3.35,4.63-1.15,2.85-3.37,1-5.63-.42-.52-.91-1-1.34-1.48-1.12-1.29-2.24-2.6-.86-4.38a2.94,2.94,0,0,1,3.51-1.18,3.79,3.79,0,0,1,2.86,3.66,6.73,6.73,0,0,1,0,1.49C1150.71,286.19,1152.57,291,1159.18,293.69Z"/><path d="M1094.86,274.8c1.34-1.53,3.18-2.07,3.71-4.12,1-3.94,4.38-2.43,6.59-2,3.76.79,1.15,3.72,1.2,5.71.08,3-1.84,3.44-4.32,3.14A13.23,13.23,0,0,1,1094.86,274.8Z"/><path d="M1116.23,271c2.94.53,4.88.84,6.79,1.23,1.21.25,3-.31,3.36,1.29.25,1.29-1.25,2.16-2.19,3a2.76,2.76,0,0,1-4,.16A13.15,13.15,0,0,1,1116.23,271Z"/><path d="M623.17,536.12c.24-1.23-.6-4.1,2.31-4,3.56.16,2.61,3.67,3.14,5.86.47,2-.38,3.9-2.75,3.66C623,541.37,623.08,538.89,623.17,536.12Z"/><path d="M1459.07,455.85a2.87,2.87,0,0,1-2-3.24,4.52,4.52,0,0,1,4-4.31c1.69-.31,1.94,1.05,1.71,2.2A8.39,8.39,0,0,1,1459.07,455.85Z"/></svg>