<svg id="Ebene_1" data-name="Ebene 1" xmlns="http://www.w3.org/2000/svg" viewBox="0 0 913.27 1080"><path d="M575.58,21.6C590.9,38.73,585.2,51,567.76,62.71c-38.08,25.68-72.57,55.41-97.26,94.92-13.31,21.31-22.34,44.07-21.83,69.75.28,13.59,6,20.35,20.45,16.31,136-38,237.3,15.88,315.41,123.07,124.4,170.71,111.39,441.32-26.8,597.65-47.55,53.8-105.34,90.17-178.13,99.18-3,.37-5.78,2-8.67,3.1H519.84c-38.71-15.82-77.42-14.25-116.12,0H348c-50.26-10.46-97.62-27.5-138.22-60.23C125.53,938.56,80.55,848,62.53,743.75c-22.81-131.92-4-257.37,71.56-370.29,58.21-87,137.57-140.65,245.89-142.77A100.14,100.14,0,0,1,398.45,232c8.39,1.42,12.84.06,13.24-10.06,2.77-69.48,45.13-116,93.47-158.68,16.6-14.64,34.52-27.8,51.84-41.63Zm-314,624.77c1,100.9,28.33,192.39,77.78,262.61,110.4,156.74,294.86,160.37,409.75,8.06,115-152.52,110.31-402.24-10.42-550-107.64-131.79-278-131.21-384.12,1.45C289,450.41,263.45,545.73,261.59,646.37ZM406.47,270.28c-8.5-1-12.1-1.7-15.73-1.87-82.84-3.72-150,30.23-200.27,92.93-112,139.75-124.54,296.78-67.28,461.18,28.5,81.85,79.76,148.08,161.14,185.7,37.35,17.27,76.46,25.81,120.67,18C167,866,164.3,435.83,406.47,270.28Z"/></svg>