<svg id="Ebene_1" data-name="Ebene 1" xmlns="http://www.w3.org/2000/svg" viewBox="0 0 1142.76 1080"><path d="M272.39,212c-8.46,7-16.19,13.27-23.77,19.7-36.65,31.11-63,69.68-81.91,113.6a24.93,24.93,0,0,0-2.14,7.67c-.58,7.05,6.76,13.47,14.2,12.5a22.55,22.55,0,0,0,9.23-3.58c36.67-23.4,75.48-42.88,114.2-62.51,29.54-15,58.76-30.53,86.75-48.28.68-.44,1.39-.82,2.71-1.59-1.62,9.68-3.3,18.71-4.61,27.79a410.85,410.85,0,0,0-3.13,85.71c1.36,21.1,2.68,42.2,4.08,63.3.4,6.06,2.61,11.07,8.92,13.11s10.69-1.1,14.27-5.65c39.13-49.8,72.91-102.53,90-164.4.13-.48.36-.94.51-1.41,2.31-7.07,4.42-7.72,10-2.59,10.42,9.59,21,18.94,32.21,27.65,46,35.88,97.51,61.48,151.88,81.81,2.17.81,4.39,1.53,6.59,2.28,5.3,1.8,10.22,1.43,14.24-2.88s3.73-9.35,1.44-14.41a405.19,405.19,0,0,0-23.17-43.62c-19.08-31.44-42.23-59.4-70.66-82.86-3.83-3.17-7.36-6.7-11.27-10.27,2-1.55,4-1,5.82-.88a486.34,486.34,0,0,0,68.79-2.65c18.37-1.91,36.72-4,54.84-7.72,8.61-1.77,15.55,1.4,22.06,6.67a249.89,249.89,0,0,1,75,101.26c14.86,36.4,22.67,74.39,24.4,113.66.2,4.49-1.14,6.68-5.79,6.39-46-2.86-91.83.52-137.71,2.36-30.3,1.22-60.61.23-90.9,1-37.06,1-73.75,4.47-108.74,18-37.64,14.56-68.64,38.24-94.85,68.69-35.43,41.15-58.95,88-68.36,141.64-5.68,32.4-5.85,64.94-2,97.55.48,4.13,1.16,8.25,1.49,12.39.69,8.63-.45,9.91-9.08,8.36-11-2-21.86-4.33-32.68-7C258.16,769,204.53,747,156.69,712.37c-43.82-31.74-80.71-70-106.61-118-21-39-31.22-80.9-31.78-125-.61-48.13,5.41-95.41,22-140.81q32.92-90,116.34-137.85c4.45-2.55,8.69-3.63,13.73-1.88C203.16,200.23,236.58,208.88,272.39,212Z"/><path d="M668,467c14.77,0,24.77-.27,34.76.05,33.51,1.05,66.83-3,100.27-3.7,50.77-1,101.31.56,149.82,18,69.91,25.08,116.52,73.88,142.89,142.63,26.59,69.36,25.44,139.44,3.65,209.61-16.23,52.27-43.68,98.08-82.59,136.66-45.32,44.92-99.78,73.08-161.92,86.73-37.35,8.21-75.14,12.79-113.39,12.5-65.1-.51-127.6-13-186.18-42.32C490.78,994.87,444,945.23,412.86,880.53c-17.29-35.92-29.4-73.5-34.6-113.11-6.5-49.58-.12-97.56,18.33-144,12.67-31.92,29.51-61.23,53.66-85.8,35.47-36.09,77.81-59.33,128.28-66.69C609.8,466.32,641.3,467.12,668,467Zm257.74,63.84c-66.67,0-106.65,21.65-135.24,65C760.77,640.9,783,691.54,822,708c13.68,5.78,28,6.67,42.55,7,16.83.42,33.65,1.31,49.44,8.07s23.54,19.5,21.93,36.49c-1.77,18.73-10,35.06-19.91,50.59-15.6,24.42-37.11,43-60.17,59.95-11.94,8.79-24.09,17.38-33.09,29.44-13,17.4-18.63,36.51-11.4,57.74,10.27,30.13,40.8,43.31,72,30.37,48.75-20.2,93.19-47.41,129.69-86,52.83-55.92,76.56-123.33,76-199.62a165.19,165.19,0,0,0-19.76-77.7C1035.68,562.11,981.85,533.26,925.72,530.84Zm-345.05-.9a183.28,183.28,0,0,0-43.46,6.17C488,549.17,448.84,575.79,424.3,621.38c-18.91,35.12-24.17,73.07-20.46,112.33A287.91,287.91,0,0,0,436.43,843c21.76,40.83,52.85,73.21,90.35,99.82,27.4,19.45,56.12,36.37,88.32,46.7,16.89,5.41,32.93,3.86,47.51-6.65,21.91-15.79,27.88-47.33,14-72.8-6.84-12.56-17-22-28.16-30.67-17.74-13.79-36.13-26.78-51.73-43.16-18.71-19.63-32.89-41.84-39.32-68.45-5.45-22.52,2.65-37.59,24.29-45.8,9.73-3.69,19.9-5.22,30.23-6,13.42-1.07,26.94-.66,40.31-2.87,51.06-8.44,79.12-62.06,54.5-107.55C680,556,637,531.25,580.67,529.94Zm190,86.72c-.25-9.46.55-19.64-.83-29.76-.81-6-3.35-9-9-9.71a113.72,113.72,0,0,0-28.38.23c-7.42.91-9.83,4-10.9,11.43s-.2,15-.28,22.44c-.29,29.79-1.34,59.57-3.53,89.29-.58,7.88-2.26,10-9.84,12.41-10.94,3.43-21,8.44-29,16.94-13.63,14.59-15.27,32.31-12.64,50.92,3.43,24.15,12.27,46.45,23.07,68.2,15.13,30.48,22.08,62.45,16.78,96.74-2.7,17.5.94,34.22,11.95,48.66,14.59,19.16,39.57,19.65,54.79,1.12,11.06-13.46,15-29.1,13.33-46.21-1-10-2.06-19.86-1.85-29.87.57-26.68,8.35-51.31,20.46-74.89,11-21.45,18.6-44.13,21.35-68.21,3.16-27.73-9.29-55.87-41.69-63.63-7.5-1.79-10.3-5.25-10.52-13.15C773.26,672.17,770.08,644.84,770.68,616.66Z"/><path d="M681.25,343.15C669.67,338,658.19,333.3,647,327.93c-41-19.73-79.34-43.53-113-74.42a336.82,336.82,0,0,1-24.73-25.4c-2.56-2.9-5.34-5.52-9.37-6.2-7.74-1.31-13,3-14.87,12.47a329.4,329.4,0,0,1-10,39.16c-13.67,42.24-35.3,80.3-60.94,116.26a8,8,0,0,1-4.1,3.12c-.63-9.57-1.27-18.89-1.85-28.21-2-32.2-1-64.25,4.8-96.06a330.45,330.45,0,0,1,9.34-38.27,47.88,47.88,0,0,0,1.69-6.26c.87-5.17-.44-9.52-5-12.64s-8.88-2.68-13.11,0c-8.57,5.43-16.93,11.21-25.49,16.66-35.16,22.34-72.35,41-109.28,60.11-19.2,9.94-38.21,20.25-57.32,30.38-2.16,1.15-4.19,2.81-7.06,2.12-.18-1.78,1.11-2.94,1.89-4.25,26.59-45.07,63.95-78.84,109.33-104.16,5.11-2.85,9.13-6.29,8.49-12.81-.76-7.62-5.95-12.07-14.17-11.46a260.31,260.31,0,0,1-45.36-.69c-30.32-3-59.45-11-88.13-20.93-11.44-4-22.76-8.26-34.12-13.49,9.16-1.62,18.3-3.41,27.5-4.84,45.86-7.15,92.07-9.2,138.4-8.57A866.69,866.69,0,0,1,418,147.74c17.69,2.45,23.72-3,25-21.28C445,99.3,449.1,72.58,459.71,47.2c4.26-10.2,10-19.54,15.82-28.85,3.16-5.08,18.05-5.69,21.88-1.12,1.66,2,1,4.05,0,6.06-14.35,28.16-20.59,58.18-20.25,89.64a114.85,114.85,0,0,0,2.71,24.78c2.57,11.07,8.5,15,19.73,12.73,15.82-3.2,31.66-6.12,47.75-7.72a449.24,449.24,0,0,1,77.8-.46c52.42,3.9,103.18,15.59,152.67,33.1,1.83.65,3.62,1.44,6.43,2.56a165.66,165.66,0,0,1-25.7,6.74c-42.19,8.34-84.71,14.05-127.8,14.1a310.19,310.19,0,0,1-57.11-5.14c-7.74-1.43-12.73.62-15.2,6.18-2.6,5.85-.92,11.4,5.26,16.09,20.16,15.31,40.38,30.54,58.79,48a293.2,293.2,0,0,1,57.5,75C680.6,340,681.52,341,681.25,343.15Z"/><path d="M1065.15,709.55c-1.82,58.89-18.19,112.72-55.38,159.29C984.55,900.43,953.05,924.37,918,944q-17.85,10-36.48,18.47a74.07,74.07,0,0,1-16,5.4c-22.43,4.51-37.22-16.79-32.28-35.93,3.28-12.7,10.83-22.35,21-30.17,13.71-10.58,27.78-20.68,40.88-32,27.14-23.52,48.59-51,60.11-85.52,4.89-14.62,7.23-29.51,3-44.66C951.68,716.42,935,703.77,913,697.14c-16.4-4.95-33.39-5.66-50.37-6.34-8.95-.36-17.92-.57-26.62-3.42-29.5-9.66-44-41.39-30.29-69.22,16.39-33.24,43.17-54.67,79.91-60.74,56.23-9.29,104.84,6.18,143.24,49.36,20.44,23,30.71,50.67,34.79,80.88A136,136,0,0,1,1065.15,709.55ZM881.06,630.22c.68-9.21-.93-16.41-4.63-23.12-7.13-13-20-13.46-27-.51-7.71,14.24-7.57,29.2.32,43.36,6.63,11.9,18.09,11.86,25.71.57C879.89,643.91,880.94,636.4,881.06,630.22Zm52.53,21.6c0,1.33,0,2.66,0,4,.13,6,2.43,10.62,8.14,13.13,5.52,2.42,10.44,1.14,14.73-2.74,11.66-10.55,17.74-23.49,16.17-39.45-.56-5.71-3.34-10-9-12.07-5.36-1.93-10.2-.78-14.34,3C939.22,626.78,933.31,637.89,933.59,651.82Zm61.23,120.1a42,42,0,0,0-4.49,0c-6.39.67-11.42,3.4-13.85,9.72s.22,11.14,4.57,15.18c10,9.29,21.87,12.84,35.34,10.3,5.72-1.07,10.36-4.07,12.07-9.89,1.8-6.11-1-11.09-5.33-15.15C1015.16,774.73,1005.5,771.82,994.82,771.92ZM1017.05,686c-12,0-27.37,10.43-31.81,21.61-3.13,7.88,0,14.19,8.07,16.62a18.58,18.58,0,0,0,8.37.55c12.11-1.9,21.18-8.33,27.23-18.89S1029.19,686,1017.05,686ZM979.58,874.74a44,44,0,0,0,6-.94c3.7-1.07,4.95-3.44,3.49-7.26-5.67-14.8-26-28.29-41.82-27.7-5.74.22-7.88,3.25-6,8.47C945.8,860,966,874.56,979.58,874.74Zm-58,51.73c6.75,0,9.28-2.93,6.69-8.42-6.36-13.5-16.69-22.14-31.73-24.36-6.3-.93-8.69,2-7,8.21C892.46,912.68,910.43,926.45,921.56,926.47Z"/><path d="M586,554.05c39.56,1.73,75.53,19.32,98.14,59.83,19.12,34.26-2.2,73.3-41.39,76.28-17.9,1.36-36,.93-53.65,4.74-13,2.8-25.27,7.28-35.89,15.47-19.93,15.36-26.47,38.52-18.59,66.14,10.52,36.87,32.11,66.49,60.42,91.66,13.1,11.64,27.48,21.61,41.34,32.27,9.12,7,16.73,15.23,20.85,26.22,3,8.05,3.92,16.19.47,24.34-6.65,15.71-20.92,21.57-37.47,15.24a354.66,354.66,0,0,1-65.61-33.6c-34.94-22.56-65.29-49.88-87.73-85.32s-34.78-74.25-39-115.77c-3.3-32.6.85-64.19,15-94,19.66-41.41,53-66,96.72-77.59C553.05,556.46,566.64,554.29,586,554.05ZM647.3,627.8c.58-9-.89-17.34-6.81-24.43-6.76-8.09-15.81-8.06-22.51.06-9.68,11.72-9.52,37.59.3,49.33,7.17,8.56,16.33,8.19,22.92-.89C646.47,644.63,648,636.46,647.3,627.8Zm-88.51,26.32c-.26-14.94-4.95-26.64-15.23-35.84-4.36-3.9-9.32-5.7-15.15-3.58-5.4,2-8.78,6-9,11.5-.79,16.74,4.32,31.28,18.27,41.49,7.94,5.8,18.32,1.26,20.45-8.44A48.21,48.21,0,0,0,558.79,654.12Zm-76.16,154c10.33,0,21.88-4.55,28.57-11.28,9.12-9.17,6.22-20.81-6.28-24-15-3.88-27.69,1.15-38.11,11.71-6.93,7-3.93,18.3,5.07,21.71A31.75,31.75,0,0,0,482.63,808.15ZM493.39,725c12.66,0,18.11-9.14,12-20.08-6.77-12-17.43-18-30.89-18.84-10-.64-16.15,7.7-12.83,16.72C466.06,714.82,480.63,725,493.39,725Zm48.92,113.86c-16.37,1.57-29.29,10.4-38.08,25.47-3.53,6-1.8,9.3,5.2,10.19a15.4,15.4,0,0,0,4.93-.19c13.35-2.81,24.23-9.74,32.89-20.19a19.35,19.35,0,0,0,3-5.66C552.62,842.17,550.17,838.8,542.31,838.86Zm28.74,87.56c11.06.44,30.28-15.16,32-26,.77-4.89-2.38-7.79-7.56-6.84-13.63,2.52-23.65,10.12-30.48,22C560.86,922.85,562.72,926.08,571.05,926.42Z"/><path d="M746.76,632.86c.75,15.9,1.43,31.8,2.26,47.69.48,9.3,1,18.6,1.82,27.88,1,12.11,7.18,20.48,18.74,24.64,2.66,1,5.31,1.93,8,2.72,19.07,5.59,26.67,16.92,24.9,36.85-1.8,20.23-8.22,39.31-17.44,56.94-20.71,39.62-29.39,81-23,125.39a30.71,30.71,0,0,1-7.3,24.66c-6,7.1-12.06,6.84-17.78-.42-5.45-6.92-6.81-15.1-6.86-23.51a192.84,192.84,0,0,1,1-22.93c3.21-28.47-3-55.28-14.18-81.14-7.76-18-17.24-35.27-22.36-54.35-2.93-10.95-5.34-21.95-4.87-33.41.49-11.91,6.37-20.08,17-24.82a129.69,129.69,0,0,1,14.07-5c12.34-3.86,19.19-12.19,20.15-25,1.75-23.57,3.29-47.14,4.91-70.72.12-1.81.17-3.62.25-5.44Z"/></svg>