<svg id="Ebene_1" data-name="Ebene 1" xmlns="http://www.w3.org/2000/svg" viewBox="0 0 1920 1080"><path d="M682.71,781.9c-73.29,18.87-144.2,43.31-217.9,57.87-43.51,8.6-86.84,18-130.86,23.83-14.18,1.88-17.56-3.55-25.22-16.14-17.82-29.25,1.88-39.77,18.38-54.24C420.37,711.4,527.44,652.64,641.19,605c7.32-3.07,15.49-4.5,22.92-13.17-57.55,16.69-108.94,41.39-158.76,69C433.26,700.79,363.21,744,305.39,804c-8.21,8.51-11.35,9.58-18.4-2-7.91-13-29.18-11.72-35.75-29.36-1.68-4.51-6.67,4.19-11,5.62-22.14,7.33-42.75-7.81-40-30.05,9.67-77.91,49.73-138.45,108.2-188.35,92.7-79.12,199.15-135.24,312.7-175.91,136.51-48.9,264-116.1,393.63-179.48,97.92-47.88,198.62-89.34,304.18-117.77,50.34-13.56,101.16-17.77,153-5.08-72.14,19.89-144.16,39.29-206.89,82.19,62.46-31.51,127.67-55,196.43-68.08,11.08-2.11,22.23-4.31,33.45-5.11,19.3-1.36,31.26,6.82,30.78,27.71-.67,29.48,15.58,48.17,39.37,61.66,29.74,16.87,32.68,29.56,8.59,55.64-38.43,41.62-83.12,76.25-128.07,110.47-63.77,48.53-135.31,84.79-202.23,128.34-7.37,4.81-14.92,9.36-22.38,14l4.12,6.9c38.71-24.2,77.2-48.79,116.2-72.51,40.68-24.75,81.22-49.59,119.35-78.26,37.09-27.89,72.27-58.13,112.28-93.74-14.11,80.43-40.65,147.57-85.57,207.14-37.46,49.69-82.86,90-139.16,117.54-133.49,65.33-252.09,152.76-367.33,245.61-87,70.1-178.62,134.46-287.19,166.57-133.18,39.4-265.57,45.16-391.1-28.69-10.3-6.06-31.23-13.31-25.31-23.33,9.15-15.48,21.55,3.73,32,8.38,47.66,21.15,97.92,22.39,148.9,19.28q-38.74-4.27-77.49-8.55c-25.89-2.88-50.44-10.68-74.23-21-8.12-3.5-15.29-7.75-3.88-16.71,3.54-2.78,7.41-7.88,7.44-11.94.22-32.38,22.05-33.45,46.66-36.76a1371.33,1371.33,0,0,0,317.81-82C677.39,785.3,680,783.42,682.71,781.9ZM426.29,534.07c-87,50.86-144.63,124.1-170.44,221.69C289.24,664,348.78,592.15,426.29,534.07Z"/><path d="M1598.73,101.34c-24.17,5.1-40.89,21.15-58.06,36.68-7.9-9.59-4.06-19.7-5.54-28.88-2-12.25-4.42-23.14-19.83-26-15.69-3-13.88-10.35-2.36-17.91,10.09-6.62,20-13.58,30.44-19.59,19.92-11.47,34.19-7.37,52.94,8.74,26.06,22.4,39,50,50.48,79.92,6.57,17.2-30.55,68.17-42.07,59-18.08-14.4-42-20.87-55.8-40.14-6.58-9.2,3-14.67,8.76-19.47C1571,122.46,1585,112.06,1598.73,101.34Z"/><path d="M230.4,882.85c-11.55-19-21.47-47.05-27.85-76.35-3.44-15.79-4.3-28.77,19.34-20.52,12.31,4.3,24.38-1.89,39.52,7,27.57,16.25,34.91,41.76,43.53,66.38,10.81,30.91,1.55,48.65-22.86,59C265,925.55,250.24,916.64,230.4,882.85Zm9-12c3.89,5.92,9.66,7.82,14.31,3.14,7.39-7.45,9.26-17,2.92-26.28-3.5-5.14-9.69-7.43-14.75-3.25C232.73,852.07,235.83,861.73,239.45,870.88Z"/></svg>